<?xml version="1.0" encoding="UTF-8" standalone="no"?>
<!-- Created with Inkscape (http://www.inkscape.org/) -->

<svg
   version="1.1"
   id="svg1"
   width="1786.8779"
   height="1402.8711"
   viewBox="0 0 1786.8779 1402.8711"
   xmlns:xlink="http://www.w3.org/1999/xlink"
   xmlns="http://www.w3.org/2000/svg"
   xmlns:svg="http://www.w3.org/2000/svg">
  <defs
     id="defs1">
    <linearGradient
       id="linearGradient9">
      <stop
         style="stop-color:#ae7839;stop-opacity:1;"
         offset="0"
         id="stop12" />
      <stop
         style="stop-color:#e8c091;stop-opacity:1;"
         offset="1"
         id="stop9" />
    </linearGradient>
    <linearGradient
       id="linearGradient5">
      <stop
         style="stop-color:#243446;stop-opacity:1;"
         offset="0.16831683"
         id="stop6" />
      <stop
         style="stop-color:#96d991;stop-opacity:1;"
         offset="0.63613862"
         id="stop7" />
    </linearGradient>
    <linearGradient
       id="linearGradient3">
      <stop
         style="stop-color:#243446;stop-opacity:1;"
         offset="0.17326732"
         id="stop4" />
      <stop
         style="stop-color:#96d991;stop-opacity:1;"
         offset="0.63999999"
         id="stop5" />
    </linearGradient>
    <linearGradient
       id="linearGradient2">
      <stop
         style="stop-color:#243446;stop-opacity:1;"
         offset="0.17"
         id="stop2" />
      <stop
         style="stop-color:#96d991;stop-opacity:1;"
         offset="0.63999999"
         id="stop3" />
    </linearGradient>
    <linearGradient
       xlink:href="#linearGradient5"
       id="linearGradient12"
       x1="1567.6743"
       y1="2902.5608"
       x2="3772.5818"
       y2="2902.5608"
       gradientUnits="userSpaceOnUse" />
    <linearGradient
       xlink:href="#linearGradient3"
       id="linearGradient13"
       x1="1558.4873"
       y1="2456.9946"
       x2="3763.3948"
       y2="2456.9946"
       gradientUnits="userSpaceOnUse" />
    <linearGradient
       xlink:href="#linearGradient9"
       id="linearGradient14"
       x1="1562.1451"
       y1="1495.0828"
       x2="3769.9558"
       y2="1495.0828"
       gradientUnits="userSpaceOnUse" />
    <linearGradient
       xlink:href="#linearGradient2"
       id="linearGradient15"
       x1="1563.0808"
       y1="2029.8022"
       x2="3767.9883"
       y2="2029.8022"
       gradientUnits="userSpaceOnUse" />
  </defs>
  <g
     id="g1"
     transform="matrix(0.58723302,0,0,0.67030941,-666.19536,-797.24254)">
    <path
       d="m 1767.5968,2657.0963 q -277.0555,-3.6098 -277.0555,-279.7629 v -270.7383 q 0,-182.2971 -140.7839,-191.3217 V 1810.588 q 140.7839,-9.0247 140.7839,-194.9316 v -263.5186 q 0,-279.7629 277.0555,-283.3727 v 115.515 q -143.4913,3.6098 -143.4913,178.6872 v 264.4211 q 0,189.5168 -135.3692,232.8349 v 3.6098 q 135.3692,40.6108 135.3692,231.03 v 260.8113 q 0,100.1731 31.5861,142.5888 32.4886,43.3181 111.9052,45.123 z"
       id="text2"
       style="font-size:1848.24px;font-family:'Segoe UI';-inkscape-font-specification:'Segoe UI, Normal';fill:#96d991;stroke-width:3.75506"
       transform="scale(0.84049554,1.1897743)"
       aria-label="{" />
    <path
       d="m 5153.0718,1842.185 q -135.7847,8.7042 -135.7847,184.528 v 261.1245 q 0,266.347 -266.347,269.8287 v -109.6723 q 75.7261,-1.7408 107.061,-43.5208 32.2054,-41.7799 32.2054,-137.5255 v -251.55 q 0,-183.6575 129.6918,-222.8262 v -3.4817 q -129.6918,-41.7799 -129.6918,-224.5671 V 1309.491 q 0,-168.8605 -139.2664,-172.3421 v -111.4132 q 266.347,3.4817 266.347,273.3104 v 254.1611 q 0,179.3055 135.7847,188.0097 z"
       id="text3"
       style="font-size:1782.61px;font-family:'Segoe UI';-inkscape-font-specification:'Segoe UI, Normal';fill:#96d991;stroke-width:3.77953"
       transform="scale(0.81065091,1.2335766)"
       aria-label="}" />
    <path
       style="fill:url(#linearGradient15);fill-opacity:1;stroke:none;stroke-width:3.77953;stroke-dasharray:none;stroke-opacity:1"
       d="m 1563.0808,1650.1273 2.2865,300.2301 c 11.2979,33.2025 44.7899,48.1693 75.1836,63.7031 129.8903,66.3851 526.4017,222.1432 793.5345,335.1457 100.8514,42.6621 182.8701,60.7186 232.9876,60.2625 37.9632,-0.3455 91.8478,-2.0561 132.645,-18.5692 l 914.2153,-384.6212 c 36.2193,-14.0564 54.6469,-29.5898 53.2429,-52.0368 l 0.062,-299.3253 c -4.7509,12.92 -0.3181,29.715 -35.0464,49.26 -311.8765,131.2012 -611.5525,260.5359 -928.1674,390.1576 -93.1909,34.9693 -178.8561,28.3249 -269.579,0.2871 -279.2103,-107.5658 -572.8378,-230.8226 -877.3783,-367.4848 -18.3233,-8.2226 -39.2753,-19.0692 -55.6782,-30.5287 -17.6608,-12.9377 -34.7372,-29.9869 -38.3081,-46.4801 z"
       id="path5" />
    <path
       style="fill:url(#linearGradient12);fill-rule:evenodd;stroke:none;stroke-width:3.77953;stroke-dasharray:none;stroke-opacity:1"
       d="m 1567.6743,2522.886 2.2865,300.2301 c 11.2979,33.2025 44.7899,48.1693 75.1836,63.7031 129.8903,66.3851 526.4017,222.1432 793.5345,335.1457 100.8514,42.6621 182.8701,60.7186 232.9876,60.2625 37.9632,-0.3455 91.8478,-2.0561 132.645,-18.5692 l 914.2153,-384.6212 c 36.2193,-14.0564 54.6469,-29.5898 53.2429,-52.0368 l 0.812,-298.5753 c -4.3759,16.17 -0.6931,32.34 -35.7964,48.51 -311.8765,131.2012 -611.5525,260.5359 -928.1674,390.1576 -93.1909,34.9693 -178.8561,28.3249 -269.579,0.2871 -279.2103,-107.5658 -572.8378,-230.8226 -877.3783,-367.4848 -18.3233,-8.2226 -39.2753,-19.0692 -55.6782,-30.5287 -17.6608,-12.9377 -34.7372,-29.9869 -38.3081,-46.4801 z"
       id="path4" />
    <path
       style="fill:url(#linearGradient13);fill-rule:evenodd;stroke:none;stroke-width:3.77953;stroke-dasharray:none;stroke-opacity:1"
       d="m 1558.4873,2077.3197 2.2865,300.2301 c 11.2979,33.2025 44.7899,48.1693 75.1836,63.7031 129.8903,66.3851 526.4017,222.1432 793.5345,335.1457 100.8514,42.6621 182.8701,60.7186 232.9876,60.2625 37.9632,-0.3455 91.8478,-2.0561 132.645,-18.5692 l 914.2153,-384.6212 c 36.2193,-14.0564 54.6469,-29.5898 53.2429,-52.0368 l 0.812,-298.5753 c -4.3759,16.17 -0.6931,32.34 -35.7964,48.51 -311.8765,131.2012 -611.5525,260.5359 -928.1674,390.1576 -93.1909,34.9693 -178.8561,28.3249 -269.579,0.2871 -279.2103,-107.5658 -572.8378,-230.8226 -877.3783,-367.4848 -18.3233,-8.2226 -39.2753,-19.0692 -55.6782,-30.5287 -17.6608,-12.9377 -34.7372,-29.9869 -38.3081,-46.4801 z"
       id="path3" />
    <path
       style="fill:url(#linearGradient14);fill-opacity:1;fill-rule:nonzero;stroke:none;stroke-width:3.77953;stroke-dasharray:none;stroke-opacity:1"
       d="m 1607.7954,1598.0512 920.9081,-384.2276 c 40.1928,-21.2929 91.7539,-24.6294 131.9468,-24.4521 51.7529,3.3942 108.7589,16.2786 147.5482,28.3152 359.7816,140.3778 585.9907,245.3325 889.5423,371.6528 31.5128,12.9775 55.0692,31.0823 66.6937,54.7688 9.7051,23.2119 -9.3763,50.4945 -35.2465,61.526 l -223.2244,95.0047 -693.1955,-288.7734 c -51.8075,-15.6575 -90.3892,-22.5349 -135.9014,-27.7002 -127.9648,-5.9471 -151.9301,24.7251 -296.0562,83.643 -142.8919,58.4134 -421.1157,177.6679 -556.5861,233.8913 -64.5323,-26.9741 -106.1224,-43.5154 -221.6786,-100.9686 -48.9455,-26.6743 -55.496,-80.6279 5.2496,-102.6799 z"
       id="path1" />
  </g>
</svg>
