<svg width="3920" height="3258" viewBox="0 0 3920 3258" fill="none" xmlns="http://www.w3.org/2000/svg">
<path d="M2578.81 0H1439.72C1262.56 0 1118.94 143.653 1118.94 320.858V2924.42C1118.94 3101.62 1262.56 3245.27 1439.72 3245.27H2578.81C2755.97 3245.27 2899.59 3101.62 2899.59 2924.42V320.858C2899.59 143.653 2755.97 0 2578.81 0Z" fill="#0D0D0D"/>
<path d="M2869.55 320.881V2924.42C2869.46 3001.52 2838.8 3075.44 2784.3 3129.96C2729.79 3184.48 2655.89 3215.15 2578.8 3215.24H1439.73C1362.65 3215.15 1288.75 3184.48 1234.24 3129.96C1179.73 3075.44 1149.07 3001.52 1148.98 2924.42V320.881C1149.07 243.778 1179.73 169.859 1234.24 115.34C1288.75 60.8202 1362.65 30.1518 1439.73 30.0625H1588.69V81.528C1588.69 104.827 1597.94 127.172 1614.41 143.647C1630.88 160.122 1653.22 169.379 1676.52 169.38H2342.02C2365.31 169.379 2387.65 160.122 2404.12 143.647C2420.6 127.172 2429.85 104.827 2429.85 81.528V30.0625H2578.8C2655.89 30.1518 2729.79 60.8202 2784.3 115.34C2838.8 169.859 2869.46 243.778 2869.55 320.881Z" fill="#243446"/>
<path d="M1110.75 658.343C1104.95 658.336 1099.4 656.031 1095.31 651.934C1091.21 647.837 1088.91 642.283 1088.9 636.489V592.781C1088.9 586.985 1091.2 581.427 1095.3 577.329C1099.4 573.23 1104.95 570.928 1110.75 570.928C1116.54 570.928 1122.1 573.23 1126.2 577.329C1130.29 581.427 1132.6 586.985 1132.6 592.781V636.489C1132.59 642.283 1130.28 647.837 1126.19 651.934C1122.09 656.031 1116.54 658.336 1110.75 658.343Z" fill="#0F1924"/>
<path d="M1110.75 882.462C1104.95 882.455 1099.4 880.15 1095.31 876.053C1091.21 871.956 1088.91 866.402 1088.9 860.608V740.295C1088.9 734.499 1091.2 728.941 1095.3 724.842C1099.4 720.744 1104.95 718.441 1110.75 718.441C1116.54 718.441 1122.1 720.744 1126.2 724.842C1130.29 728.941 1132.6 734.499 1132.6 740.295V860.608C1132.59 866.402 1130.28 871.956 1126.19 876.053C1122.09 880.15 1116.54 882.455 1110.75 882.462Z" fill="#0F1924"/>
<path d="M1110.75 1062.64C1104.95 1062.63 1099.4 1060.32 1095.31 1056.23C1091.21 1052.13 1088.91 1046.58 1088.9 1040.78V920.469C1088.9 914.673 1091.2 909.114 1095.3 905.016C1099.4 900.918 1104.95 898.615 1110.75 898.615C1116.54 898.615 1122.1 900.918 1126.2 905.016C1130.29 909.114 1132.6 914.673 1132.6 920.469V1040.78C1132.59 1046.58 1130.28 1052.13 1126.19 1056.23C1122.09 1060.32 1116.54 1062.63 1110.75 1062.64Z" fill="#0F1924"/>
<path d="M2902.33 964.295C2896.53 964.289 2890.98 961.984 2886.88 957.887C2882.79 953.79 2880.48 948.236 2880.48 942.442V648.873C2880.48 643.077 2882.78 637.519 2886.88 633.42C2890.97 629.322 2896.53 627.02 2902.33 627.02C2908.12 627.02 2913.68 629.322 2917.77 633.42C2921.87 637.519 2924.17 643.077 2924.17 648.873V942.442C2924.17 948.236 2921.86 953.79 2917.77 957.887C2913.67 961.984 2908.12 964.289 2902.33 964.295Z" fill="#0F1924"/>
<path d="M2056.2 100.231H1886.87C1883.25 100.231 1879.78 98.7921 1877.22 96.2307C1874.66 93.6692 1873.22 90.1951 1873.22 86.5726C1873.22 82.9501 1874.66 79.4761 1877.22 76.9146C1879.78 74.3531 1883.25 72.9141 1886.87 72.9141H2056.2C2059.82 72.9141 2063.29 74.3531 2065.86 76.9146C2068.42 79.4761 2069.86 82.9501 2069.86 86.5726C2069.86 90.1951 2068.42 93.6692 2065.86 96.2307C2063.29 98.7921 2059.82 100.231 2056.2 100.231Z" fill="#243446"/>
<path d="M2143.6 97.4982C2149.63 97.4982 2154.52 92.6061 2154.52 86.5714C2154.52 80.5366 2149.63 75.6445 2143.6 75.6445C2137.56 75.6445 2132.67 80.5366 2132.67 86.5714C2132.67 92.6061 2137.56 97.4982 2143.6 97.4982Z" fill="#243446"/>
<path d="M1523.61 158.839H1376.13C1368.89 158.839 1361.94 155.961 1356.82 150.838C1351.7 145.715 1348.82 138.767 1348.82 131.522C1348.82 124.277 1351.7 117.329 1356.82 112.206C1361.94 107.083 1368.89 104.205 1376.13 104.205H1523.61C1530.85 104.205 1537.8 107.083 1542.92 112.206C1548.04 117.329 1550.92 124.277 1550.92 131.522C1550.92 138.767 1548.04 145.715 1542.92 150.838C1537.8 155.961 1530.85 158.839 1523.61 158.839Z" fill="#0D0D0D"/>
<path d="M2490.4 156.106C2503.98 156.106 2514.98 145.099 2514.98 131.521C2514.98 117.943 2503.98 106.936 2490.4 106.936C2476.83 106.936 2465.82 117.943 2465.82 131.521C2465.82 145.099 2476.83 156.106 2490.4 156.106Z" fill="#0D0D0D"/>
<path d="M2566.87 156.106C2580.45 156.106 2591.45 145.099 2591.45 131.521C2591.45 117.943 2580.45 106.936 2566.87 106.936C2553.3 106.936 2542.29 117.943 2542.29 131.521C2542.29 145.099 2553.3 156.106 2566.87 156.106Z" fill="#0D0D0D"/>
<path d="M2643.34 156.106C2656.92 156.106 2667.92 145.099 2667.92 131.521C2667.92 117.943 2656.92 106.936 2643.34 106.936C2629.77 106.936 2618.76 117.943 2618.76 131.521C2618.76 145.099 2629.77 156.106 2643.34 156.106Z" fill="#0D0D0D"/>
<path d="M2473.22 540.645H1546.3C1528.34 540.669 1511.13 547.815 1498.43 560.514C1485.73 573.214 1478.59 590.431 1478.57 608.391V1211.06C1478.59 1229.02 1485.73 1246.24 1498.43 1258.94C1511.13 1271.64 1528.34 1278.78 1546.3 1278.81H2473.22C2491.18 1278.79 2508.4 1271.65 2521.09 1258.95C2533.79 1246.25 2540.93 1229.02 2540.95 1211.06V608.391C2540.93 590.428 2533.79 573.206 2521.09 560.504C2508.4 547.803 2491.18 540.66 2473.22 540.645Z" fill="#455A6C"/>
<path d="M2183.03 797.926C2099.26 946.065 2006.83 1089.13 1906.2 1226.37H1760.84C1856.05 1110.35 1951.33 994.33 2046.68 878.312C2074.04 844.906 2103.72 809.91 2144.75 796.336L2183.03 797.926Z" fill="#0F1924"/>
<path d="M1989.85 774.172C1974.69 789.973 1960.17 806.411 1946.49 823.486C1916.38 859.754 1886.69 896.342 1856.9 932.823C1838.34 955.517 1819.79 978.212 1801.45 1000.91C1795.62 997.164 1790.09 992.981 1784.91 988.393C1755.61 962.958 1737.44 927.058 1734.29 888.385C1731.14 849.711 1743.25 811.341 1768.04 781.496C1792.83 751.652 1828.33 732.707 1866.91 728.721C1905.5 724.735 1944.11 736.026 1974.48 760.174C1979.95 764.443 1985.09 769.123 1989.85 774.172Z" fill="#96D9AB"/>
<path d="M2540.95 756.942V778.96L2531.11 775.354L2392.76 724.763C2347.7 708.318 2302.74 689.524 2256.21 677.668C2215.72 666.083 2172.72 666.634 2132.54 679.252C2096.73 692.506 2063.96 712.853 2036.19 739.077C2023.9 750.441 2011.99 762.078 2000.47 774.152C1996.7 778.14 1992.93 782.129 1989.22 786.117C1978.07 798.246 1967.31 810.648 1957.1 823.487C1927 859.764 1897.29 896.369 1867.52 932.81C1848.95 955.538 1830.38 978.211 1812.03 1000.88C1750.74 1075.9 1689.82 1151.06 1629.26 1226.36C1621.11 1226.27 1612.99 1225.24 1605.07 1223.3C1666.84 1146.54 1728.91 1069.98 1791.27 993.618C1792.69 991.87 1794.11 990.121 1795.53 988.373C1802.85 979.249 1810.33 970.07 1817.76 960.947C1848.84 922.866 1879.94 884.823 1911.05 846.816C1933.67 819.171 1956.12 791.416 1980.48 765.192C1981.95 763.498 1983.48 761.859 1985.07 760.166C1987.41 757.652 1989.76 755.194 1992.17 752.626C2045.09 697.937 2111.13 649.586 2190.22 648.275C2236.76 647.564 2281.71 662.316 2324.97 677.887C2371.57 694.769 2417.99 711.924 2464.53 728.97L2540.95 756.942Z" fill="#0F1924"/>
<path d="M2562.74 2609.43H1455.8C1437.84 2609.41 1420.63 2602.27 1407.93 2589.57C1395.23 2576.87 1388.09 2559.65 1388.07 2541.69V2392.47C1388.09 2374.51 1395.23 2357.29 1407.93 2344.59C1420.63 2331.89 1437.84 2324.75 1455.8 2324.73H2562.74C2580.7 2324.75 2597.91 2331.89 2610.61 2344.59C2623.31 2357.29 2630.45 2374.51 2630.47 2392.47V2541.69C2630.45 2559.65 2623.31 2576.87 2610.61 2589.57C2597.91 2602.27 2580.7 2609.41 2562.74 2609.43Z" fill="#455A6C"/>
<path d="M2562.74 1844.55H1455.8C1437.84 1844.53 1420.63 1837.39 1407.93 1824.69C1395.23 1811.99 1388.09 1794.77 1388.07 1776.81V1627.59C1388.09 1609.63 1395.23 1592.41 1407.93 1579.71C1420.63 1567.01 1437.84 1559.87 1455.8 1559.85H2562.74C2580.7 1559.87 2597.91 1567.01 2610.61 1579.71C2623.31 1592.41 2630.45 1609.63 2630.47 1627.59V1776.81C2630.45 1794.77 2623.31 1811.99 2610.61 1824.69C2597.91 1837.39 2580.7 1844.53 2562.74 1844.55Z" fill="#455A6C"/>
<path d="M2562.74 2226.99H1455.8C1437.84 2226.97 1420.63 2219.83 1407.93 2207.13C1395.23 2194.43 1388.09 2177.21 1388.07 2159.25V2010.03C1388.09 1992.07 1395.23 1974.85 1407.93 1962.15C1420.63 1949.45 1437.84 1942.31 1455.8 1942.29H2562.74C2580.7 1942.31 2597.91 1949.45 2610.61 1962.15C2623.31 1974.85 2630.45 1992.07 2630.47 2010.03V2159.25C2630.45 2177.21 2623.31 2194.43 2610.61 2207.13C2597.91 2219.83 2580.7 2226.97 2562.74 2226.99Z" fill="#455A6C"/>
<path d="M2143.75 2441.54H1817.6C1813.73 2441.54 1810.02 2440 1807.29 2437.26C1804.55 2434.53 1803.01 2430.82 1803.01 2426.95C1803.01 2423.07 1804.55 2419.36 1807.29 2416.63C1810.02 2413.89 1813.73 2412.35 1817.6 2412.35H2143.75C2147.62 2412.35 2151.33 2413.89 2154.07 2416.63C2156.81 2419.36 2158.34 2423.07 2158.34 2426.95C2158.34 2430.82 2156.81 2434.53 2154.07 2437.26C2151.33 2440 2147.62 2441.54 2143.75 2441.54Z" fill="#243446"/>
<path d="M2457.44 2521.8H1813.95C1810.08 2521.8 1806.37 2520.27 1803.64 2517.53C1800.9 2514.79 1799.36 2511.08 1799.36 2507.21C1799.36 2503.34 1800.9 2499.63 1803.64 2496.89C1806.37 2494.15 1810.08 2492.62 1813.95 2492.62H2457.44C2461.31 2492.62 2465.02 2494.15 2467.76 2496.89C2470.5 2499.63 2472.03 2503.34 2472.03 2507.21C2472.03 2511.08 2470.5 2514.79 2467.76 2517.53C2465.02 2520.27 2461.31 2521.8 2457.44 2521.8Z" fill="#243446"/>
<path d="M1644.33 2564.93C1698.35 2564.93 1742.15 2521.12 1742.15 2467.08C1742.15 2413.04 1698.35 2369.23 1644.33 2369.23C1590.3 2369.23 1546.5 2413.04 1546.5 2467.08C1546.5 2521.12 1590.3 2564.93 1644.33 2564.93Z" fill="#243446"/>
<path d="M1622.53 2599.25C1612.55 2594.58 1601.14 2593.99 1590.73 2597.61C1580.32 2601.23 1571.74 2608.77 1566.8 2618.63C1565.83 2620.64 1565.03 2622.74 1564.4 2624.89L1417.09 2633.7L1395.26 2710.03L1595.75 2676.15C1604.87 2678.06 1614.37 2676.89 1622.75 2672.83C1631.14 2668.77 1637.95 2662.05 1642.11 2653.72C1644.44 2648.95 1645.8 2643.77 1646.12 2638.48C1646.45 2633.19 1645.73 2627.88 1644 2622.87C1642.28 2617.85 1639.58 2613.23 1636.07 2609.26C1632.56 2605.29 1628.3 2602.04 1623.53 2599.72C1623.2 2599.56 1622.87 2599.4 1622.53 2599.25Z" fill="#FFB6B6"/>
<path d="M1297.38 2222.71C1287.67 2218.74 1277.22 2216.9 1266.74 2217.33C1256.26 2217.76 1246 2220.43 1236.64 2225.18C1227.29 2229.93 1219.07 2236.64 1212.55 2244.85C1206.02 2253.06 1201.33 2262.58 1198.81 2272.77L1158.31 2436.36L1165.93 2722.55C1165.93 2722.55 1377.33 2763.13 1412.81 2737.05C1448.3 2710.97 1444.97 2691.55 1448.3 2710.97C1451.63 2730.38 1466.87 2738.53 1467.08 2730.8C1467.29 2723.08 1469.01 2724.4 1477.86 2722.07C1486.7 2719.75 1525.73 2705.36 1525.73 2705.36L1527.48 2623.76C1527.48 2623.76 1462.95 2599.29 1447.3 2606.59C1431.64 2613.89 1450.63 2626.01 1431.64 2613.89C1412.65 2601.78 1410.58 2563.54 1407.33 2598C1404.09 2632.46 1394.58 2638.88 1380.35 2623.55C1366.11 2608.23 1300.16 2618.02 1300.16 2618.02L1342.13 2299.89C1344.24 2283.88 1340.99 2267.63 1332.9 2253.67C1324.8 2239.71 1312.31 2228.82 1297.38 2222.71Z" fill="#96D9AB"/>
<path d="M2721 3071.42L2723.22 3011.16L2491.89 2973.9L2488.61 3062.84L2721 3071.42Z" fill="#FFB6B6"/>
<path d="M2679 3089.56L2676.81 2993.07L2718.05 2994.59L2784.62 2905.39C2787.91 2900.99 2792.52 2897.75 2797.78 2896.15C2803.04 2894.55 2808.67 2894.67 2813.86 2896.5C2819.04 2898.33 2823.5 2901.77 2826.59 2906.31C2829.69 2910.86 2831.24 2916.27 2831.04 2921.77L2826.81 3036.39L2785.29 3054.64L2825.8 3063.86L2824.21 3107.08L2679 3089.56Z" fill="#0F1924"/>
<path d="M1419.05 3209.61L2151.75 3124.39C2151.75 3124.39 2468.16 3142.67 2542.4 3094.36L2620.68 3084.48L2624.92 2969.46C2624.92 2969.46 2577.05 2969.81 2549.53 2956.98C2522.01 2944.16 2541.14 2928.46 2514.89 2943.89C2488.65 2959.33 2491.42 2961.18 2471.14 2954.09C2450.85 2947 1520.45 2908.96 1520.45 2908.96L1419.05 3209.61Z" fill="#0F1924"/>
<path d="M2384.56 3159.7L2427.17 3117.03L2282.91 2932.35L2220.03 2995.32L2384.56 3159.7Z" fill="#FFB6B6"/>
<path d="M2341.44 3144.44L2405.44 3072.21L2434.64 3101.38L2544.1 3081.28C2549.5 3080.28 2555.08 3081.05 2560.03 3083.45C2564.97 3085.85 2569.01 3089.78 2571.57 3094.64C2574.13 3099.51 2575.06 3105.07 2574.24 3110.5C2573.41 3115.94 2570.87 3120.97 2566.99 3124.86L2485.95 3206.01L2443.1 3191.14L2466.53 3225.46L2435.98 3256.06L2341.44 3144.44Z" fill="#0F1924"/>
<path d="M1129.97 2808.24L1137.26 2977.6C1145.83 3176.98 1365.35 3297.65 1535.57 3193.55C1538.71 3191.63 1541.86 3189.65 1545.02 3187.59C1545.02 3187.59 1609.55 3170.26 1607.59 3142.81C1605.63 3115.36 1621.39 3101.99 1635.34 3109.48C1649.3 3116.97 1831.96 2857.67 1831.96 2857.67C1831.96 2857.67 2211.48 3047.02 2295.2 3091.6L2383.54 3067.53C2383.54 3067.53 2416.79 3083.23 2404.81 3060.52C2392.84 3037.8 2390.69 3048.68 2387.01 3023.93C2383.33 2999.18 2373.92 2968.49 2368.21 2969.78C2362.5 2971.07 1898.7 2646.38 1898.7 2646.38C1898.7 2646.38 1823.14 2569.89 1729.42 2620.39C1727.46 2627.81 1729.13 2628.07 1729.13 2628.07L1419.52 2880.42L1375.77 2797.31L1129.97 2808.24Z" fill="#0F1924"/>
<path d="M1338.07 2185.94L1205.32 2123.71L1165.58 2192.88C1165.58 2192.88 1058.84 2345.24 1057.29 2455.15C1055.74 2565.06 1074.68 2597.75 1074.68 2597.75C1074.68 2597.75 1028.66 2632.16 1051.67 2653.2C1074.68 2674.24 1125.63 2683.31 1086.5 2692.43C1047.37 2701.55 1057.29 2793.88 1100.99 2810.27C1144.68 2826.66 1379.36 2826.52 1379.36 2826.52C1377.25 2819.36 1377.09 2811.77 1378.91 2804.53C1380.72 2797.29 1384.44 2790.67 1389.68 2785.36C1407.87 2767.12 1424.26 2780.2 1407.87 2751.81C1391.49 2723.41 1364.18 2739.8 1386.03 2701.55C1407.87 2663.31 1407.87 2651.88 1407.87 2651.88C1407.87 2651.88 1452.41 2567.1 1385.32 2475.11C1381.23 2469.51 1384.67 2469.29 1384.67 2469.29L1330.49 2287.71L1338.07 2185.94Z" fill="#96D9AB"/>
<path d="M1124.14 1924.28C1125.26 1952.33 1107.59 1992.06 1098.89 2016.02C1089.59 2041.64 1129.91 2075.65 1155.72 2083.09C1157.06 2074.22 1161.49 2066.1 1168.22 2060.16C1166.36 2068.62 1166.2 2077.37 1167.75 2085.89L1385.95 2135.57C1425.2 2090.1 1464.67 2024.74 1456.06 1945.9C1458.12 1930.93 1455.72 1915.68 1449.15 1902.08C1442.58 1888.47 1432.13 1877.11 1419.13 1869.41L1308.82 1804.23C1261.9 1793.55 1202.81 1787.1 1168.92 1816.14C1153.78 1829.61 1141.88 1846.34 1134.13 1865.07C1126.37 1883.8 1122.96 1904.04 1124.14 1924.28Z" fill="#0F1924"/>
<path d="M1319.18 2111.55C1388.56 2111.55 1444.81 2055.29 1444.81 1985.89C1444.81 1916.49 1388.56 1860.23 1319.18 1860.23C1249.8 1860.23 1193.55 1916.49 1193.55 1985.89C1193.55 2055.29 1249.8 2111.55 1319.18 2111.55Z" fill="#FFB6B6"/>
<path d="M1172 1918.76L1165.94 1945.39L1271.93 1969.53C1272.02 1964.14 1273.23 1958.83 1275.47 1953.93C1277.71 1949.04 1280.94 1944.65 1284.96 1941.06C1282.67 1951.51 1282.93 1962.35 1285.72 1972.67C1342.88 2004.75 1394.4 2016.12 1440.59 2007.94C1446.85 2009.36 1453.42 2008.24 1458.85 2004.82C1464.28 2001.4 1468.14 1995.97 1469.56 1989.71C1488.15 1908.04 1439.45 1824.57 1358.21 1804.3C1338.46 1799.37 1317.93 1798.42 1297.81 1801.52C1277.69 1804.63 1258.39 1811.72 1241.05 1822.38C1223.71 1833.04 1208.67 1847.05 1196.81 1863.6C1184.95 1880.15 1176.52 1898.91 1172 1918.76Z" fill="#0F1924"/>
<path d="M1233.97 1743.03C1247.94 1739.99 1262.73 1740.73 1275.37 1731.26L1267.08 1750.28C1290.06 1743.99 1314.55 1746.43 1335.82 1757.15C1342.15 1759.99 1347.55 1764.56 1351.39 1770.33C1353.45 1773.82 1354.71 1777.72 1355.06 1781.76C1355.42 1785.8 1354.86 1789.86 1353.43 1793.65C1352.08 1796.91 1350.05 1799.84 1347.5 1802.27C1344.94 1804.7 1341.91 1806.57 1338.59 1807.76C1332.71 1809.53 1326.54 1810.17 1320.42 1809.66C1294.63 1809.06 1268.84 1808.46 1243.04 1807.86C1233.21 1808.47 1223.39 1806.56 1214.51 1802.31C1209.78 1799.39 1206.01 1795.16 1203.66 1790.13C1201.31 1785.1 1200.48 1779.49 1201.27 1773.99C1203.73 1756.7 1219.99 1746.06 1233.97 1743.03Z" fill="#0F1924"/>
<path d="M1915.45 2727.86C1915.15 2727.51 1914.8 2727.19 1914.42 2726.92C1913.48 2725.83 1912.34 2724.94 1911.06 2724.29L1901.86 2719.36L1840.83 2651.59C1837.3 2649.75 1833.19 2649.36 1829.37 2650.49L1829.21 2650.54L1803.07 2658.63L1780.59 2665.61L1749.18 2675.35L1535.25 2741.6L1394.63 2785.15C1390.82 2786.36 1387.65 2789 1385.78 2792.53C1383.91 2796.05 1383.5 2800.17 1384.63 2803.99C1385.29 2806.1 1386.39 2808.04 1387.84 2809.7L1392.32 2814.68L1401.7 2825.14L1423.45 2870.21L1429.48 2876.95C1431.41 2879.09 1433.9 2880.64 1436.67 2881.42C1439.44 2882.2 1442.38 2882.17 1445.14 2881.34L1908.4 2752.49C1910.81 2751.71 1912.99 2750.35 1914.75 2748.53C1916.51 2746.71 1917.79 2744.49 1918.48 2742.05C1919.18 2739.62 1919.27 2737.05 1918.74 2734.58C1918.21 2732.11 1917.08 2729.8 1915.45 2727.86Z" fill="#0D0D0D"/>
<path d="M1887.95 2057.47L1878.97 2058.93C1876.52 2059.34 1874.32 2060.7 1872.86 2062.72L1868.91 2068.25L1833.25 2157.42C1831.8 2159.46 1831.22 2161.99 1831.63 2164.46L1835.81 2189.87L1820.02 2643.36C1820.42 2645.71 1821.68 2647.82 1823.55 2649.29L1892.78 2741.9L1894.39 2743.19L1897.88 2745.92C1899.67 2747.3 1901.88 2748.01 1904.14 2747.91L1910.02 2747.63C1911.36 2747.57 1912.67 2747.22 1913.86 2746.61C1915.05 2746 1916.1 2745.15 1916.94 2744.11C1917.78 2743.07 1918.39 2741.87 1918.73 2740.58C1919.07 2739.29 1919.13 2737.94 1918.9 2736.62L1898.82 2065.23C1898.41 2062.77 1897.04 2060.56 1895.01 2059.11C1892.98 2057.65 1890.46 2057.06 1887.99 2057.47L1887.95 2057.47Z" fill="#0D0D0D"/>
<path d="M1872.92 2092.71L1841.34 2188.94L1829.12 2573.31L1878.28 2617.02L1872.92 2092.71Z" fill="#96D9AB"/>
<path d="M1628.7 2679.03C1618.71 2674.36 1607.3 2673.77 1596.9 2677.39C1586.49 2681.01 1577.9 2688.55 1572.97 2698.41C1572 2700.42 1571.19 2702.52 1570.57 2704.67L1423.26 2713.48L1401.43 2789.81L1601.92 2755.93C1611.04 2757.84 1620.53 2756.67 1628.92 2752.61C1637.3 2748.55 1644.11 2741.83 1648.28 2733.49C1652.97 2723.87 1653.65 2712.77 1650.17 2702.65C1646.68 2692.52 1639.32 2684.19 1629.7 2679.5C1629.37 2679.34 1629.03 2679.18 1628.7 2679.03Z" fill="#FFB6B6"/>
<path d="M1303.54 2302.49C1293.83 2298.52 1283.38 2296.68 1272.9 2297.11C1262.42 2297.53 1252.16 2300.21 1242.81 2304.96C1233.46 2309.71 1225.24 2316.42 1218.71 2324.63C1212.18 2332.84 1207.5 2342.36 1204.98 2352.55L1164.48 2516.14L1172.09 2802.33C1172.09 2802.33 1383.49 2842.91 1418.98 2816.83C1454.47 2790.74 1451.13 2771.33 1454.47 2790.75C1457.8 2810.16 1473.03 2818.31 1473.24 2810.58C1473.45 2802.86 1475.18 2804.18 1484.02 2801.85C1492.86 2799.53 1531.89 2785.14 1531.89 2785.14L1533.64 2703.54C1533.64 2703.54 1469.12 2679.07 1453.46 2686.37C1437.81 2693.67 1456.79 2705.79 1437.81 2693.67C1418.82 2681.56 1416.74 2643.32 1413.5 2677.78C1410.25 2712.24 1400.75 2718.66 1386.51 2703.33C1372.28 2688.01 1306.32 2697.8 1306.32 2697.8L1348.29 2379.66C1350.4 2363.66 1347.16 2347.41 1339.06 2333.45C1330.96 2319.49 1318.47 2308.6 1303.54 2302.49Z" fill="#96D9AB"/>
<path d="M3447.6 1844.55H2340.66C2322.7 1844.53 2305.49 1837.39 2292.79 1824.69C2280.1 1811.99 2272.95 1794.77 2272.93 1776.81V1627.59C2272.95 1609.63 2280.1 1592.41 2292.79 1579.71C2305.49 1567.01 2322.7 1559.87 2340.66 1559.85H3447.6C3465.56 1559.87 3482.78 1567.01 3495.47 1579.71C3508.17 1592.41 3515.31 1609.63 3515.33 1627.59V1776.81C3515.31 1794.77 3508.17 1811.99 3495.47 1824.69C3482.78 1837.39 3465.56 1844.53 3447.6 1844.55Z" fill="#0D0D0D"/>
<path d="M3028.62 1676.66H2702.47C2698.6 1676.66 2694.88 1675.12 2692.15 1672.39C2689.41 1669.65 2687.88 1665.94 2687.88 1662.07C2687.88 1658.2 2689.41 1654.48 2692.15 1651.75C2694.88 1649.01 2698.6 1647.47 2702.47 1647.47H3028.62C3032.49 1647.47 3036.2 1649.01 3038.93 1651.75C3041.67 1654.48 3043.21 1658.2 3043.21 1662.07C3043.21 1665.94 3041.67 1669.65 3038.93 1672.39C3036.2 1675.12 3032.49 1676.66 3028.62 1676.66Z" fill="#243446"/>
<path d="M3342.31 1756.93H2698.82C2694.95 1756.93 2691.24 1755.39 2688.5 1752.65C2685.76 1749.91 2684.23 1746.2 2684.23 1742.33C2684.23 1738.46 2685.76 1734.75 2688.5 1732.01C2691.24 1729.28 2694.95 1727.74 2698.82 1727.74H3342.31C3346.18 1727.74 3349.89 1729.28 3352.62 1732.01C3355.36 1734.75 3356.9 1738.46 3356.9 1742.33C3356.9 1746.2 3355.36 1749.91 3352.62 1752.65C3349.89 1755.39 3346.18 1756.93 3342.31 1756.93Z" fill="#243446"/>
<path d="M2529.19 1800.05C2583.22 1800.05 2627.01 1756.24 2627.01 1702.2C2627.01 1648.16 2583.22 1604.35 2529.19 1604.35C2475.16 1604.35 2431.37 1648.16 2431.37 1702.2C2431.37 1756.24 2475.16 1800.05 2529.19 1800.05Z" fill="#243446"/>
<path d="M3092.57 2226.99H1985.62C1967.67 2226.97 1950.45 2219.83 1937.76 2207.13C1925.06 2194.43 1917.92 2177.21 1917.9 2159.25V2010.03C1917.92 1992.07 1925.06 1974.85 1937.76 1962.15C1950.45 1949.45 1967.67 1942.31 1985.62 1942.29H3092.57C3110.53 1942.31 3127.74 1949.45 3140.44 1962.15C3153.13 1974.85 3160.27 1992.07 3160.3 2010.03V2159.25C3160.27 2177.21 3153.13 2194.43 3140.44 2207.13C3127.74 2219.83 3110.53 2226.97 3092.57 2226.99Z" fill="#0D0D0D"/>
<path d="M2673.58 2059.1H2347.43C2343.56 2059.1 2339.85 2057.56 2337.11 2054.83C2334.37 2052.09 2332.84 2048.38 2332.84 2044.51C2332.84 2040.64 2334.37 2036.92 2337.11 2034.19C2339.85 2031.45 2343.56 2029.91 2347.43 2029.91H2673.58C2677.45 2029.91 2681.16 2031.45 2683.9 2034.19C2686.63 2036.92 2688.17 2040.64 2688.17 2044.51C2688.17 2048.38 2686.63 2052.09 2683.9 2054.83C2681.16 2057.56 2677.45 2059.1 2673.58 2059.1Z" fill="#243446"/>
<path d="M2987.27 2139.37H2343.78C2339.91 2139.37 2336.2 2137.83 2333.46 2135.09C2330.72 2132.35 2329.19 2128.64 2329.19 2124.77C2329.19 2120.9 2330.72 2117.19 2333.46 2114.45C2336.2 2111.72 2339.91 2110.18 2343.78 2110.18H2987.27C2991.14 2110.18 2994.85 2111.72 2997.58 2114.45C3000.32 2117.19 3001.86 2120.9 3001.86 2124.77C3001.86 2128.64 3000.32 2132.35 2997.58 2135.09C2994.85 2137.83 2991.14 2139.37 2987.27 2139.37Z" fill="#243446"/>
<path d="M2174.15 2182.49C2228.18 2182.49 2271.98 2138.68 2271.98 2084.64C2271.98 2030.6 2228.18 1986.79 2174.15 1986.79C2120.13 1986.79 2076.33 2030.6 2076.33 2084.64C2076.33 2138.68 2120.13 2182.49 2174.15 2182.49Z" fill="#243446"/>
</svg>
