<svg xmlns="http://www.w3.org/2000/svg" viewBox="0 0 750 500"><g id="freepik--background-complete--inject-2"><path d="M67.44,110.39a2.65,2.65,0,0,1,2.79,0c.23.15.47.28.71.41s.49.26.74.37a2.65,2.65,0,0,1,1.55,2.31l.11,3.42,11.16-.34-.1-3.43a2.68,2.68,0,0,1,1.4-2.41,13.84,13.84,0,0,0,1.42-.87,2.66,2.66,0,0,1,2.77-.18l3,1.62,5.28-9.85-3-1.61a2.66,2.66,0,0,1-1.39-2.41,15.26,15.26,0,0,0,0-1.66,2.64,2.64,0,0,1,1.23-2.5L98,91.46,92.08,82l-2.93,1.81a2.63,2.63,0,0,1-2.77,0c-.23-.14-.47-.27-.71-.4L84.93,83a2.63,2.63,0,0,1-1.55-2.31l-.11-3.43-11.16.35L72.22,81a2.68,2.68,0,0,1-1.4,2.41,13.94,13.94,0,0,0-1.42.88,2.66,2.66,0,0,1-2.77.18l-3-1.62-5.28,9.85,3,1.61a2.67,2.67,0,0,1,1.38,2.41c0,.56,0,1.12.05,1.67a2.64,2.64,0,0,1-1.23,2.5l-2.91,1.8,5.89,9.49Zm2.8-17.63A9.15,9.15,0,1,1,74,105.14,9.16,9.16,0,0,1,70.24,92.76Z" style="fill:#ebebeb"></path><path d="M666,264.13a1.87,1.87,0,0,1,.91,1.73c0,.19,0,.38,0,.57s0,.39,0,.58a1.88,1.88,0,0,1-.91,1.73l-2.08,1.2,3.91,6.77,2.08-1.2a1.87,1.87,0,0,1,2,.07,11.12,11.12,0,0,0,1,.59,1.85,1.85,0,0,1,1,1.65v2.39h7.83v-2.39a1.84,1.84,0,0,1,1-1.65c.35-.18.68-.38,1-.59a1.87,1.87,0,0,1,1.95-.07l2.08,1.2,3.91-6.77-2.09-1.21a1.87,1.87,0,0,1-.91-1.72c0-.19,0-.38,0-.58s0-.38,0-.57a1.87,1.87,0,0,1,.91-1.73l2.09-1.2-3.91-6.77-2.08,1.19a1.85,1.85,0,0,1-1.95-.06,9.19,9.19,0,0,0-1-.59,1.85,1.85,0,0,1-1-1.65v-2.4h-7.83v2.4a1.86,1.86,0,0,1-1,1.65,10.38,10.38,0,0,0-1,.59,1.85,1.85,0,0,1-2,.06l-2.07-1.19-3.91,6.77Zm11.8-4.11a6.41,6.41,0,1,1-6.4,6.41A6.42,6.42,0,0,1,677.77,260Z" style="fill:#ebebeb"></path><path d="M205.8,304.07a1.85,1.85,0,0,1,.91,1.73c0,.19,0,.38,0,.57s0,.39,0,.58a1.86,1.86,0,0,1-.9,1.72l-2.09,1.2,3.91,6.78,2.08-1.2a1.87,1.87,0,0,1,2,.07,10,10,0,0,0,1,.58,1.86,1.86,0,0,1,1,1.66v2.39h7.83v-2.39a1.86,1.86,0,0,1,1-1.66,10,10,0,0,0,1-.58,1.85,1.85,0,0,1,1.95-.07l2.08,1.2,3.91-6.78-2.08-1.2a1.85,1.85,0,0,1-.91-1.72c0-.19,0-.39,0-.58s0-.38,0-.57a1.85,1.85,0,0,1,.91-1.73l2.08-1.2-3.91-6.78-2.07,1.2a1.87,1.87,0,0,1-2-.06,10.23,10.23,0,0,0-1-.59,1.85,1.85,0,0,1-1-1.65v-2.4H213.7V295a1.85,1.85,0,0,1-1,1.65,10.23,10.23,0,0,0-1,.59,1.87,1.87,0,0,1-1.95.06l-2.08-1.2-3.91,6.78ZM217.61,300a6.41,6.41,0,1,1-6.4,6.41A6.41,6.41,0,0,1,217.61,300Z" style="fill:#ebebeb"></path><path d="M562.34,88.24a30.47,30.47,0,1,0,30.47-30.47A30.47,30.47,0,0,0,562.34,88.24Zm16.23,0a14.24,14.24,0,1,1,14.24,14.23A14.24,14.24,0,0,1,578.57,88.24Z" style="fill:#ebebeb"></path><polygon points="586.95 59.03 598.67 59.03 598.02 50.74 587.6 50.74 586.95 59.03" style="fill:#ebebeb"></polygon><polygon points="609.25 62.98 617.54 71.27 622.95 64.94 615.58 57.57 609.25 62.98" style="fill:#ebebeb"></polygon><polygon points="622.23 81.54 622.23 93.26 630.53 92.61 630.53 82.19 622.23 81.54" style="fill:#ebebeb"></polygon><polygon points="618.28 103.85 610 112.13 616.32 117.54 623.69 110.17 618.28 103.85" style="fill:#ebebeb"></polygon><polygon points="599.72 116.83 588 116.83 588.65 125.12 599.07 125.12 599.72 116.83" style="fill:#ebebeb"></polygon><polygon points="577.42 112.88 569.13 104.59 563.73 110.92 571.1 118.29 577.42 112.88" style="fill:#ebebeb"></polygon><polygon points="564.44 94.32 564.44 82.6 556.14 83.25 556.14 93.67 564.44 94.32" style="fill:#ebebeb"></polygon><polygon points="568.39 72.01 576.67 63.73 570.35 58.32 562.98 65.69 568.39 72.01" style="fill:#ebebeb"></polygon><path d="M215.51,180.52A30.48,30.48,0,1,0,246,150.05,30.47,30.47,0,0,0,215.51,180.52Zm16.24,0A14.24,14.24,0,1,1,246,194.75,14.23,14.23,0,0,1,231.75,180.52Z" style="fill:#ebebeb"></path><polygon points="240.13 151.31 251.84 151.31 251.2 143.02 240.77 143.02 240.13 151.31" style="fill:#ebebeb"></polygon><polygon points="262.43 155.26 270.71 163.55 276.12 157.23 268.75 149.86 262.43 155.26" style="fill:#ebebeb"></polygon><polygon points="275.41 173.83 275.41 185.54 283.7 184.9 283.7 174.47 275.41 173.83" style="fill:#ebebeb"></polygon><polygon points="271.46 196.13 263.17 204.41 269.5 209.82 276.87 202.45 271.46 196.13" style="fill:#ebebeb"></polygon><polygon points="252.9 209.11 241.18 209.11 241.83 217.4 252.25 217.4 252.9 209.11" style="fill:#ebebeb"></polygon><polygon points="230.59 205.16 222.31 196.88 216.9 203.2 224.27 210.57 230.59 205.16" style="fill:#ebebeb"></polygon><polygon points="217.62 186.6 217.62 174.88 209.32 175.53 209.32 185.95 217.62 186.6" style="fill:#ebebeb"></polygon><polygon points="221.56 164.29 229.85 156.01 223.53 150.6 216.16 157.97 221.56 164.29" style="fill:#ebebeb"></polygon><path d="M652.37,304.22l-13.12.28-6.66.11c-2.23.05-4.47,0-6.7.06h-.44v-.45L625.39,293v-.5h.5l13.24.06c4.42,0,8.83.11,13.24.16h.28V293c0,1.9-.08,3.79-.13,5.66Zm0,0-.14-5.65c-.05-1.86-.11-3.7-.13-5.54l.27.28c-4.41.05-8.82.16-13.24.16l-13.24.06.5-.5,0,11.19-.45-.44c2.18,0,4.36,0,6.55.05L639,304Z" style="fill:#ebebeb"></path><path d="M637.6,318.33l-13.12.28-6.67.11c-2.22,0-4.46,0-6.69.06h-.44v-.45l0-11.19v-.5h.5l13.24.07c4.41,0,8.83.11,13.24.16h.28v.27c0,1.9-.08,3.79-.13,5.66Zm0,0-.14-5.65c-.05-1.86-.11-3.7-.13-5.54l.27.28c-4.41.05-8.83.16-13.24.16l-13.24.06.5-.5,0,11.19-.45-.44c2.18,0,4.36,0,6.55.05l6.57.12Z" style="fill:#ebebeb"></path><path d="M667.14,318.33l-13.12.28-6.66.11c-2.23,0-4.47,0-6.7.06h-.44v-.45l-.06-11.19v-.5h.5l13.24.07c4.42,0,8.83.11,13.24.16h.28v.27c0,1.9-.09,3.79-.13,5.66Zm0,0-.14-5.65c0-1.86-.11-3.7-.13-5.54l.27.28c-4.41.05-8.82.16-13.24.16l-13.24.06.5-.5,0,11.19-.45-.44c2.19,0,4.36,0,6.55.05l6.58.12Z" style="fill:#ebebeb"></path><path d="M354.79,171.07l-13.12.28-6.66.11c-2.23,0-4.47,0-6.7,0h-.44v-.45l-.06-11.19v-.5h.5l13.24.06c4.42,0,8.83.11,13.24.16h.28v.27c0,1.9-.09,3.78-.14,5.65Zm0,0-.14-5.66c0-1.86-.11-3.7-.13-5.53l.27.27c-4.41,0-8.82.16-13.24.16l-13.24.07.5-.5-.05,11.19-.45-.45c2.18,0,4.36,0,6.55.06l6.58.11Z" style="fill:#ebebeb"></path><path d="M340,185.18l-13.12.28-6.67.11c-2.22,0-4.46,0-6.69.05h-.44v-.45L313,174v-.5h.5l13.24.06c4.41,0,8.83.11,13.24.16h.28V174c0,1.9-.08,3.78-.13,5.65Zm0,0-.14-5.66c-.05-1.86-.11-3.7-.13-5.53l.27.27c-4.41.05-8.83.16-13.24.16l-13.24.07.5-.5L314,185.18l-.45-.45c2.18,0,4.36,0,6.55.06l6.57.11Z" style="fill:#ebebeb"></path><path d="M369.56,185.18l-13.12.28-6.66.11c-2.23,0-4.46,0-6.7.05h-.44v-.45L342.58,174v-.5h.5l13.24.06c4.42,0,8.83.11,13.24.16h.28V174c0,1.9-.09,3.78-.13,5.65Zm0,0-.14-5.66c0-1.86-.11-3.7-.13-5.53l.27.27c-4.41.05-8.82.16-13.24.16l-13.24.07.5-.5-.05,11.19-.45-.45c2.19,0,4.36,0,6.55.06l6.58.11Z" style="fill:#ebebeb"></path><path d="M138.88,245.11l-13.12.28-6.67.11c-2.22,0-4.46,0-6.69.05H112v-.45l0-11.19v-.5h.5l13.24.06c4.41,0,8.83.11,13.24.16h.28v.27c0,1.9-.08,3.78-.13,5.65Zm0,0-.14-5.66c-.05-1.86-.11-3.7-.13-5.53l.27.27c-4.41.05-8.83.16-13.24.16l-13.24.07.5-.5-.05,11.19-.45-.45c2.18,0,4.36,0,6.55.06l6.57.11Z" style="fill:#ebebeb"></path><path d="M537.86,171.06l-13.12.28-6.66.11c-2.23.05-4.47,0-6.7.05h-.44v-.45l-.06-11.19v-.5h.5l13.24.06c4.42,0,8.83.12,13.24.17h.28v.27c0,1.9-.08,3.79-.13,5.65Zm0,0-.14-5.65c-.05-1.87-.11-3.71-.13-5.54l.27.27c-4.41.05-8.82.16-13.24.17l-13.24.06.5-.5-.05,11.19-.45-.45c2.18,0,4.36,0,6.55.06l6.58.11Z" style="fill:#ebebeb"></path><path d="M650.84,62.38l-13.12.28-6.67.11c-2.22,0-4.46,0-6.69.06h-.44v-.45l0-11.19v-.5h.5l13.24.06c4.41,0,8.83.12,13.24.17h.28v.27c0,1.9-.08,3.79-.13,5.65Zm0,0-.14-5.65c-.05-1.87-.11-3.71-.13-5.54l.27.27c-4.41,0-8.83.16-13.24.17l-13.24.06.5-.5-.05,11.19-.45-.45c2.18,0,4.36,0,6.55.06l6.57.11Z" style="fill:#ebebeb"></path><path d="M665.61,76.49l-13.12.28-6.66.11c-2.23.05-4.47,0-6.7.05h-.44v-.45l-.06-11.19v-.5h.5l13.24.06c4.42,0,8.83.12,13.24.17h.28v.27c0,1.9-.09,3.79-.14,5.65Zm0,0-.14-5.65c0-1.87-.11-3.71-.13-5.54l.27.27c-4.41.05-8.82.16-13.24.17l-13.24.06.5-.5,0,11.19-.45-.45c2.18,0,4.36,0,6.55.06l6.58.11Z" style="fill:#ebebeb"></path><path d="M109.34,62.39l-13.13.28-6.66.11c-2.22,0-4.46,0-6.69.06h-.45v-.45l0-11.19v-.5h.51l13.24.07c4.41,0,8.82.11,13.24.16h.27v.27c0,1.9-.09,3.79-.13,5.66Zm0,0-.15-5.65c0-1.87-.11-3.71-.13-5.54l.28.27c-4.42.06-8.83.16-13.24.17l-13.24.06.5-.5L83.3,62.39,82.86,62c2.18,0,4.35,0,6.54,0l6.58.11Z" style="fill:#ebebeb"></path></g><g id="freepik--Floor--inject-2"><polygon points="43.61 411.51 126.46 411.27 209.31 411.18 375 411.01 540.69 411.18 623.54 411.27 706.39 411.51 623.54 411.76 540.69 411.84 375 412.01 209.31 411.84 126.46 411.75 43.61 411.51" style="fill:#263238"></polygon></g><g id="freepik--Shadow--inject-2"><ellipse cx="375" cy="448.36" rx="331.39" ry="19.22" style="fill:#ebebeb"></ellipse></g><g id="freepik--Letters--inject-2"><path d="M110.24,109.55h28.51l9.88,34.89,10-34.89h28.51l-18.63,54,8.12,23.58L201,109.55H234.8l-44.28,113.1H164.71l-16.08-40.46L132.7,222.65H106.89L62.61,109.55H96.22l24.53,77.58,7.81-23.58Z" style="fill:#96D9AB"></path><path d="M110.24,109.55h28.51l9.88,34.89,10-34.89h28.51l-18.63,54,8.12,23.58L201,109.55H234.8l-44.28,113.1H164.71l-16.08-40.46L132.7,222.65H106.89L62.61,109.55H96.22l24.53,77.58,7.81-23.58Z" style="opacity:0.11"></path><path d="M101.24,109.55h28.51l9.88,34.89,10-34.89h28.51l-18.63,54,8.12,23.58L192,109.55H225.8l-44.28,113.1H155.71l-16.08-40.46L123.7,222.65H97.89L53.61,109.55H87.22l24.53,77.58,7.81-23.58Z" style="fill:#96D9AB"></path><path d="M394.5,222.65V109.55h51.92a34.47,34.47,0,0,1,15.3,3.43,39.64,39.64,0,0,1,12,8.92,41.55,41.55,0,0,1,7.89,12.58,37.8,37.8,0,0,1,2.86,14.26,40.24,40.24,0,0,1-4.3,18.4,37.4,37.4,0,0,1-11.94,13.93l23.89,41.58h-35l-19.91-34.73H425.56v34.73Zm31.06-61.8h19.59c1.91,0,3.69-1.07,5.34-3.19s2.47-5.1,2.47-8.92-1-6.93-2.87-9-3.82-3.11-5.74-3.11H425.56Z" style="fill:#96D9AB"></path><path d="M394.5,222.65V109.55h51.92a34.47,34.47,0,0,1,15.3,3.43,39.64,39.64,0,0,1,12,8.92,41.55,41.55,0,0,1,7.89,12.58,37.8,37.8,0,0,1,2.86,14.26,40.24,40.24,0,0,1-4.3,18.4,37.4,37.4,0,0,1-11.94,13.93l23.89,41.58h-35l-19.91-34.73H425.56v34.73Zm31.06-61.8h19.59c1.91,0,3.69-1.07,5.34-3.19s2.47-5.1,2.47-8.92-1-6.93-2.87-9-3.82-3.11-5.74-3.11H425.56Z" style="opacity:0.1"></path><path d="M385.5,222.65V109.55h51.92a34.47,34.47,0,0,1,15.3,3.43,39.64,39.64,0,0,1,12,8.92,41.55,41.55,0,0,1,7.89,12.58,37.8,37.8,0,0,1,2.86,14.26,40.24,40.24,0,0,1-4.3,18.4,37.4,37.4,0,0,1-11.94,13.93l23.89,41.58h-35l-19.91-34.73H416.56v34.73Zm31.06-61.8h19.59c1.91,0,3.69-1.07,5.34-3.19s2.47-5.1,2.47-8.92-1-6.93-2.87-9-3.82-3.11-5.74-3.11H416.56Z" style="fill:#96D9AB"></path><circle cx="426.49" cy="118.24" r="3.77" style="fill:#a6a6a6"></circle><circle cx="73.65" cy="118.24" r="3.77" style="fill:#a6a6a6"></circle><circle cx="207.23" cy="118.24" r="3.77" style="fill:#a6a6a6"></circle></g><g id="freepik--Plant--inject-2"><path d="M89.11,308.6a40.6,40.6,0,0,1-.79,15.64,41.84,41.84,0,0,1-2.4,6.91c-1.24,2.87-2.54,5.66-2.23,8.79.3.2-.73.17-.77-.13-8.36-4.77-19.1-5.64-25.54-13.43-3.05-3.69-4.59-8.37-5.32-13-.79-5.09-1-10.73.31-15.75,1.1-4.25,3.58-8.34,7.57-10.42s9.51-2,13.85-.62C83.14,289.46,87.79,299.55,89.11,308.6Z" style="fill:#96D9AB"></path><path d="M93.41,370.54q-1.71-5.7-3.46-11.41c-2.29-7.43-4.68-14.84-7.32-22.17q-2.38-6.57-5-13a79.76,79.76,0,0,1,1-8.09c.7-3.24,1.71-6.38,2.66-9.55.06-.2-.26-.3-.34-.11-1.88,4.37-4.33,10-4.39,15.15Q73.49,314,70,306.93a61.74,61.74,0,0,1,.37-12,.14.14,0,0,0-.28-.05,42.46,42.46,0,0,0-.82,10.58c-1.8-3.55-3.69-7.06-5.71-10.51-.18-.32-.61,0-.45.31,3.14,6.05,6.06,12.24,8.8,18.5a40.45,40.45,0,0,0-13.12-7.6c-.21-.07-.37.23-.16.32a47.63,47.63,0,0,1,14.19,9.4q3,6.87,5.63,13.87c-5.24-5.14-12.4-8.51-19.33-10.32-.24-.07-.3.3-.08.36,8,2.42,14.26,7,20.36,12.43.7,1.88,1.4,3.77,2.08,5.66q3.89,10.75,7.39,21.65,1.68,5.2,3.32,10.44c1.17,3.76,2.08,7.72,3.61,11.34.14.35.76.27.68-.15A107.94,107.94,0,0,0,93.41,370.54Z" style="fill:#263238"></path><path d="M79.53,301.27a20.9,20.9,0,0,0-3,7.51c0,.07.1.11.12,0a66.34,66.34,0,0,1,3.27-7.37C80,301.21,79.67,301.05,79.53,301.27Z" style="fill:#263238"></path><path d="M64.6,318.71a22,22,0,0,0-7.51-2.53c-.07,0-.11.09,0,.12,1.21.5,2.47.85,3.7,1.32s2.42,1,3.66,1.47A.21.21,0,0,0,64.6,318.71Z" style="fill:#263238"></path><path d="M60.39,297.73A15.05,15.05,0,0,0,58,296.24a.13.13,0,0,0-.14.21A14.51,14.51,0,0,0,60.22,298C60.37,298.09,60.54,297.83,60.39,297.73Z" style="fill:#263238"></path><path d="M117.32,337c-6,1.79-12.08,3.44-18.11,5.21-.52.16-10.71-19.37-7-29.42a32.85,32.85,0,0,1,20.49-19.44c4.3-1.47,9.59-2.69,14.14-1.69,4,.89,6.9,4.2,8.21,8,1.79,5.17,1.19,11.33.22,16.61a28.91,28.91,0,0,1-5.93,13.55C126.11,333.65,122,335.63,117.32,337Z" style="fill:#96D9AB"></path><path d="M126.06,318.46a80.18,80.18,0,0,1-11.82,4.66,48.91,48.91,0,0,0-7.88,2.85c2.54-5.67,5.33-11.23,8.3-16.73,3.89-1.13,8-2.89,10.92-5.64a.17.17,0,0,0-.22-.26c-3.21,2.27-6.75,3.64-10.3,5.17q1.2-2.22,2.43-4.44c.23-.41-.33-.82-.61-.42A127.06,127.06,0,0,0,108.32,318a65.07,65.07,0,0,1-.62-13.17.09.09,0,0,0-.18,0,44,44,0,0,0,.15,14.48c-2.11,4.22-4,8.55-5.77,12.92-.69-2.63-1.58-5.22-2.18-7.87a36.22,36.22,0,0,1-.86-11.6c0-.11-.16-.12-.18,0a40.92,40.92,0,0,0,2.53,21.3c-1,2.63-2,5.28-2.85,7.92a158.32,158.32,0,0,0-8,41.82.26.26,0,0,0,.51,0,207.23,207.23,0,0,1,9-41.33c1.74-5.25,3.76-10.35,6-15.36,3.56-1,7.11-2.48,10.61-3.69a33.4,33.4,0,0,0,9.77-4.79A.13.13,0,0,0,126.06,318.46Z" style="fill:#263238"></path><path d="M131.68,312.79c-3.68,1.31-7.18,3.15-10.86,4.48-.17.06-.07.33.1.3,3.9-.81,7.76-2,10.9-4.57C131.94,312.91,131.81,312.75,131.68,312.79Z" style="fill:#263238"></path><path d="M101.58,304.84c0-.2-.24-.31-.3-.11-1,3.4-1.71,7-.72,10.48a.13.13,0,0,0,.26,0C101,311.69,100.8,308.29,101.58,304.84Z" style="fill:#263238"></path><path d="M116.81,297a9,9,0,0,0-1.59,5.78c0,.13.21.2.24.05.45-1.94,1.2-3.72,1.8-5.6A.26.26,0,0,0,116.81,297Z" style="fill:#263238"></path><path d="M45.63,345.63c1.77,5.61,6,13.36,12.62,13.42,4.31,0,8.65-.47,13-.53,4.63-.07,9.26-.06,13.88.22.38,0-.55-13.86-11.67-20.62-3.12-1.89-6.93-2.49-10.46-3.25a48.15,48.15,0,0,0-12.36-1.29c-2.56.1-4.68.64-5.59,3.26S44.78,343,45.63,345.63Z" style="fill:#96D9AB"></path><path d="M50.42,338.61c2.7.7,5.43,1.5,8.14,2.36a28.94,28.94,0,0,0-2.24-2.19c-1.17-1-2.45-1.74-3.7-2.59-.1-.07,0-.27.09-.22a15.28,15.28,0,0,1,6.56,5.22c3.38,1.09,6.73,2.3,9.95,3.62a37.72,37.72,0,0,1,6.37,3.35,25.69,25.69,0,0,0-2.3-4c-1.48-1.91-3.48-3-5.41-4.33a.18.18,0,0,1,.18-.3,15.85,15.85,0,0,1,8.67,9.4A37.34,37.34,0,0,1,83,354.65c7.35,8.36,13.15,19.48,13.17,30.82,0,.27-.43.35-.49.07a62.85,62.85,0,0,0-14-30.14q-.78-.91-1.62-1.77a51.17,51.17,0,0,0-6.07-.45c-2.37,0-4.72.35-7.08.54-3.88.32-8.17.36-11.67-1.59a.16.16,0,0,1,.12-.29c7.81,2.84,16-.76,23.82.93a36.62,36.62,0,0,0-11.54-7.44l-.72-.29c-5,.6-10.3,1.91-15.18.28a.12.12,0,0,1,.07-.23c4.71,1.18,9.23-.3,13.88-.54-5.06-2-10.22-3.54-15.31-5.5C50,338.88,50,338.49,50.42,338.61Z" style="fill:#263238"></path><path d="M48.21,343.55a68.37,68.37,0,0,0,7.29.55s.07.09,0,.1a15,15,0,0,1-7.35-.47A.09.09,0,0,1,48.21,343.55Z" style="fill:#263238"></path><path d="M64.68,338.74a11.91,11.91,0,0,1,3.61,2.51c.12.11-.05.34-.19.23-.61-.44-1.24-.86-1.88-1.27a19.87,19.87,0,0,1-1.75-1.11A.22.22,0,0,1,64.68,338.74Z" style="fill:#263238"></path><path d="M103.94,356.79c-.08.19.19.36.29.16h0a.24.24,0,0,0,.17.12A112.3,112.3,0,0,0,118,359.43c3.67.32,7.91.53,11.13-1.61,4.36-2.89,7.23-10.62,4.87-15.53-2.79-5.83-11.19-2.67-15.41-.6A30.94,30.94,0,0,0,103.94,356.79Z" style="fill:#96D9AB"></path><path d="M100.68,359.49a43.72,43.72,0,0,1,8.11-6.18,27.75,27.75,0,0,1,8.23-8.38c.16-.11.29.14.15.25a37.11,37.11,0,0,0-6.93,7.3,75.28,75.28,0,0,1,10.17-4.63,13.55,13.55,0,0,1,5.47-5.48c.05,0,.1,0,.06.07a22.3,22.3,0,0,0-4.94,5.19c2.07-.78,4.16-1.49,6.24-2.19.19-.06.26.23.08.3-3.71,1.45-7.51,3-11.19,4.75a43.44,43.44,0,0,0,13.56,0,.1.1,0,0,1,.05.19,26.74,26.74,0,0,1-14.39.21,70.88,70.88,0,0,0-6.82,3.82,17.29,17.29,0,0,1,5.52.46,41.56,41.56,0,0,0,9.69,1.09c.12,0,.15.2,0,.22-5.63,1-10.94-1.59-16.51-.92a42.63,42.63,0,0,0-5.81,4.74A43.76,43.76,0,0,0,93,372.2C90.64,377,89.37,382,87.47,387a.18.18,0,0,1-.34-.1C88.75,377.15,93.6,366.42,100.68,359.49Z" style="fill:#263238"></path><path d="M117.64,346.15a6.54,6.54,0,0,1,1.44-1.75,5.59,5.59,0,0,1,1.66-1.24c.05,0,.09.06.05.09-.46.53-1.1.91-1.6,1.41s-.91,1.1-1.42,1.59A.08.08,0,0,1,117.64,346.15Z" style="fill:#263238"></path><path d="M126.91,349.17c.83-.21,1.72-.2,2.56-.37a23.74,23.74,0,0,0,2.49-.74c.11,0,.17.12.08.18a8.3,8.3,0,0,1-5.13,1.19A.14.14,0,0,1,126.91,349.17Z" style="fill:#263238"></path><polygon points="77.51 374.89 78.25 383.27 80.76 411.57 102.92 411.57 106.05 383.27 106.97 374.89 77.51 374.89" style="fill:#37474f"></polygon><polygon points="77.51 374.89 78.25 383.27 106.05 383.27 106.97 374.89 77.51 374.89" style="fill:#263238"></polygon><rect x="75.32" y="372.6" width="33.84" height="6.8" transform="translate(184.48 752) rotate(180)" style="fill:#37474f"></rect></g><g id="freepik--Ladder--inject-2"><polygon points="529.63 434.11 535.24 434.11 580.26 214.32 637.79 214.32 610.69 434.11 616.22 434.11 643.95 209.22 575.7 209.22 529.63 434.11" style="fill:#96D9AB"></polygon><polygon points="529.63 434.11 535.24 434.11 580.26 214.32 637.79 214.32 610.69 434.11 616.22 434.11 643.95 209.22 575.7 209.22 529.63 434.11" style="opacity:0.4"></polygon><rect x="573.03" y="202.66" width="74.57" height="6.56" transform="translate(1220.63 411.89) rotate(180)" style="fill:#96D9AB"></rect><rect x="573.03" y="202.66" width="74.57" height="6.56" transform="translate(1220.63 411.89) rotate(180)" style="opacity:0.2"></rect><polygon points="575.72 209.22 598.4 452.22 603.93 452.22 581.8 215.17 639.35 215.17 679.38 452.22 684.97 452.22 643.95 209.22 575.72 209.22" style="fill:#96D9AB"></polygon><rect x="581.61" y="261.47" width="66.17" height="5.94" style="fill:#96D9AB"></rect><rect x="590.51" y="309.65" width="66.17" height="5.94" style="fill:#96D9AB"></rect><rect x="594.88" y="357.83" width="71.28" height="5.94" style="fill:#96D9AB"></rect><rect x="598.25" y="406.02" width="75.2" height="5.94" style="fill:#96D9AB"></rect><g style="opacity:0.2"><polygon points="575.72 209.22 598.4 452.22 603.93 452.22 581.8 215.17 639.35 215.17 679.38 452.22 684.97 452.22 643.95 209.22 575.72 209.22"></polygon><rect x="581.61" y="261.47" width="66.17" height="5.94"></rect><rect x="590.51" y="309.65" width="66.17" height="5.94"></rect><rect x="594.88" y="357.83" width="71.28" height="5.94"></rect><rect x="598.25" y="406.02" width="75.2" height="5.94"></rect></g></g><g id="freepik--character-3--inject-2"><path d="M545.17,250.15h-10l-40.92-101,17.74-14h10l19.36,38.4,11.36-53.89L574,103.92h10l-13.89,63.73,67.36,36-31.86,16.06h-10l-33.75-24.5L558.2,207l14.7,29.16Z" style="fill:#96D9AB"></path><path d="M535.17,250.15l-50.92-101,27.74-14,19.36,38.4,11.36-53.89L574,103.92l-13.89,63.73,67.36,36-31.86,16.06-43.75-24.5L548.2,207l14.7,29.16Z" style="fill:#96D9AB"></path><path d="M535.17,250.15l-50.92-101,27.74-14,19.36,38.4,11.36-53.89L574,103.92l-13.89,63.73,67.36,36-31.86,16.06-43.75-24.5L548.2,207l14.7,29.16Z" style="fill:#fff;opacity:0.30000000000000004"></path><circle cx="501.86" cy="151.74" r="3.77" style="fill:#a6a6a6"></circle><circle cx="557.25" cy="123.41" r="3.77" style="fill:#a6a6a6"></circle><path d="M554.74,452.66c-2,.65-59.32-.1-61.49-1.51-.83-.52-1.21-8.88-1.37-19v-.32c0-2.08-.06-4.23-.07-6.41,0-.29,0-.59,0-.89-.08-14.6.15-29.74.15-29.74l38.35.39-1.16,29.45,0,1.17-.23,6.1,0,.62s21.82,10.1,24,11.91S556.75,452,554.74,452.66Z" style="fill:#f7a9a0"></path><path d="M537.52,436.45c-.15,0-.23-.08-.24-.13Z" style="fill:#96D9AB"></path><path d="M554.74,452.66c-2,.64-59.32-.09-61.49-1.51-.74-.47-1.12-7.12-1.31-15.7,10.5,2.2,51.2,10.43,52.31,6.95.44-1.37-3-3.74-5.24-5.07,6,2.87,12.68,6.15,13.85,7.11C555.05,446.24,556.76,452,554.74,452.66Z" style="fill:#263238"></path><path d="M480.18,229.7s8.61,96.85,10,104.24c.32,1.69.53,10.84.66,22.61.3,25.67.12,72,.12,72h40.4s-1.2-80.22-3-95S515.16,229.7,515.16,229.7Z" style="fill:#263238"></path><path d="M529.54,421.48c-6.3-.13-4.49-.18-10.79-.24-3.09,0-23.37-.21-26.25.27-.06,0-.06.12,0,.13,2.88.48,23.16.3,26.25.27,6.3-.06,4.49-.11,10.79-.24A.1.1,0,0,0,529.54,421.48Z" style="fill:#37474f"></path><path d="M498.64,375.62q-.06-8.79-.13-17.58c0-5.67,0-11.35-.3-17-.55-11.48-2.88-22.76-4.53-34.12s-3-22.75-4.29-34.16c-1.41-12.8-2.65-25.62-4-38.43,0-.08-.15-.08-.14,0,1.9,22.87,4,45.73,7.19,68.47q1.18,8.48,2.59,16.93c.94,5.7,1.88,11.4,2.33,17.17s.51,11.31.57,17q.09,8.77.17,17.56c.13,13,.25,33,.38,46a.2.2,0,0,0,.39,0C498.82,405.84,498.73,387.22,498.64,375.62Z" style="fill:#37474f"></path><path d="M471.66,229.7s17.13,96.85,18.53,104.24c.32,1.69.53,10.84.66,22.61v0L510.11,229.7Z" style="fill:#37474f"></path><path d="M459.2,455.92c-2.09-.33-52.89-26.88-54.18-29.12-.5-.84,2.93-8.47,7.35-17.57l.14-.28c.91-1.88,19.05-32.47,19.05-32.47l31.24,18.35-17.32,30.88-.31.55s14.9,18.86,16.06,21.47S461.28,456.25,459.2,455.92Z" style="fill:#f7a9a0"></path><path d="M459.2,455.92c-2.09-.33-52.89-26.88-54.18-29.12-.43-.72,2-6.4,5.49-13.7,7.28,5.52,42.43,31.92,45,29.17.54-.58.14-1.95-.58-3.42a95.41,95.41,0,0,1,6.31,8.88C462.38,450.33,461.28,456.25,459.2,455.92Z" style="fill:#263238"></path><path d="M450,424.58,413,401.7s42.83-61.28,43-66.72c.3-8.1,4.18-41.5,7.44-68.55,0,0-6.18-14.64,5.39-36.76H515.2s-3.11,21.05-8.44,34.4a61.48,61.48,0,0,0-10.31,4.7s-4.62,60.3-4.79,67.83C491.32,351.46,450,424.58,450,424.58Z" style="fill:#263238"></path><path d="M452.23,416c-5.34-3.35-3.76-2.47-9.14-5.76-2.63-1.61-19.94-12.17-22.65-13.24-.06,0-.12.07-.07.11,2.23,1.89,19.72,12.15,22.38,13.71,5.44,3.18,3.91,2.21,9.39,5.33C452.24,416.25,452.34,416.1,452.23,416Z" style="fill:#37474f"></path><path d="M508.52,263.15a76.92,76.92,0,0,0-12.07,5.62c-.15.09-.05.32.11.25,4.07-1.74,8.22-3.42,12.18-5.38A.27.27,0,0,0,508.52,263.15Z" style="fill:#37474f"></path><path d="M502.84,256.43c.4-2.42.73-4.85.93-7.3a66.74,66.74,0,0,0-.14-13.7.12.12,0,0,0-.24,0,125.69,125.69,0,0,1-1.1,18.9c-.46,3-2,7.55,1.17,8s5.29-7.12,5.68-9.2a69.36,69.36,0,0,0,.68-17.92c0-.14-.26-.17-.26,0a135.56,135.56,0,0,1-.68,13.59c-.19,2.1-1.88,13.67-5.51,12.83-.61-.14-.92-.74-1-1.66a14.44,14.44,0,0,1,.48-3.55" style="fill:#37474f"></path><path d="M503.47,262a20.57,20.57,0,0,0-.82,2.4,5.6,5.6,0,0,0-.34,2,.14.14,0,0,0,.25.06,6.9,6.9,0,0,0,.85-1.92c.27-.74.57-1.48.82-2.23A.41.41,0,0,0,503.47,262Z" style="fill:#37474f"></path><path d="M474.26,232.59a42.41,42.41,0,0,0-3.48,7.64,46.57,46.57,0,0,0-2.06,8.13c-.27,1.37-.36,2.77-.51,4.16s-.17,2.79-.09,4.18a44.36,44.36,0,0,0,1,8.29v.09q-1.61,17.55-3.33,35.09t-3.46,35.07l-.11,1.09-.06.55a1.77,1.77,0,0,1-.11.59,20.34,20.34,0,0,1-1.07,2q-1.11,1.9-2.27,3.78c-1.54,2.5-3.11,5-4.68,7.47-3.14,5-6.36,9.88-9.56,14.8-6.39,9.85-12.9,19.62-19.43,29.39L444,365.23l9.4-14.89c1.56-2.48,3.12-5,4.65-7.47.76-1.26,1.52-2.51,2.25-3.78a18.83,18.83,0,0,0,1-1.86,1.41,1.41,0,0,0,.09-.48l.05-.54.11-1.1q1.66-17.53,3.46-35.05t3.58-35v.09a44.15,44.15,0,0,1-.89-8.41c-.06-1.41.08-2.82.15-4.23s.3-2.8.59-4.18a47.4,47.4,0,0,1,2.24-8.12A42.36,42.36,0,0,1,474.26,232.59Z" style="fill:#37474f"></path><path d="M491.65,144.34c-1,.27-5.78.27-8.39,4.87-2.47,4.36-2.06,16.67-2.38,19.4s-3.75,3.54-4.21,6.72c-.4,2.73,1.65,3.48,2.08,5.4.33,1.49-.93,3.94.71,6,1.49,1.88,3.65,1.19,5.05,1.67s2.6,3.46,5.16,4,4.47-2,5.78-2.1,3.33,3.69,7.55,2.84,5-4.61,6.7-5.52,6.24-.22,8-2.65,1.76-5.42,2.54-6.6,2.7-1.24,3.54-3.88-1.68-3.94-2.26-6.08c-.4-1.48.78-3-.44-5.23-1.67-3-5.48-1.88-7.34-5-1.47-2.42-5.18-13.26-12.22-15.2C496.66,141.67,491.65,144.34,491.65,144.34Z" style="fill:#263238"></path><path d="M480.93,168a3.74,3.74,0,0,1-1,1.57l-1.24,1.36a11.4,11.4,0,0,0-2.15,2.88,3.73,3.73,0,0,0,0,3.29,6,6,0,0,0,1.07,1.37,6.24,6.24,0,0,1,1.24,1.5,3.2,3.2,0,0,1,.07,2c-.13.62-.29,1.2-.39,1.79a4.4,4.4,0,0,0,.51,3.33,2.51,2.51,0,0,0,1.3,1,4.78,4.78,0,0,0,1.74.17c.61,0,1.22-.12,1.83-.18a3.05,3.05,0,0,1,1.82.19,3.3,3.3,0,0,0-1.79,0c-.6.11-1.2.26-1.82.34a4.94,4.94,0,0,1-1.91-.09,2.9,2.9,0,0,1-1.61-1.12,4.75,4.75,0,0,1-.7-3.74c.1-.62.24-1.23.36-1.82a2.58,2.58,0,0,0,0-1.59c-.48-.93-1.68-1.67-2.25-2.89a4.13,4.13,0,0,1,.12-3.81,12,12,0,0,1,2.39-2.88l1.36-1.25A4.08,4.08,0,0,0,480.93,168Z" style="fill:#263238"></path><path d="M508.47,148.56a52.4,52.4,0,0,1,3.5,5.6c.58.93,1.12,1.89,1.75,2.76a7.47,7.47,0,0,0,1,1.19,1.08,1.08,0,0,0,.28.21,2.2,2.2,0,0,0,.31.16l.76.25a31.65,31.65,0,0,1,3.17,1,5.62,5.62,0,0,1,2.68,2.12,3.51,3.51,0,0,1,.54,1.67,4.44,4.44,0,0,1-.31,1.68,7.21,7.21,0,0,0-.66,3.18,6.79,6.79,0,0,1,.33-3.28,4.17,4.17,0,0,0,.2-1.55,3,3,0,0,0-.55-1.4,5.5,5.5,0,0,0-2.48-1.83,29.84,29.84,0,0,0-3.12-1c-.27-.09-.54-.18-.81-.29a2.46,2.46,0,0,1-.79-.5,8,8,0,0,1-1.1-1.32,27.74,27.74,0,0,1-1.7-2.87L510,151.47A27,27,0,0,0,508.47,148.56Z" style="fill:#263238"></path><path d="M521.2,177.51a5.87,5.87,0,0,0-.45,2.28c-.07.78-.15,1.57-.26,2.36a12.14,12.14,0,0,1-.55,2.35,5.2,5.2,0,0,1-1.34,2.12,6.57,6.57,0,0,1-4.72,1.13c-.8-.05-1.58-.15-2.36-.18a4.83,4.83,0,0,0-2.29.27,4.57,4.57,0,0,1,2.29-.62c.8,0,1.59,0,2.37,0a6.69,6.69,0,0,0,4.25-1.12,4.65,4.65,0,0,0,1.17-1.82,13.53,13.53,0,0,0,.65-2.22c.18-.76.31-1.53.45-2.31.09-.38.17-.77.28-1.16A2.27,2.27,0,0,1,521.2,177.51Z" style="fill:#263238"></path><path d="M514.32,221.2l1.41,10.94-47.41-1.5s2.39-34.94,16.05-48.11c6.84-6.59,14.34-5.62,18.86-.46,1.14,1.3,14.58,18.86,15.67,26.28C519.85,214.89,514.32,221.2,514.32,221.2Z" style="fill:#455a64"></path><path d="M507.1,217.51a43.54,43.54,0,0,0-6.78,1.1c-1.1.29-2.19.64-3.28,1-.54.19-1.08.35-1.63.52a6.94,6.94,0,0,1-1.75.33c-.05,0-.05.08,0,.09a11.78,11.78,0,0,0,1.68,0,11,11,0,0,0,1.6-.31c1.13-.28,2.24-.62,3.36-.92,2.26-.6,4.53-1.19,6.82-1.61C507.23,217.7,507.21,217.5,507.1,217.51Z" style="fill:#263238"></path><path d="M512.67,219.86a44.28,44.28,0,0,0-5.63-.41c-1,0-1.88.05-2.82.13l-1.35.14c-.49.06-1,.19-1.47.25,0,0,0,.09,0,.09.47,0,.94,0,1.41,0h1.4c.94,0,1.88,0,2.82,0,1.89,0,3.76,0,5.64,0C512.77,220,512.77,219.87,512.67,219.86Z" style="fill:#263238"></path><path d="M489.13,230.79a5.13,5.13,0,0,0,.32.52l.79,0A4.24,4.24,0,0,0,489.13,230.79Zm13.45-48.37a5.71,5.71,0,0,0-1.8-1.06,5.91,5.91,0,0,0,3.13,2.67A5.51,5.51,0,0,0,502.58,182.42Zm-29,27.22a5.52,5.52,0,0,0-1.07,1.8,5.4,5.4,0,0,0,1.62-1.32,5.66,5.66,0,0,0,1.06-1.82A5.41,5.41,0,0,0,473.6,209.64Zm10.32-24.94a5.73,5.73,0,0,0-1.05,1.81,6.08,6.08,0,0,0,2.68-3.14A6.12,6.12,0,0,0,483.92,184.7Zm15.26,22.14a5.82,5.82,0,0,0-1.07,1.81,6.12,6.12,0,0,0,1.63-1.33,5.62,5.62,0,0,0,1.05-1.81A5.81,5.81,0,0,0,499.18,206.84Zm-11.91,7.84a5.64,5.64,0,0,0-2,.52,5.48,5.48,0,0,0,2.08.2,5.26,5.26,0,0,0,2-.52A5.47,5.47,0,0,0,487.27,214.68Zm28-5.54a5.51,5.51,0,0,0-2,.53,5.71,5.71,0,0,0,2.08.2,5.49,5.49,0,0,0,2-.52A5.7,5.7,0,0,0,515.29,209.14ZM497.67,192a5.53,5.53,0,0,0-2,.54,6.11,6.11,0,0,0,4.1-.33A6,6,0,0,0,497.67,192Zm8.2,31.24a5.44,5.44,0,0,0-.52-2,6.17,6.17,0,0,0-.21,2.08,6,6,0,0,0,.54,2A5.72,5.72,0,0,0,505.87,223.22Zm-30.23,1.57a6,6,0,0,0-.53-2,5.33,5.33,0,0,0-.19,2.08,5.47,5.47,0,0,0,.51,2A5.72,5.72,0,0,0,475.64,224.79Zm36.77-28.55c0-.17,0-.34-.07-.51v0c-.17-.44-.34-.88-.5-1.31a6.17,6.17,0,0,0-.16,1.9,5.71,5.71,0,0,0,.53,2A6,6,0,0,0,512.41,196.24Zm-26.63,4.17a5.19,5.19,0,0,0-.53-2,5.74,5.74,0,0,0-.19,2.09,5.8,5.8,0,0,0,.52,2A5.77,5.77,0,0,0,485.78,200.41Z" style="fill:#fff"></path><path d="M492.34,181.8c.25.92,4.89,6.85,9.15,6.52,1.39-.11,1.13-7.71,1.13-7.71l.11-.57,1.52-7.92-9.42-5.64-1.36-.75s-.27,2.2-.58,4.93c0,.13,0,.26-.05.39s0,.3-.06.45c0,.4-.1.82-.14,1.24s-.07.62-.09,1l-.09,1A54.41,54.41,0,0,0,492.34,181.8Z" style="fill:#f7a9a0"></path><path d="M504.25,172.12l-1.46,7.61a17.28,17.28,0,0,1-10-8.3l.09-.77c.32-2.73.59-4.92.59-4.92l1.36.73Z" style="fill:#263238"></path><path d="M513.23,157.48c4,13.58-3.72,17.49-6.65,18.34-2.66.78-11.82,3.07-17.17-10s-.29-19.23,5.7-21.32S509.26,143.9,513.23,157.48Z" style="fill:#f7a9a0"></path><path d="M510.6,156a8.06,8.06,0,0,1-1,0,1.56,1.56,0,0,1-1-.16.5.5,0,0,1-.14-.6,1.27,1.27,0,0,1,1.13-.57,1.85,1.85,0,0,1,1.27.37A.54.54,0,0,1,510.6,156Z" style="fill:#263238"></path><path d="M501.25,158.14a9.06,9.06,0,0,0,.89-.42,1.54,1.54,0,0,0,.82-.59.5.5,0,0,0-.14-.6,1.24,1.24,0,0,0-1.26,0,1.86,1.86,0,0,0-1,.89A.54.54,0,0,0,501.25,158.14Z" style="fill:#263238"></path><path d="M503.82,160.15s-.06.06-.05.1c.27.92.42,2-.34,2.55,0,0,0,.07,0,0C504.44,162.44,504.22,161,503.82,160.15Z" style="fill:#263238"></path><path d="M502.74,159.39c-1.53.27-.88,3.31.54,3.06S504,159.16,502.74,159.39Z" style="fill:#263238"></path><path d="M502.17,159.68c-.22.23-.42.59-.73.69s-.71-.14-1-.4c0,0-.05,0-.05.05.12.58.48,1.13,1.12,1.08s.88-.64.9-1.26C502.39,159.72,502.27,159.58,502.17,159.68Z" style="fill:#263238"></path><path d="M509.07,158.88s.08,0,.09.07c.19.94.56,2,1.48,2.11,0,0,0,.05,0,.06C509.57,161.21,509.09,159.81,509.07,158.88Z" style="fill:#263238"></path><path d="M509.68,157.71c1.49-.46,2.3,2.54.93,3S508.44,158.1,509.68,157.71Z" style="fill:#263238"></path><path d="M510.36,157.74c.28.09.6.32.88.26s.49-.46.62-.83c0,0,0,0,.05,0,.18.57.15,1.22-.37,1.48s-1-.15-1.27-.69C510.21,157.88,510.25,157.7,510.36,157.74Z" style="fill:#263238"></path><path d="M506.19,167.73a1.5,1.5,0,0,0,.94.31,2.47,2.47,0,0,0,.93-.53s.06,0,.05,0a1.28,1.28,0,0,1-1,.85,1,1,0,0,1-1-.6A.05.05,0,0,1,506.19,167.73Z" style="fill:#263238"></path><path d="M505.17,165.33a3.25,3.25,0,0,0,2.47.73,4,4,0,0,0,1.12-.29,1.21,1.21,0,0,0,.2-.09l.19-.09a.24.24,0,0,0,.12-.26h0l0-.09h0l0-.08c-.19-.7-.59-1.73-.59-1.73.3.05,1.77.23,1.63-.13a48.23,48.23,0,0,0-4.05-8.91.09.09,0,0,0-.16.08c1,2.87,2.4,5.55,3.4,8.42a5.54,5.54,0,0,0-1.58,0c-.09.05.79,2,.86,2.3v0a4.51,4.51,0,0,1-3.48,0C505.15,165.19,505.1,165.27,505.17,165.33Z" style="fill:#263238"></path><path d="M490.46,167.36c2.32-.55,1.33-5.45,1.33-5.45s4.6-1.44,4-8.52a10.72,10.72,0,0,1-.3,6.1s7.82-3.42,9.08-11.28c0,0-.27,3.89-1.15,5.52a10,10,0,0,0,3.87-5.31s2.66,3.46,4.09,4.2c0,0-3.34-19.22-19.51-7.52,0,0-7.45,2.32-8.34,9.76S490.46,167.36,490.46,167.36Z" style="fill:#263238"></path><path d="M491.88,166.21s-3.9-3.73-5.65-2.25,1.79,7.29,4.27,7.69a2.39,2.39,0,0,0,2.89-1.89Z" style="fill:#f7a9a0"></path><path d="M487.29,165.6a0,0,0,1,0,0,.06,6.07,6.07,0,0,1,3.81,3.1,1.33,1.33,0,0,0-2,0s0,.1.06.08a1.49,1.49,0,0,1,1.69.19,7.34,7.34,0,0,1,1,1.13c.1.13.35,0,.26-.16l0,0C491.72,167.93,489.54,165.36,487.29,165.6Z" style="fill:#263238"></path><path d="M492,170.7a.69.69,0,0,1-.54.82.69.69,0,1,1-.28-1.36A.69.69,0,0,1,492,170.7Z" style="fill:#fff"></path><path d="M480.83,195.73c1,7.47,8.16,36.07,14.5,43.2,4.13,4.64,31,11.72,38.67,13,3.21.53,10.21-22.15,6.74-22.2-2.56,0-30.41-7.69-32.83-8.64,0,0-10.18-16.45-16.68-27.23C485.09,183.64,479,181.78,480.83,195.73Z" style="fill:#f7a9a0"></path><path d="M550,233.57c-1.34-.76-.95-1.47,1.76-1.88s13.77.27,13.68-3.61-15.71-4.61-20.17-3.58a71.75,71.75,0,0,0-11.3,4.25C537,229.5,544.14,232,550,233.57Z" style="fill:#f7a9a0"></path><path d="M530.93,251.4c8.56,1.8,19.11,4.57,28.47,1.43a4.93,4.93,0,0,0,2.58-1.89c4.22-1.33,4.86-3.73,4.86-3.73,3.55-2.44,3.86-5,3.86-5s4.94-1.62,4.45-4.77c-.53-3.53-7.36-.56-12.11-1.23-10.89-1.52-25.94-6.73-29-7.48Z" style="fill:#f7a9a0"></path><path d="M550.51,242.66a71.84,71.84,0,0,0,9.6.79,71.07,71.07,0,0,0,10.49-1.29.09.09,0,0,1,0,.17,37.38,37.38,0,0,1-20.15.47C550.33,242.76,550.34,242.64,550.51,242.66Z" style="fill:#263238"></path><path d="M548.63,249.1c3.15.2,8.68.51,18.18-2,0,0,.05,0,0,.06a33.68,33.68,0,0,1-18.21,2.08C548.43,249.22,548.42,249.08,548.63,249.1Z" style="fill:#263238"></path><path d="M547.69,252.58A52.88,52.88,0,0,0,562,250.92s.06.05,0,.06c-6.11,2-8.55,2.06-14.31,1.78C547.46,252.75,547.48,252.57,547.69,252.58Z" style="fill:#263238"></path><path d="M501.32,207.27l-16.65,13.79s-4.93-23.25-4.46-30.5c.54-8.15,4.59-6.09,9.76-.29S501.32,207.27,501.32,207.27Z" style="fill:#455a64"></path><path d="M485.78,200.41a5.19,5.19,0,0,0-.53-2,5.74,5.74,0,0,0-.19,2.09,5.8,5.8,0,0,0,.52,2A5.77,5.77,0,0,0,485.78,200.41Zm1.49,14.27a5.64,5.64,0,0,0-2,.52,5.48,5.48,0,0,0,2.08.2,5.26,5.26,0,0,0,2-.52A5.47,5.47,0,0,0,487.27,214.68Zm13.17-9a6.16,6.16,0,0,0-1.26,1.12,5.82,5.82,0,0,0-1.07,1.81,6.12,6.12,0,0,0,1.63-1.33,6.51,6.51,0,0,0,.86-1.32h0Zm-16.9-20.5a4.39,4.39,0,0,0-.67,1.29,5.28,5.28,0,0,0,1.37-1.08A2.91,2.91,0,0,0,483.54,185.22Z" style="fill:#fff"></path><path d="M484.57,216.16c.5-.56,5.62-4.94,6.75-5.87s5.73-4.76,7-5.62a.05.05,0,0,1,.07.08c-1.06,1.07-5.68,4.95-6.82,5.92s-6.29,5.19-6.92,5.57C484.57,216.28,484.53,216.2,484.57,216.16Z" style="fill:#263238"></path><path d="M500,208.35c.47-.45,1.23-1.12,1.23-1.12C500,205,493,194.4,491.36,191.81c0,0,0-.08.06,0,1,1.41,2,2.82,3.05,4.23-.09-.2-.19-.4-.28-.59-.34-.71-.66-1.42-1-2.12a.05.05,0,0,1,.09-.06,18.25,18.25,0,0,1,1.16,2.07c.24.5.44,1,.63,1.54.57.81,1.15,1.62,1.7,2.46,1.69,2.55,3.54,5.14,5,7.81a11.9,11.9,0,0,1-1.72,1.37A.08.08,0,0,1,500,208.35Z" style="fill:#263238"></path><path d="M486.28,219.72c-.49.5-1,1-1.5,1.46l-.18.17-.08-.25a67,67,0,0,1-2-8.34c-.25-1.41-.47-2.82-.62-4.25s-.29-2.84-.34-4.27c.32,1.39.59,2.79.86,4.19l.82,4.19,1.6,8.39-.26-.08C485.14,220.53,485.7,220.11,486.28,219.72Z" style="fill:#263238"></path><path d="M482.33,209.58a3.57,3.57,0,0,1-1-1.46,3.94,3.94,0,0,1-.23-.85,2.93,2.93,0,0,1-.05-.89,10.59,10.59,0,0,1,.75,1.56A15.74,15.74,0,0,1,482.33,209.58Z" style="fill:#263238"></path><path d="M502.69,180.41,500.58,187l-8.49-7.51L490,182.21s8.67,12.27,8.67,11.69l2.24-5.68,4.07,3.55-1-9.58Z" style="fill:#455a64"></path><path d="M504.78,187c-.22-1.58-.39-3.17-.68-4.74,0-.05-.1-.07-.11,0-.21,1.55.65,7.57.75,9h0c-.17-.16-3.76-3.12-3.79-3.06-.5.91-2.15,5.05-2.26,5.42-1.37-1.95-7.14-9.61-8.73-11.43,0-.05-.13,0-.09.06,1.24,2.08,8.71,12.19,8.81,12.16a64.41,64.41,0,0,0,2.33-6,41.93,41.93,0,0,0,4.26,3.79A50.47,50.47,0,0,0,504.78,187Z" style="fill:#263238"></path></g><g id="freepik--character-4--inject-2"><path d="M683.89,290.57s20.21,38.05,20.21,38.08c1.18,7.19,2.09,13.52,2.25,16.83a.11.11,0,0,1,0,0,5.17,5.17,0,0,1-.17,2.31.1.1,0,0,1,0,.05c-1.9,1.81-59.08,12.91-61.21,12.62s-1.48-6.36.4-8.56,21.87-16.24,21.87-16.24l-19.84-38.1Z" style="fill:#dd6a57"></path><path d="M700.34,321.06s3.76,7.56,3.76,7.59c1.18,7.19,2.09,13.52,2.25,16.83a.11.11,0,0,1,0,0,9.74,9.74,0,0,1-.17,2.31.1.1,0,0,1,0,.05c-1.9,1.81-59.08,12.91-61.21,12.62s-1.48-6.36.4-8.56,21.87-16.24,21.87-16.24l-3.89-7.7Z" style="fill:#fff"></path><path d="M663.7,336.32c3.72-1.27,8.48-1.37,11.8.93.13.09,0,.27-.13.25a54.16,54.16,0,0,0-11.59-.7A.25.25,0,0,1,663.7,336.32Z" style="fill:#263238"></path><path d="M661.18,338.38c3.72-1.27,8.48-1.36,11.8.94.13.08,0,.27-.13.24a54.07,54.07,0,0,0-11.58-.7A.25.25,0,0,1,661.18,338.38Z" style="fill:#263238"></path><path d="M658.66,340.45c3.72-1.27,8.49-1.37,11.8.93.13.09,0,.27-.13.25a54.07,54.07,0,0,0-11.58-.7A.25.25,0,0,1,658.66,340.45Z" style="fill:#263238"></path><path d="M644.94,360.52c2.13.28,59.31-10.82,61.22-12.63.73-.67-.4-9.1-2.06-19.24a3.06,3.06,0,0,1-.05-.32l-37,6.76.13.62s-20,14-21.87,16.24S642.82,360.24,644.94,360.52Z" style="fill:#37474f"></path><path d="M704.05,328.33l.06.33c1.65,10.13,2.79,18.56,2,19.23-.87.82-13.2,3.57-26.57,6.31-16,3.26-33.49,6.48-34.65,6.32-2.12-.28-1.47-6.37.4-8.57s21.87-16.24,21.87-16.24l-.13-.62,12.32-2.25Z" style="fill:#96D9AB"></path><path d="M645.16,358.17c9.59-2.1,48.48-9.7,58.13-11.06.07,0,.08,0,0,.06-9.47,2.3-48.42,9.58-58.11,11.16C645,358.36,645,358.22,645.16,358.17Z" style="fill:#263238"></path><path d="M679.4,332.84c.14,6.35.29,15.73.19,21.36-16,3.26-33.49,6.48-34.65,6.32-2.12-.28-1.47-6.37.4-8.57s21.87-16.24,21.87-16.24l-.13-.62Z" style="opacity:0.1"></path><path d="M698.88,315.69l-42.36,4.9s-44.95-69.09-40.43-93c2.49-13.14,47.16-33.77,47.16-33.77l4.52-9.08h31.51s10.84,18.93,1.62,36.72c-6.27,12.08-38.7,21.3-40,25.19C659.26,251.8,698.88,315.69,698.88,315.69Z" style="fill:#37474f"></path><path d="M693.39,310.14a29.22,29.22,0,0,0-3.37.14c-1.24.06-2.49.12-3.73.21-2.4.19-4.78.43-7.16.71-4.81.56-9.61,1.18-14.39,1.9-2.72.42-5.44.86-8.15,1.34a.09.09,0,0,0,0,.17c4.79-.4,9.56-.9,14.33-1.38s9.55-1,14.3-1.63c1.36-.19,2.72-.36,4.08-.6s2.76-.34,4.07-.69C693.47,310.28,693.48,310.15,693.39,310.14Z" style="fill:#263238"></path><path d="M660.16,309.5c-3.74-5.73-23.88-42.11-26.89-48.24-1.51-3.06-3-6.15-4.28-9.29a83.67,83.67,0,0,1-3.48-9.57c-.9-3.24-1.73-6.64-1-9.85a14,14,0,0,1,1.91-4.55,22.23,22.23,0,0,1,1.44-2.05c.54-.64,1.08-1.29,1.67-1.89,4.72-4.85,10.62-8.44,16.54-11.77s12.19-6.15,18.39-9c1.54-.74,3.08-1.48,4.61-2.26.76-.39,1.52-.8,2.26-1.24a5,5,0,0,0,1.93-1.74,24.17,24.17,0,0,0,2.75-9.83,24.17,24.17,0,0,1-3,9.7,4.82,4.82,0,0,1-1.88,1.6c-.73.42-1.49.8-2.26,1.17-1.54.74-3.1,1.44-4.66,2.14-6.23,2.79-12.5,5.57-18.55,8.8a96.26,96.26,0,0,0-8.84,5.27,52.17,52.17,0,0,0-8,6.54c-.61.62-1.17,1.29-1.73,1.95a21.26,21.26,0,0,0-1.52,2.14,13.9,13.9,0,0,0-2.17,10.12c.16.85.28,1.72.48,2.56s.4,1.69.65,2.51a84.25,84.25,0,0,0,3.56,9.68c1.35,3.16,2.82,6.25,4.35,9.32C635.49,267.81,656.28,303.87,660.16,309.5Z" style="fill:#263238"></path><path d="M661.75,347s-.33,38.1-.32,38.13c0,7.28-.18,13.67-.56,17a.09.09,0,0,1,0,.05,5,5,0,0,1-.55,2.25.1.1,0,0,1,0,.05c-2.17,1.46-60.4,3-62.45,2.34s-.41-6.52,1.8-8.38S623.88,386,623.88,386l.68-38.08Z" style="fill:#dd6a57"></path><path d="M661.49,377.29s-.07,7.79-.06,7.82c0,7.28-.18,13.67-.56,17a.09.09,0,0,1,0,.05,9.75,9.75,0,0,1-.55,2.25.1.1,0,0,1,0,.05c-2.17,1.46-60.4,3-62.45,2.34s-.41-6.52,1.8-8.38S623.88,386,623.88,386l0-7.94Z" style="fill:#fff"></path><path d="M620.31,386c3.88-.64,8.59.05,11.48,2.87.11.11,0,.26-.17.22a53.83,53.83,0,0,0-11.31-2.6A.25.25,0,0,1,620.31,386Z" style="fill:#263238"></path><path d="M617.49,387.62c3.87-.64,8.59.05,11.48,2.87.11.11-.05.27-.17.22a54.11,54.11,0,0,0-11.31-2.6A.25.25,0,0,1,617.49,387.62Z" style="fill:#263238"></path><path d="M614.66,389.24c3.88-.64,8.59.05,11.48,2.87.12.11,0,.27-.16.22a54.11,54.11,0,0,0-11.31-2.6A.25.25,0,0,1,614.66,389.24Z" style="fill:#263238"></path><path d="M597.82,406.77c2,.63,60.27-.88,62.45-2.34.84-.55,1.12-9,1.15-19.32v-.32l-37.58.55,0,.64s-22,10.55-24.26,12.41S595.76,406.15,597.82,406.77Z" style="fill:#96D9AB"></path><path d="M598.42,404.5c9.81-.5,49.42-1.57,59.15-1.32.08,0,.08.06,0,.06-9.71.71-49.33,1.46-59.15,1.42C598.21,404.66,598.21,404.51,598.42,404.5Z" style="fill:#263238"></path><path d="M681,225.1s-17.29,54.48-17.6,64.5c-.27,8.53.83,83.86.83,83.86l-43.76.26s3.69-77.06,4.37-86c1.28-16.63,15.86-62.3,26.28-103H698.3s-.41,21.31-10.1,36.72C688.2,221.49,683.81,223.52,681,225.1Z" style="fill:#37474f"></path><path d="M661.9,365.39c-5-.14-10.3-.29-15.35-.17s-10,.2-15,.5c-2.84.17-5.68.27-8.51.55a.08.08,0,0,0,0,.15c5,.29,10.12.24,15.18.19s10-.1,15.06-.33c2.84-.13,5.67-.27,8.51-.47C662,365.79,662.21,365.4,661.9,365.39Z" style="fill:#263238"></path><path d="M652.33,210.44c-1.56,5.21-2.87,10.49-4.27,15.74s-2.81,10.59-4.2,15.89c-2.7,10.25-5.37,20.52-7.39,30.92a186.64,186.64,0,0,0-3.5,31.7c-.23,10.84,0,21.71.07,32.55s.16,9.54.35,20.45c0,1.35.06,2.71.11,4.07,0,.13.19.12.2,0,.29-10.85.13-9.44.1-20.29s-.18-21.71-.09-32.56a194.67,194.67,0,0,1,2.79-32.15c1.82-10.44,4.4-20.73,7.06-31q2.3-8.78,4.58-17.55c1.53-5.89,3.16-11.77,4.51-17.7A.17.17,0,0,0,652.33,210.44Z" style="fill:#263238"></path><path d="M670.18,226.15a39.16,39.16,0,0,0,6.49-.59,60,60,0,0,0,6.3-1.75,51.16,51.16,0,0,1,6.17-1,21.57,21.57,0,0,0,6.05-1.81c.09,0,.17.09.08.14a37.21,37.21,0,0,1-5.8,2.51c-2.07.66-4.24.75-6.35,1.26a51.12,51.12,0,0,1-6.48,1.49,23.13,23.13,0,0,1-6.49-.11C670.07,226.28,670.1,226.15,670.18,226.15Z" style="fill:#263238"></path><path d="M663.25,329.84l.08-13.42c0-4.47,0-8.94.12-13.41s.13-8.95.44-13.38a39.49,39.49,0,0,1,1.08-6.54c.48-2.18,1.06-4.34,1.61-6.5,2.21-8.66,4.68-17.25,7.12-25.86L681,224.91c-1.43,4.24-2.77,8.51-4.14,12.77l-4,12.83q-3.88,12.84-7.35,25.82c-.54,2.18-1.1,4.34-1.57,6.54a40.53,40.53,0,0,0-1.06,6.69c-.26,4.49-.32,9-.29,13.44Q662.71,316.44,663.25,329.84Z" style="fill:#263238"></path><path d="M628.35,269c1.63-5.65,3.16-11.33,4.69-17l4.53-17L642,217.88q1.11-4.26,2.28-8.51c.79-2.83,1.51-5.69,2.55-8.44a151.43,151.43,0,0,0-5.59,16.74c-1.65,5.65-3.16,11.33-4.69,17s-2.93,11.4-4.3,17.12S629.56,263.24,628.35,269Z" style="fill:#263238"></path><path d="M656.7,132.42c-5.18,13.8-24.2,35.18-30.8,37.65-8.14,3.06-28.49-8.69-36.73-16.08-3.41-3.05,7.19-19.51,12.63-19.47,3,0,20,13.32,22.33,12,5.71-3.26,13.42-9.42,24.5-17.8C654.67,124.13,659.93,123.83,656.7,132.42Z" style="fill:#dd6a57"></path><path d="M608.85,138.72s-4.13-5.61-6.49-7.68-14-6.54-15.08-4.08c-1.43,3.17,4.77,7.07,8.06,8.58,0,0-3.32,7.33.52,11.1S608.85,138.72,608.85,138.72Z" style="fill:#dd6a57"></path><path d="M591.73,155.94c-2.47-1-13.35-6.76-16-9s-9.89-9.36-8.36-11.58,3.81-.32,3.81-.32-2.57-3.48-.83-5.57,5.19,1,5.19,1-2.38-3.76-.49-5.73,4.84,1.72,4.84,1.72-2.34-3.34-.1-4.31c2.69-1.16,6.31,5.48,9.44,7.77.72.52,15.2,9.49,15.2,9.49Z" style="fill:#dd6a57"></path><path d="M579.61,126.1c2.67,4.88,4.68,6.55,9.47,9.21.09.05,0,.2-.07.15-4.92-2.17-7.75-3.91-9.64-9.25C579.27,126,579.48,125.86,579.61,126.1Z" style="fill:#263238"></path><path d="M575.32,130c3.21,4.83,5.38,6.66,10.19,9.81a.08.08,0,0,1-.08.13c-5-2.7-7.75-4.49-10.33-9.74C575,130,575.17,129.81,575.32,130Z" style="fill:#263238"></path><path d="M571.41,135.16c3.45,4.45,5.74,6.56,10.8,9a.11.11,0,0,1-.08.2,18.7,18.7,0,0,1-10.85-9.1C571.11,135,571.19,134.88,571.41,135.16Z" style="fill:#263238"></path><path d="M587.17,128c.78,3.83,5.23,5.54,8.3,7.25a.32.32,0,0,1,.08.52c-1.18,3.16-1.93,8,.09,10.91a.08.08,0,0,1-.12.1c-2.6-2.85-2.25-7.64-.73-11-3.19-1.7-7.57-3.61-7.65-7.76C587.14,127.94,587.17,127.93,587.17,128Z" style="fill:#263238"></path><path d="M633.69,138.26l10.88,18.53s12.5-20.06,14.51-27c2.26-7.81-2.23-7.26-9-3.59S633.69,138.26,633.69,138.26Z" style="fill:#96D9AB"></path><path d="M637.42,137c1.71,2.17,5.9,9.4,6.61,10.59.37.63,1.74,3.19,2.12,3.81.05.08-.08.14-.13.06-.72-1.18-1.56-2.3-2.29-3.48s-5.26-8.39-6.4-10.93C637.3,137,637.38,136.9,637.42,137Z" style="fill:#263238"></path><path d="M659.07,129.79c-2,6.94-14.5,27-14.5,27L639,147.24l17.89-23.61C659.37,123.45,660.42,125.14,659.07,129.79Z" style="opacity:0.1"></path><path d="M702.67,190.35l-56.91,11c.22,1.12-5.46-45.19,4.11-74.93.65-2,9.21-5.73,13.86-2.85C684.1,136.17,702.81,191.07,702.67,190.35Z" style="fill:#96D9AB"></path><path d="M653.24,133.77c2.83.12,7.86-4.17,9-8.42.08-.29-.95-2.92-2-6.17-.67-2-1.35-4.2-1.84-6.27-.1-.42-12.24,6.19-12.24,6.19a33.63,33.63,0,0,1,3.11,7.65,4.5,4.5,0,0,1,.11.87s0,.09,0,.14C649.5,129.43,650.2,133.65,653.24,133.77Z" style="fill:#dd6a57"></path><path d="M649.37,127.62s0,.09,0,.14a9.06,9.06,0,0,0,1.34-.24c7.6-2,7.38-12,7.2-14.5-2.22.87-11.78,6.08-11.78,6.08a34.18,34.18,0,0,1,3.12,7.65A4.47,4.47,0,0,1,649.37,127.62Z" style="fill:#263238"></path><path d="M657,96.25c2.34,4.35,2.57,18.22-.12,21.86-3.91,5.28-11.65,7.26-16.47,2.26S635.78,97.44,638.92,94C643.54,88.91,653.58,89.82,657,96.25Z" style="fill:#dd6a57"></path><path d="M645.59,106.87s.07,0,.07.08c0,.94.14,2,1,2.3,0,0,0,.06,0,.06C645.61,109.18,645.43,107.76,645.59,106.87Z" style="fill:#263238"></path><path d="M646.4,105.88c1.5-.15,1.69,2.86.3,3S645.14,106,646.4,105.88Z" style="fill:#263238"></path><path d="M640.2,107.35s-.07.05-.07.09c.09.93,0,2-.79,2.37,0,0,0,.06,0,.06C640.37,109.66,640.43,108.22,640.2,107.35Z" style="fill:#263238"></path><path d="M639.31,106.43c-1.51,0-1.44,3,0,3S640.57,106.45,639.31,106.43Z" style="fill:#263238"></path><path d="M647.51,104.43c-.42-.08-.79-.22-1.2-.34a2,2,0,0,1-1.14-.58.63.63,0,0,1,.05-.77,1.58,1.58,0,0,1,1.58-.26,2.28,2.28,0,0,1,1.4.92A.68.68,0,0,1,647.51,104.43Z" style="fill:#263238"></path><path d="M638.05,105c.41-.1.78-.25,1.18-.39a1.93,1.93,0,0,0,1.12-.62.62.62,0,0,0-.08-.77,1.59,1.59,0,0,0-1.59-.2,2.28,2.28,0,0,0-1.36,1A.68.68,0,0,0,638.05,105Z" style="fill:#263238"></path><path d="M647,115.48c-.21.23-.42.54-.75.59a2.41,2.41,0,0,1-1-.17,0,0,0,0,0,0,0,1.26,1.26,0,0,0,1.22.43,1,1,0,0,0,.68-.87C647.08,115.46,647,115.44,647,115.48Z" style="fill:#263238"></path><path d="M645.83,112.74a3.15,3.15,0,0,1-2,1.55,4.38,4.38,0,0,1-1.14.12h-.22l-.21,0a.23.23,0,0,1-.2-.2h0v-.09h0V114c-.06-.72-.06-1.81-.06-1.81-.26.14-1.56.83-1.56.45a47.82,47.82,0,0,1,.65-9.69c0-.1.17-.09.17,0,.12,3-.28,6-.21,9a5.81,5.81,0,0,1,1.47-.55c.11,0,0,2.12,0,2.44a.1.1,0,0,0,0,0,4.44,4.44,0,0,0,3.23-1.22C645.8,112.61,645.88,112.67,645.83,112.74Z" style="fill:#263238"></path><path d="M643.06,114a3.81,3.81,0,0,0,1.58,1.08,1.72,1.72,0,0,0,1,0c.73-.24.71-.93.54-1.5a4,4,0,0,0-.39-.88A5,5,0,0,1,643.06,114Z" style="fill:#263238"></path><path d="M644.64,115.1a1.72,1.72,0,0,0,1,0c.73-.24.71-.93.54-1.5A1.75,1.75,0,0,0,644.64,115.1Z" style="fill:#ff99ba"></path><path d="M637.21,98.68c.44-1.21.95-2.44,1.65-2.72s1.27,1.43,2.9,1.43c2.2,0,3.13-2.06,6.18-2.47,4.37-.58,6.54,3,7,9.2.45,5.57,3.84,5.88,3.84,5.88s1.28-12.41-2.44-16.26-11.77-5.15-16.86-.93C637.65,94.34,637.21,98.68,637.21,98.68Z" style="fill:#263238"></path><path d="M655.87,108s2.26-4.89,4.42-4.16,1,7.44-1.15,8.71a2.39,2.39,0,0,1-3.38-.69Z" style="fill:#dd6a57"></path><path d="M659.91,105.74a0,0,0,0,1,0,.06,6,6,0,0,0-2.41,4.27,1.31,1.31,0,0,1,1.88-.7c.05,0,0,.09,0,.09a1.47,1.47,0,0,0-1.5.79,7.22,7.22,0,0,0-.53,1.43c-.05.16-.33.13-.3-.05v0C656.64,109.53,657.73,106.34,659.91,105.74Z" style="fill:#263238"></path><path d="M643,90.51a19.59,19.59,0,0,1,5.27-2.28c2.09-.52,8.82-.8,10.58.34s2.93,7.39,3.09,8.3.4,6.52-1.45,8.11-3.18-7.84-6.73-10.6S643,90.51,643,90.51Z" style="fill:#96D9AB"></path><path d="M643,90.51s7.21,1.12,10.76,3.88,4.87,12.17,6.73,10.59a4.45,4.45,0,0,0,1.33-3.15c-.75-2.71-2.38-6.86-5-9.55-2.49-2.52-6.36-3.48-10.39-3.46A22,22,0,0,0,643,90.51Z" style="opacity:0.1"></path><path d="M660.61,110.65c-.48-2.5-3.85-8.93-7-12.47s-11.31-4.86-12.41-4.66c-2.66.47-3.09,1.82-3.54,1.64s1.86-3.56,2.56-4.1a8.73,8.73,0,0,1,3.59-1.37c1.17-.11,8.44-.25,11.41,2.5s7.69,10.89,7.28,13.17c-.1.54-.76,1-.89,1.74-.18,1-.25,2.18-.47,2.9S660.65,110.87,660.61,110.65Z" style="fill:#96D9AB"></path><path d="M652.79,96.52A13.14,13.14,0,0,0,654.38,95a9.38,9.38,0,0,0,1.3-1.77s.1,0,.08,0a7.34,7.34,0,0,1-1.14,2,6.18,6.18,0,0,1-1.75,1.39A.07.07,0,0,1,652.79,96.52Z" style="fill:#263238"></path><path d="M660.33,108.13c0-.19.15-.36.22-.55a3.63,3.63,0,0,0,.16-.65,5.27,5.27,0,0,1,.14-1.25,4,4,0,0,1,.49-.91,1.72,1.72,0,0,0,.37-1.08c0-.06.08-.07.08,0a4.18,4.18,0,0,1-.61,2,8.77,8.77,0,0,0-.19,1.35,1.91,1.91,0,0,1-.54,1.13S660.31,108.2,660.33,108.13Z" style="fill:#263238"></path><path d="M659.14,105.52c.2-.32.43-.61.6-.94a8.05,8.05,0,0,0,.43-1c.12-.34.22-.68.33-1s.32-.8.43-1.21c0,0,.09,0,.08,0-.12.42-.16.86-.27,1.29a8.69,8.69,0,0,1-.36,1.09,5.83,5.83,0,0,1-.48,1,2.87,2.87,0,0,1-.73.82S659.12,105.54,659.14,105.52Z" style="fill:#263238"></path><path d="M657.93,103.16a7.28,7.28,0,0,0,1.19-1.71c.29-.61.56-1.24.81-1.87,0,0,.09,0,.08,0a8.34,8.34,0,0,1-.64,2,4.35,4.35,0,0,1-.54.87,5.37,5.37,0,0,1-.84.74S657.89,103.2,657.93,103.16Z" style="fill:#263238"></path><path d="M656.65,100.93a2.43,2.43,0,0,0,.59-.76c.18-.3.36-.62.53-.93l.49-.92a2.4,2.4,0,0,0,.34-1,0,0,0,0,1,.08,0,2.5,2.5,0,0,1-.17,1,6.61,6.61,0,0,1-.45,1.06,9.6,9.6,0,0,1-.6,1,1.75,1.75,0,0,1-.75.65A.06.06,0,0,1,656.65,100.93Z" style="fill:#263238"></path><path d="M655.58,98c.2-.26.41-.52.59-.79s.36-.55.52-.83.36-.59.52-.9c0-.05.09,0,.08,0a8,8,0,0,1-.36,1,7.86,7.86,0,0,1-.51.89,8,8,0,0,1-.61.8,2.4,2.4,0,0,1-.75.67s-.1,0-.07-.07A4,4,0,0,1,655.58,98Z" style="fill:#263238"></path><path d="M650.69,95.32c.21-.34.42-.67.66-1a11.71,11.71,0,0,1,.8-.92,11,11,0,0,1,1.79-1.55s.1,0,.06.06c-1.06,1.16-2.18,2.28-3.24,3.45C650.72,95.41,650.66,95.37,650.69,95.32Z" style="fill:#263238"></path><path d="M648.91,93.35a4.77,4.77,0,0,1,.76-.91,11.09,11.09,0,0,1,2-1.46c.05,0,.1,0,.06.06-.6.52-1.21,1-1.79,1.56a10.84,10.84,0,0,0-.81.85c-.25.3-.43.64-.67,1,0,0-.06,0-.05,0A2.88,2.88,0,0,1,648.91,93.35Z" style="fill:#263238"></path><path d="M646.7,92.61a5.51,5.51,0,0,1,.69-.9,6.56,6.56,0,0,1,1.71-1.3,0,0,0,0,1,0,.07,12.84,12.84,0,0,0-1.58,1.46c-.24.27-.47.55-.7.83s-.42.61-.68.86c0,0,0,0,0,0A6.35,6.35,0,0,1,646.7,92.61Z" style="fill:#263238"></path><path d="M645,91.54c.23-.25.49-.48.74-.72a3.37,3.37,0,0,1,.81-.59,0,0,0,0,1,0,.07c-.47.47-.93,1-1.38,1.43a9.7,9.7,0,0,0-1,1.53s0,0,0,0A3.15,3.15,0,0,1,645,91.54Z" style="fill:#263238"></path><path d="M643.1,91.36a5.21,5.21,0,0,1,1.55-1.25s.09,0,.05.07a6.27,6.27,0,0,0-1.39,1.33,8.22,8.22,0,0,0-1,1.64s-.07,0-.06,0A4.38,4.38,0,0,1,643.1,91.36Z" style="fill:#263238"></path><path d="M640.76,92.78a3,3,0,0,1,.17-.41,4.16,4.16,0,0,1,.48-.75,9.11,9.11,0,0,1,1.29-1.27s.1,0,.06.06a7.32,7.32,0,0,0-1.2,1.29,4.78,4.78,0,0,0-.46.74c-.07.12-.13.25-.19.38a2.54,2.54,0,0,1-.16.38,0,0,0,0,1-.08,0A1.11,1.11,0,0,1,640.76,92.78Z" style="fill:#263238"></path><path d="M639.26,93.09c.12-.21.25-.42.39-.62s.3-.38.47-.56.35-.36.51-.55.1,0,.06.06a3.8,3.8,0,0,0-.47.59l-.41.58c-.13.2-.27.39-.41.59s-.25.42-.4.6a0,0,0,0,1-.06,0A3.35,3.35,0,0,1,639.26,93.09Z" style="fill:#263238"></path><path d="M671.92,133.91c6.38,12.41,20.4,37.78,17.68,47.76-3.57,13.09-25.11,28.47-30.66,32.75-2.43,1.87-15.78-13.49-15.19-16.71s22-21.83,23.2-24-3.91-24.3-5.44-36.05C659.57,122.85,666.51,123.41,671.92,133.91Z" style="fill:#dd6a57"></path><path d="M638.44,206.61c.6-1.44-.15-1.76-2.57-.42s-10.88,8.72-13.2,5.55,9.75-13.4,14-15.33a74.54,74.54,0,0,1,11.69-3.57C646.37,195.31,642.2,201.73,638.44,206.61Z" style="fill:#dd6a57"></path><path d="M664.77,209.12c-5.75,6.73-12.5,15.47-21.95,18.72a5,5,0,0,1-3.24.08c-4.21,1.54-6.19,0-6.19,0-4.36.23-6.18-1.61-6.18-1.61s-5,1.75-6.51-1.08c-1.76-3.16,5.55-5,8.95-8.46,7.8-7.95,16.65-21.42,18.67-23.94Z" style="fill:#dd6a57"></path><path d="M643.67,214.19a71.09,71.09,0,0,1-7.21,6.57,72.29,72.29,0,0,1-9.21,5.44.09.09,0,0,0,.07.16,37.83,37.83,0,0,0,16.46-12.06C643.88,214.17,643.79,214.08,643.67,214.19Z" style="fill:#263238"></path><path d="M649.15,218.2c-2.4,2.1-6.64,5.78-15.81,9.63,0,0,0,.07,0,.06a33.94,33.94,0,0,0,15.89-9.58C649.39,218.17,649.31,218.06,649.15,218.2Z" style="fill:#263238"></path><path d="M652.06,220.41c-4.22,3.42-7.31,5-12.47,7.48,0,0,0,.07,0,.06,6.15-2.16,8.13-3.63,12.58-7.41C652.35,220.41,652.22,220.27,652.06,220.41Z" style="fill:#263238"></path><path d="M663,153.94l21.32-.11s-11-20.72-15.94-25.9c-5.57-5.83-7.33-1.7-7.57,6S663,153.94,663,153.94Z" style="fill:#96D9AB"></path><path d="M663.71,150.08c2.71-.38,11-.38,12.38-.39.73,0,3.61.09,4.33.08.1,0,.08.14,0,.14-1.38,0-2.75.19-4.13.23s-9.83.34-12.57.05A.06.06,0,0,1,663.71,150.08Z" style="fill:#263238"></path><path d="M673.79,135.64c0-.08.08-.14.14-.07q1.68,2.48,3.27,5a18.2,18.2,0,0,0-1.27-2.86s0-.07.06,0a13.94,13.94,0,0,1,1.46,3.3c.74,1.18,1.46,2.37,2.17,3.56,1.81,3,3.66,6.07,5.28,9.2a.25.25,0,0,1-.22.36c-.74,0-1.48-.06-2.22-.13-.08,0-.09-.13,0-.14.61-.08,1.22-.13,1.83-.18-1.82-2.88-3.5-5.87-5.24-8.8S675.47,138.75,673.79,135.64Z" style="fill:#263238"></path><path d="M661.2,145c-.29-1.09-.58-2.17-.83-3.27,0,0,0,0,0,0,.24.79.46,1.59.68,2.39-.18-1.65-.33-3.29-.4-4.94,0,0,0,0,0,0,.48,2.46.82,4.94,1.24,7.4s.77,4.85,1.14,7.27c.48.08,1,.14,1.46.19a.08.08,0,0,1,0,.15c-.54,0-1.07.06-1.61.11a.25.25,0,0,1-.28-.18C662.06,151.07,661.56,148,661.2,145Z" style="fill:#263238"></path></g><g id="freepik--character-2--inject-2"><path d="M245.22,452.55c2.09.71,62.16.92,64.46-.52.87-.54,1.41-9.29,1.77-19.88.07-2.28.14-4.64.19-7l4.87-32-40.15-.26-3.79,32.05.15,7s-23,10.21-25.38,12.06S243.12,451.84,245.22,452.55Z" style="fill:#ad6359"></path><path d="M245.22,452.55c2.09.71,62.16.92,64.46-.52,1.06-.67,1.64-13.44,2-26.92l-39.07-.25.15,7s-23,10.21-25.38,12.06S243.12,451.84,245.22,452.55Z" style="fill:#fff"></path><path d="M245.22,452.55c2.09.71,62.16.92,64.46-.52.87-.54,1.41-9.29,1.77-19.88l-38.73-.25s-23,10.21-25.38,12.06S243.12,451.84,245.22,452.55Z" style="fill:#96D9AB"></path><path d="M246.09,450.15c10.07-.22,50.7-.12,60.67.44.09,0,.09.06,0,.06-10,.43-50.61,0-60.67-.34C245.88,450.3,245.88,450.15,246.09,450.15Z" style="fill:#263238"></path><path d="M268.81,432.89c4,0,8.7,1.4,11.19,4.7.1.13-.09.27-.21.21a54.69,54.69,0,0,0-11.05-4.41A.26.26,0,0,1,268.81,432.89Z" style="fill:#263238"></path><path d="M265.69,434.09c4,0,8.7,1.4,11.2,4.71.09.12-.09.26-.21.2a56.21,56.21,0,0,0-11.06-4.41A.26.26,0,0,1,265.69,434.09Z" style="fill:#263238"></path><path d="M262.58,435.3c4-.05,8.7,1.39,11.19,4.7.1.13-.09.26-.21.2a55.88,55.88,0,0,0-11.05-4.41A.25.25,0,0,1,262.58,435.3Z" style="fill:#263238"></path><path d="M380,251.7S327.3,331,326.05,336.6C324.13,345.16,313.9,431,313.9,431l-44-.87s9.93-75.84,17.85-100.39c5.71-17.68,46.86-76.33,46.86-76.33Z" style="fill:#455a64"></path><path d="M271.25,422.59c7-.06,31.66-.33,40.93.53a.07.07,0,0,1,0,.14c-3.19.45-34-.26-40.94-.48A.1.1,0,1,1,271.25,422.59Z" style="fill:#263238"></path><path d="M338.77,465.94c2.21.15,61.81-15.57,63.67-17.54a.87.87,0,0,0,.14-.41c.23-1.95-2.82-9.27-4.95-18.64-.14-.59-1.26-3.44-2.83-7.28-4.32-10.54-12-28.66-12-28.66l-38.91,10,14.33,28.81,1.94,6.77s-19.68,15.74-21.48,18.12S336.57,465.79,338.77,465.94Z" style="fill:#ad6359"></path><path d="M338.77,465.94c2.21.15,61.81-15.57,63.67-17.54a.87.87,0,0,0,.14-.41c.23-1.95-2.82-9.27-4.95-18.64-.14-.59-1.26-3.44-2.83-7.28L358.18,432.2l1.94,6.77s-19.68,15.74-21.48,18.12S336.57,465.79,338.77,465.94Z" style="fill:#fff"></path><path d="M338.78,465.94c2.21.15,61.8-15.57,63.65-17.54.71-.75-.83-8.81-4.8-19L360.12,439s-19.68,15.74-21.48,18.12S336.57,465.78,338.78,465.94Z" style="fill:#96D9AB"></path><path d="M339,463.4c9.68-2.77,49-13,58.79-15,.08,0,.09,0,0,.07-9.54,2.95-48.94,12.88-58.76,15.11C338.84,463.6,338.8,463.45,339,463.4Z" style="fill:#263238"></path><path d="M356.59,440.93c3.89-1.07,8.77-.87,12,1.69.12.1,0,.28-.15.25a55.87,55.87,0,0,0-11.81-1.45A.25.25,0,0,1,356.59,440.93Z" style="fill:#263238"></path><path d="M353.88,442.88c3.89-1.07,8.77-.86,12,1.7.13.1,0,.28-.15.25a55.22,55.22,0,0,0-11.81-1.45A.25.25,0,0,1,353.88,442.88Z" style="fill:#263238"></path><path d="M351.17,444.84c3.89-1.07,8.77-.87,12,1.69.13.1,0,.28-.14.25a56,56,0,0,0-11.82-1.45A.25.25,0,0,1,351.17,444.84Z" style="fill:#263238"></path><path d="M357.43,439.06,401,427.62s-43.66-90.86-43.32-96.53c.3-5,30.57-49.11,32.25-57.36,2.74-13.5-3.84-25.57-10.22-33L334.65,253.4s3.59,7.8,10.19,12.72c0,0-28.34,47.32-29.07,62.89S357.43,439.06,357.43,439.06Z" style="fill:#455a64"></path><path d="M356.73,431.22c6.32-1.81,4.48-1.38,10.83-3.12,3.1-.86,23.51-6.43,26.54-6.72a.07.07,0,0,1,0,.13c-2.79,1.25-23.29,6.47-26.41,7.26-6.37,1.62-4.56,1.09-11,2.63A.09.09,0,0,1,356.73,431.22Z" style="fill:#263238"></path><path d="M337.91,264.31a80,80,0,0,1,12.49,5.89.13.13,0,1,1-.12.24c-4.21-1.83-8.51-3.59-12.6-5.65A.27.27,0,1,1,337.91,264.31Z" style="fill:#263238"></path><path d="M343.21,263.2a18.71,18.71,0,0,1,.81,2.43,5.25,5.25,0,0,1,.31,2c0,.13-.19.14-.26.05a6.77,6.77,0,0,1-.84-1.95c-.28-.75-.57-1.5-.82-2.26C342.24,263,343,262.71,343.21,263.2Z" style="fill:#263238"></path><path d="M343.21,259.11c-.18-.69-.36-1.38-.55-2.07s-.45-1.42-.6-2.14c0-.12-.2-.07-.17,0,.17.69.26,1.42.38,2.12s.26,1.41.4,2.12c.25,1.31.61,2.62,1,3.91a4.77,4.77,0,0,1-2-.62,3.72,3.72,0,0,1-1.22-1.93c-.28-.78-.54-1.58-.83-2.36a15.29,15.29,0,0,1-.87-2.63c0-.12-.2-.06-.18.05a29.53,29.53,0,0,0,1.61,5.57c.31.7.54,1.42,1.23,1.77a6.1,6.1,0,0,0,2.42.47c.1,0,.24,0,.22-.13C343.82,261.9,343.56,260.48,343.21,259.11Z" style="fill:#263238"></path><path d="M344,267.67c-1.71,3.1-3.68,6.07-5.51,9.1s-3.49,6-5.16,9q-5.07,9.18-9.35,18.77-2.13,4.74-4,9.57a71.94,71.94,0,0,0-3.28,9.88,27.17,27.17,0,0,0-.44,10.28,70,70,0,0,0,2.66,10.26,183.8,183.8,0,0,0,8.51,22.62c.12.24.52.05.43-.2-2.38-6.72-4.85-13.41-7-20.21-2.07-6.6-4.53-13.44-3.39-20.45a53,53,0,0,1,2.87-9.84c1.21-3.26,2.52-6.5,3.91-9.69,2.74-6.3,5.81-12.43,8.95-18.53,1.76-3.43,3.61-6.8,5.39-10.21s3.54-6.94,5.55-10.26C344.17,267.66,344,267.57,344,267.67Z" style="fill:#263238"></path><path d="M376.8,261.05c-.82-.14-2,.15-5.55-.09a19.07,19.07,0,0,1-2.9-.48,6.32,6.32,0,0,1-2.7-1.09,14.18,14.18,0,0,1-3.07-4.23,22.08,22.08,0,0,1-2.15-5.23c0-.11-.19-.05-.17,0,.19,1,.29,2.07.57,3.09a17.86,17.86,0,0,0,1,2.81,11.39,11.39,0,0,0,3.15,4.66c1.6,1.2,3.82,1.42,5.75,1.56,1.12.07,5.51,0,6.09-.67C377,261.32,377,261.08,376.8,261.05Z" style="fill:#263238"></path><path d="M392.17,420.17c-4.73-12.37-30.32-67.16-35.34-78.61a44.33,44.33,0,0,1-3.25-8.44c-.68-3.2.31-6.08,1.65-9a154.34,154.34,0,0,1,8.43-15.27c3.06-5,6.3-9.82,9.49-14.69a153.78,153.78,0,0,0,9.11-14.85c2.48-5,3.86-10.23,3.15-15.78s-3.09-10.68-5.65-15.54c-.68-1.29-1.37-2.56-2.05-3.84,0-.1-.2,0-.14.09,2.85,5.09,5.58,10.45,6.91,16.18a26.23,26.23,0,0,1,.63,8.65,27.52,27.52,0,0,1-2.45,8.45c-2.37,5.2-5.67,10-8.79,14.78s-6.44,9.73-9.54,14.67a167.35,167.35,0,0,0-8.69,15.31c-1.15,2.34-2.41,4.79-2.69,7.43-.31,2.89.74,5.66,1.85,8.27,4.85,11.36,36.42,80.91,37.12,82.31C392,420.51,392.24,420.35,392.17,420.17Z" style="fill:#263238"></path><path d="M332.93,196.68c2.39-.74,5.7-6.91,6.27-11.31,0-.3-1.36-2.77-2.92-5.86-.94-1.87-1.95-4-2.72-6l-11.32,7.9a34,34,0,0,1,4.19,7.18,5,5,0,0,1,.23.86l0,.14C327.05,191.26,329.18,197.85,332.93,196.68Z" style="fill:#ad6359"></path><path d="M328,189.18a9.06,9.06,0,0,1-1.31.43c0-.06,0-.11,0-.15a4.33,4.33,0,0,0-.23-.85,34.32,34.32,0,0,0-4.19-7.18l10.5-7.33C333.48,177.52,334.69,186.4,328,189.18Z" style="fill:#263238"></path><path d="M330.29,156.73c2.82,4.09,4.57,18,2.27,21.89-3.33,5.71-10.85,8.54-16.23,4.06-5.21-4.34-7.18-22.43-4.42-26.23C316,150.86,326.12,150.68,330.29,156.73Z" style="fill:#ad6359"></path><path d="M319.16,168.58s.08,0,.08.07c.06.94.27,2,1.15,2.25a0,0,0,0,1,0,0C319.34,170.9,319.06,169.48,319.16,168.58Z" style="fill:#263238"></path><path d="M319.92,167.53c1.49-.25,1.88,2.76.49,3S318.66,167.73,319.92,167.53Z" style="fill:#263238"></path><path d="M314.18,169s-.07.06-.06.1c.15.92.16,2-.65,2.43,0,0,0,.06,0,.05C314.5,171.35,314.47,169.9,314.18,169Z" style="fill:#263238"></path><path d="M313.22,168.18c-1.51.07-1.25,3.1.16,3S314.49,168.11,313.22,168.18Z" style="fill:#263238"></path><path d="M320.93,166a10.22,10.22,0,0,1-1.22-.27,2,2,0,0,1-1.19-.5.63.63,0,0,1,0-.78,1.6,1.6,0,0,1,1.57-.37,2.36,2.36,0,0,1,1.47.83A.69.69,0,0,1,320.93,166Z" style="fill:#263238"></path><path d="M312,167.14c.41-.13.77-.31,1.16-.47a2,2,0,0,0,1.09-.69.65.65,0,0,0-.13-.78,1.6,1.6,0,0,0-1.61-.09,2.34,2.34,0,0,0-1.31,1.06A.69.69,0,0,0,312,167.14Z" style="fill:#263238"></path><path d="M321.68,177.08c-.19.25-.38.58-.71.65a2.41,2.41,0,0,1-1-.11s-.06,0,0,.06a1.29,1.29,0,0,0,1.25.35,1,1,0,0,0,.63-.92C321.79,177.06,321.71,177.05,321.68,177.08Z" style="fill:#263238"></path><path d="M320.35,174.41a3.21,3.21,0,0,1-1.94,1.69,4.33,4.33,0,0,1-1.14.2h-.43a.22.22,0,0,1-.21-.18h0a.31.31,0,0,1,0-.1h0v-.08c-.11-.72-.18-1.82-.18-1.82-.24.16-1.5.93-1.53.56a48.33,48.33,0,0,1,0-9.77.09.09,0,0,1,.17,0c.32,3,.11,6,.39,9.05a5.8,5.8,0,0,1,1.44-.64c.11,0,.1,2.13.17,2.45v0a4.44,4.44,0,0,0,3.16-1.44C320.31,174.28,320.4,174.33,320.35,174.41Z" style="fill:#263238"></path><path d="M317.65,175.88a3.83,3.83,0,0,0,1.66,1,1.78,1.78,0,0,0,1-.07c.72-.29.65-1,.44-1.55a4.7,4.7,0,0,0-.45-.85A4.92,4.92,0,0,1,317.65,175.88Z" style="fill:#263238"></path><path d="M319.31,176.86a1.78,1.78,0,0,0,1-.07c.72-.29.65-1,.44-1.55A1.78,1.78,0,0,0,319.31,176.86Z" style="fill:#ff99ba"></path><path d="M333.2,167.53c.14-1.28,1.14-14.95.56-16.33s-1.87-.49-1.91-.56-.27-1.25-1.08-1.58a2,2,0,0,0-1.59.29s-.43-1.22-1.28-1.43a1.61,1.61,0,0,0-1.48.59,2.12,2.12,0,0,0-1.51-1.29,1.37,1.37,0,0,0-1.43.83s-.53-1.15-1.39-1.24-1.43.9-1.43.9a1.82,1.82,0,0,0-1.63-.86,1.59,1.59,0,0,0-1.21,1.3,2.18,2.18,0,0,0-1.71-.83c-.95.13-1.08,1.35-1.08,1.35s-.55-1-1.43-.77-.88,1.49-.88,1.49-.68-1.07-1.66-.56c-1.52.77-.47,8.44-.29,11.81,0,0,.19-1.66.85-1.83s1.36.83,2.66.9c1.87.11,4.52-2.5,7.09-2.37s4.69,2.36,6.18,6C329.23,167.45,332.86,170.56,333.2,167.53Z" style="fill:#263238"></path><path d="M321.37,173.43a4.41,4.41,0,0,1-4.51-4.32h0a4.42,4.42,0,1,1,5.6,4.16A4.35,4.35,0,0,1,321.37,173.43Zm-3.92-4.33a3.83,3.83,0,1,0,3.74-3.91,3.29,3.29,0,0,0-.94.14A3.81,3.81,0,0,0,317.45,169.1Z" style="fill:#96D9AB"></path><path d="M312.15,174.84c-1.79.28-3.55-1.45-3.93-3.86a5.23,5.23,0,0,1,.45-3.19,2.75,2.75,0,0,1,4.65-.73,5.25,5.25,0,0,1,1.4,2.91c.36,2.28-.66,4.36-2.29,4.81A1.27,1.27,0,0,1,312.15,174.84Zm-3-6.78a4.67,4.67,0,0,0-.39,2.83c.33,2.09,1.79,3.6,3.26,3.37s2.4-2.11,2.08-4.2a4.65,4.65,0,0,0-1.24-2.58,2.36,2.36,0,0,0-2-.79l-.22.05A2.44,2.44,0,0,0,309.19,168.06Z" style="fill:#96D9AB"></path><path d="M317.08,169.59l.31-.5c-.75-.45-2.4-1-3.29.34l.49.34C315.39,168.59,317,169.55,317.08,169.59Z" style="fill:#96D9AB"></path><path d="M336.71,167.68l.48-.34c-.16-.23-1.63-2.18-3-2.18s-9,1.94-9.28,2l.14.57c2.21-.56,8.18-2,9.14-2S336.32,167.15,336.71,167.68Z" style="fill:#96D9AB"></path><path d="M330.87,168.29s1.72-5.14,4-4.65,1.83,7.33-.19,8.84a2.41,2.41,0,0,1-3.46-.32Z" style="fill:#ad6359"></path><path d="M334.67,165.6s.06,0,0,.06a6.09,6.09,0,0,0-1.94,4.54,1.34,1.34,0,0,1,1.81-.92.05.05,0,0,1,0,.1,1.5,1.5,0,0,0-1.42,1,6.83,6.83,0,0,0-.37,1.48c0,.17-.32.17-.31,0v0C331.81,169.75,332.55,166.44,334.67,165.6Z" style="fill:#263238"></path><path d="M385.41,247.5c-.08.19-58,19.93-58.73,19.53-1-.57-8.16-60.81-3.12-76,1.26-3.81,8.61-8.49,13-6.43,12.59,6,17.06,13,21.57,18.42,3.35,4,8.13,11.2,12.76,18.64C378.48,233.87,385.7,246.82,385.41,247.5Z" style="fill:#c7c7c7"></path><path d="M332.84,195.43c1.91,8.2,5.72,40.9-2.28,48.65-9.7,9.38-25.75,16.73-31.68,20.37-1.49.91-11.74-22.56-7.95-24.36,5.89-2.8,19.45-9.18,20.48-10.12,1.79-1.64,6.79-22.64,9.88-34C324.08,185.72,331.71,190.59,332.84,195.43Z" style="fill:#ad6359"></path><path d="M280.17,250.6c1-1.21.38-1.74-2.34-1.16s-13,5.2-14.31,1.48,13.29-10,17.89-10.65,12.28,0,12.28,0C291.09,242.05,285.22,247,280.17,250.6Z" style="fill:#ad6359"></path><path d="M304.74,260.69c-7.49,4.79-16.53,11.21-26.56,11.58a4.92,4.92,0,0,1-3.13-.87c-4.49.25-6-1.8-6-1.8-4.25-1.05-5.46-3.35-5.46-3.35s-5.28.23-5.95-2.93c-.76-3.55,6.8-3.18,11.08-5.52,9.81-5.36,22.25-15.72,24.93-17.54Z" style="fill:#ad6359"></path><path d="M283,259.41a71,71,0,0,1-8.86,4.2,71.77,71.77,0,0,1-10.43,2.54.09.09,0,0,0,0,.17,38,38,0,0,0,19.34-6.78C283.19,259.45,283.13,259.33,283,259.41Z" style="fill:#263238"></path><path d="M287.08,264.86c-2.92,1.32-8.07,3.61-18,4.64,0,0,0,.06,0,.06A34.13,34.13,0,0,0,287.14,265C287.32,264.9,287.28,264.77,287.08,264.86Z" style="fill:#263238"></path><path d="M289.23,267.83c-5.06,2.06-8.5,2.71-14.16,3.55,0,0,0,.06,0,.06,6.53-.28,8.87-1.12,14.25-3.45C289.51,267.91,289.42,267.75,289.23,267.83Z" style="fill:#263238"></path><path d="M296.94,237.12l8.39,25.53s21.86-10.74,27.17-19.46,3.68-31.29,1.62-43.62S323.9,181.91,319.33,201s-7.52,27.4-8.24,28.24S296.94,237.12,296.94,237.12Z" style="fill:#c7c7c7"></path><path d="M324.36,251.23c.34-.74,6.29-4.17,9.35-11,1.33-3,2.29-12,2.29-17.74,0-2.18-.21-4.36-.35-6.53-.29-4.39-.66-8.78-.66-13.18,0-.05.08-.05.09,0,.51,2.77.84,5.58,1.08,8.4l.09-.46c.26-1.32.57-2.63.7-4,0-.09.16-.06.14,0-.17,1.32-.22,2.65-.35,4-.07.64-.14,1.28-.26,1.91q-.06.36-.15.75c.06.87.11,1.75.15,2.62.11,2.22.09,4.43.15,6.65.17,6.11-.55,14.18-2.3,18.34-2.95,7-9.64,9.92-9.82,10.2C324.45,251.33,324.31,251.34,324.36,251.23Z" style="fill:#263238"></path><path d="M309.6,259.33c-.86-1.87-1.47-3.88-2.14-5.82s-1.31-3.84-1.95-5.76c-1.28-3.89-2.67-7.77-3.7-11.74a.07.07,0,0,1,.14,0c1.68,3.77,3,7.74,4.29,11.64q1,2.94,1.9,5.91a52.67,52.67,0,0,1,1.61,5.78C309.77,259.39,309.64,259.4,309.6,259.33Z" style="fill:#263238"></path><path d="M325.35,188.25c3.71-3.84,15.7-8.84,21.73-7.09,7.61,2.2,21.18,24.73,19.08,27-3.74,4-24.06-5.08-29.36-9.79S325.35,188.25,325.35,188.25Z" style="fill:#c7c7c7"></path><path d="M330.87,194.52c1.07.59,2.17,1.15,3.24,1.75-1.6-1.35-3.21-2.68-4.77-4.08,0,0,0-.13.07-.1a66.39,66.39,0,0,1,5.66,4.21c1.9,1.46,3.8,2.93,5.78,4.29a47.77,47.77,0,0,0,6.12,3.72,52.25,52.25,0,0,0,7,2.75c1.35.43,2.72.84,4.09,1.22a31.2,31.2,0,0,0,4.49.85c.28,0,.14.15,0,.15a20.86,20.86,0,0,1-3.77-.52c-1.29-.27-2.57-.55-3.86-.85a45.47,45.47,0,0,1-7.21-2.21c-4.56-1.9-8.41-4.9-12.12-8.11l-.21-.18c-.64-.37-1.28-.75-1.9-1.15-.9-.57-1.81-1.11-2.75-1.61C330.71,194.61,330.78,194.47,330.87,194.52Z" style="fill:#263238"></path></g><g id="freepik--character-1--inject-2"><path d="M211.47,284.05a54.43,54.43,0,0,1-23.42-4.94,57.91,57.91,0,0,1-18-13,58.83,58.83,0,0,1-11.63-18.4,57,57,0,0,1-4.14-21.34,55.51,55.51,0,0,1,4.3-21.51,57.23,57.23,0,0,1,12-18.24,58.6,58.6,0,0,1,18.32-12.58,56.52,56.52,0,0,1,23.17-4.7,54.46,54.46,0,0,1,23.42,4.94,57.45,57.45,0,0,1,18,13.06,58.55,58.55,0,0,1,11.54,18.48A57.48,57.48,0,0,1,269.13,227a55.08,55.08,0,0,1-4.3,21.43,58.07,58.07,0,0,1-11.95,18.16,59,59,0,0,1-18.24,12.66A55.79,55.79,0,0,1,211.47,284.05ZM185.82,226.7a38.6,38.6,0,0,0,1.59,11.08,29,29,0,0,0,4.78,9.47,23.81,23.81,0,0,0,8.05,6.69,27.21,27.21,0,0,0,23.17-.08,23.58,23.58,0,0,0,8.05-6.85,29.43,29.43,0,0,0,4.61-9.63,40.65,40.65,0,0,0,1.52-11,38.2,38.2,0,0,0-1.6-11.07,27.35,27.35,0,0,0-4.85-9.4,26.23,26.23,0,0,0-31.06-6.45,23.66,23.66,0,0,0-8.05,6.77,28.79,28.79,0,0,0-4.7,9.55A39.79,39.79,0,0,0,185.82,226.7Z" style="fill:#96D9AB"></path><path d="M202.47,284.05a54.43,54.43,0,0,1-23.42-4.94,57.91,57.91,0,0,1-18-13,58.83,58.83,0,0,1-11.63-18.4,57,57,0,0,1-4.14-21.34,55.51,55.51,0,0,1,4.3-21.51,57.23,57.23,0,0,1,12-18.24,58.6,58.6,0,0,1,18.32-12.58,56.52,56.52,0,0,1,23.17-4.7,54.46,54.46,0,0,1,23.42,4.94,57.45,57.45,0,0,1,18,13.06,58.55,58.55,0,0,1,11.54,18.48A57.48,57.48,0,0,1,260.13,227a55.08,55.08,0,0,1-4.3,21.43,58.07,58.07,0,0,1-12,18.16,59,59,0,0,1-18.24,12.66A55.79,55.79,0,0,1,202.47,284.05ZM176.82,226.7a38.6,38.6,0,0,0,1.59,11.08,29,29,0,0,0,4.78,9.47,23.81,23.81,0,0,0,8.05,6.69,27.21,27.21,0,0,0,23.17-.08,23.58,23.58,0,0,0,8.05-6.85,29.43,29.43,0,0,0,4.61-9.63,40.65,40.65,0,0,0,1.52-11,38.2,38.2,0,0,0-1.6-11.07,27.35,27.35,0,0,0-4.85-9.4,26.23,26.23,0,0,0-31.06-6.45,23.66,23.66,0,0,0-8.05,6.77,28.79,28.79,0,0,0-4.7,9.55A39.79,39.79,0,0,0,176.82,226.7Z" style="fill:#96D9AB"></path><path d="M202.47,284.05a54.43,54.43,0,0,1-23.42-4.94,57.91,57.91,0,0,1-18-13,58.83,58.83,0,0,1-11.63-18.4,57,57,0,0,1-4.14-21.34,55.51,55.51,0,0,1,4.3-21.51,57.23,57.23,0,0,1,12-18.24,58.6,58.6,0,0,1,18.32-12.58,56.52,56.52,0,0,1,23.17-4.7,54.46,54.46,0,0,1,23.42,4.94,57.45,57.45,0,0,1,18,13.06,58.55,58.55,0,0,1,11.54,18.48A57.48,57.48,0,0,1,260.13,227a55.08,55.08,0,0,1-4.3,21.43,58.07,58.07,0,0,1-12,18.16,59,59,0,0,1-18.24,12.66A55.79,55.79,0,0,1,202.47,284.05ZM176.82,226.7a38.6,38.6,0,0,0,1.59,11.08,29,29,0,0,0,4.78,9.47,23.81,23.81,0,0,0,8.05,6.69,27.21,27.21,0,0,0,23.17-.08,23.58,23.58,0,0,0,8.05-6.85,29.43,29.43,0,0,0,4.61-9.63,40.65,40.65,0,0,0,1.52-11,38.2,38.2,0,0,0-1.6-11.07,27.35,27.35,0,0,0-4.85-9.4,26.23,26.23,0,0,0-31.06-6.45,23.66,23.66,0,0,0-8.05,6.77,28.79,28.79,0,0,0-4.7,9.55A39.79,39.79,0,0,0,176.82,226.7Z" style="fill:#fff;opacity:0.30000000000000004"></path><circle cx="201.14" cy="178.65" r="3.77" style="fill:#a6a6a6"></circle><path d="M49.64,453.64c.23-2.14,24.76-55,27-56.42.84-.55,8.75,2.57,18.2,6.62l.29.13c2,.83,37.91,10.49,37.91,10.49l-15.93,34.6L79.66,438.25l-.57-.28s-18.45,16-21,17.34S49.39,455.77,49.64,453.64Z" style="fill:#d3766a"></path><path d="M101.94,406,85.55,440l-5.89-1.7-.57-.28s-18.45,16-21,17.34-8.66.46-8.41-1.67,24.76-55,27-56.42c.83-.55,8.75,2.57,18.2,6.62l.29.13C95.59,404.18,98.24,405,101.94,406Z" style="fill:#ebebeb"></path><path d="M49.43,453.9c.23-2.15,24.82-55.62,27-57.07.84-.55,8.84,2.58,18.4,6.63L79.11,438s-18.57,16.26-21.18,17.58S49.19,456.06,49.43,453.9Z" style="fill:#c7c7c7"></path><path d="M51.92,454.12c4.34-8.86,21-45,24.63-54.1,0-.08,0-.1,0,0-4.5,8.69-20.88,45-24.73,54.06C51.69,454.24,51.83,454.31,51.92,454.12Z" style="fill:#263238"></path><path d="M61.44,453a7.91,7.91,0,0,0,.27-6.37,7.64,7.64,0,0,0-3.86-4.2c-.05,0-.1.07-.05.1A9.16,9.16,0,0,1,61.32,453,.07.07,0,0,0,61.44,453Z" style="fill:#263238"></path><path d="M76.62,441c1.7-3.56,2.35-8.3.44-11.88-.07-.14-.27,0-.26.1a54,54,0,0,1-.65,11.64A.25.25,0,0,0,76.62,441Z" style="fill:#263238"></path><path d="M74.27,443.32c1.7-3.57,2.35-8.31.44-11.89-.08-.14-.27,0-.27.1a54.67,54.67,0,0,1-.64,11.64A.25.25,0,0,0,74.27,443.32Z" style="fill:#263238"></path><path d="M71.92,445.59c1.7-3.57,2.34-8.31.43-11.89-.07-.13-.27,0-.26.1a54.77,54.77,0,0,1-.64,11.65A.25.25,0,0,0,71.92,445.59Z" style="fill:#263238"></path><path d="M69.56,447.86c1.7-3.56,2.35-8.3.44-11.88-.07-.14-.27,0-.26.1a54,54,0,0,1-.65,11.64A.25.25,0,0,0,69.56,447.86Z" style="fill:#263238"></path><path d="M84,406.21c1.83-4-4.43-6.89-6.27-2.86S82.17,410.25,84,406.21Z" style="fill:#263238"></path><path d="M84.41,449.32c2.34-1.12,1.93-4.09.88-5.92a20.72,20.72,0,0,0-7.68-7.48.1.1,0,0,0-.15.06c-.29,0-.65.16-.59.51.59,3.37.81,7,2.42,10.13C80.23,448.42,82.2,450.38,84.41,449.32Zm-5.6-7.91c-.33-1.64-.58-3.3-1-4.94,1.49,1.47,3,2.86,4.39,4.47A22.41,22.41,0,0,1,84,443.36c.83,1.33,2.21,6.23-1.86,4.79C79.94,447.36,79.21,443.38,78.81,441.41Z" style="fill:#263238"></path><path d="M80.38,426.39c-1.92,2.91-2.51,6.54-3.44,9.82-.1.35.23.58.53.57,0,.07.07.12.14.08A20.71,20.71,0,0,0,86,430.21c1.23-1.72,2-4.62-.26-6S81.5,424.7,80.38,426.39Zm3-1.22c4.19-1,2.32,3.72,1.36,4.95a22.75,22.75,0,0,1-2.06,2.22,61.07,61.07,0,0,1-4.82,4c.56-1.58,1-3.2,1.47-4.81C80,429.61,81.11,425.72,83.42,425.17Z" style="fill:#263238"></path><path d="M171.21,301.6s-.66,20.72-3.77,30.93c0,0-3.39,1.78-4.4,2.42,0,0,29.74,61.64,28.28,85.36-.49,7.77-8.76,17.61-17.65,23.15-15.74,9.79-88.11,4.14-88.11,4.14l11.15-46.19s43.58,2.7,44.81.07c1.55-3.33-8.12-29.26-15.84-50.33-.78-2.12-8.55-10-7.65-24.18a73.49,73.49,0,0,1,6.69-25.37Z" style="fill:#37474f"></path><path d="M105.57,406.54c10.6-.19,19.24.71,29.84.71h7a11.71,11.71,0,0,0,2.77-.25,3.45,3.45,0,0,0,2.13-1.27c.7-1.05.33-2.38.08-3.52q-.79-3.74-1.79-7.43c-2.67-10-6.15-19.79-9.43-29.61L131.1,350c-.41-1.23-.82-2.46-1.34-3.65a32.09,32.09,0,0,0-1.67-3.18,29.76,29.76,0,0,1-2.88-6.25c-2.86-9.42-.11-19.17,3.25-28.06.45-1.19.91-2.38,1.4-3.56,0-.08.16-.05.13,0-3.05,9.39-6.69,19.15-4.64,29.16a24.09,24.09,0,0,0,2.44,6.74c.59,1.08,1.23,2.12,1.81,3.2a26.48,26.48,0,0,1,1.47,3.42c1.8,5,3.39,10,5.07,15,3.35,10,6.87,19.92,9.66,30.06q1,3.8,1.91,7.63c.42,1.88,1.36,4.45-.28,6-1.2,1.14-3.1,1.28-4.67,1.29-2.64,0-5.28,0-7.92,0-10.75,0-27.94-.93-29.28-1C105.33,406.91,105.34,406.55,105.57,406.54Z" style="fill:#263238"></path><path d="M93.72,445.45c1-5.39,2-10.81,3.23-16.18s2.49-10.74,3.88-16.07c.4-1.5.8-3,1.21-4.51.19-.72.38-1.43.59-2.14a18,18,0,0,1,.66-2.16c0-.07.14,0,.13.05a30.94,30.94,0,0,1-.73,4.14c-.27,1.3-.52,2.6-.79,3.9-.55,2.68-1.11,5.35-1.7,8-1.17,5.36-2.5,10.66-3.86,16q-1.16,4.53-2.34,9A.14.14,0,0,1,93.72,445.45Z" style="fill:#263238"></path><path d="M180.72,376.53,128,357.37c-.77-2.1-1.54-4.18-2.28-6.22s-8.55-10-7.65-24.18a73.6,73.6,0,0,1,6.68-25.37h46.5s-.66,20.72-3.77,30.92c0,0-3.39,1.79-4.4,2.43C163,335,173,356,180.72,376.53Z" style="fill:#263238"></path><path d="M265.4,456.12c-2,.62-60.3-1.31-62.47-2.79-.84-.55-1.05-9.05-1-19.34v-.32c0-2.12.92-37.65.92-37.65l40.77,1.23-4.1,37.25,0,.63s22,10.71,24.18,12.59S267.46,455.51,265.4,456.12Z" style="fill:#d3766a"></path><path d="M265.4,456.13c-2,.61-60.3-1.32-62.47-2.8-.83-.55-1.05-9.05-1-19.33v-.33c0-.58,0-3.46.17-7.83l38.21,1.47-.78,7.18,0,.64s22,10.72,24.18,12.59S267.46,455.51,265.4,456.13Z" style="fill:#ebebeb"></path><path d="M265.85,456.37c-2.08.62-60.9-1.34-63.1-2.83-.83-.56-1.05-9.14-1-19.52l37.93,1.15s22.18,10.83,24.41,12.72S267.92,455.76,265.85,456.37Z" style="fill:#c7c7c7"></path><path d="M265.08,454c-9.85-.57-49.64-1.94-59.42-1.75-.08,0-.08.05,0,.06,9.75.78,49.55,1.83,59.42,1.86C265.28,454.16,265.29,454,265.08,454Z" style="fill:#263238"></path><path d="M260.37,445.65a7.93,7.93,0,0,0-6,2.21,7.68,7.68,0,0,0-2.38,5.19c0,.06.11.06.12,0a9.17,9.17,0,0,1,8.24-7.28C260.44,445.77,260.45,445.65,260.37,445.65Z" style="fill:#263238"></path><path d="M243.46,436.28c-4-.19-8.57,1.06-11.13,4.2-.1.12.08.26.2.21a54.39,54.39,0,0,1,11-3.92A.25.25,0,0,0,243.46,436.28Z" style="fill:#263238"></path><path d="M246.46,437.57c-3.94-.19-8.56,1.05-11.12,4.2-.1.12.07.26.19.2a54.67,54.67,0,0,1,11-3.91A.25.25,0,0,0,246.46,437.57Z" style="fill:#263238"></path><path d="M249.47,438.86c-3.94-.19-8.57,1.05-11.13,4.2-.09.12.08.26.2.2a54.8,54.8,0,0,1,11-3.91A.25.25,0,0,0,249.47,438.86Z" style="fill:#263238"></path><path d="M252.48,440.15c-3.95-.19-8.57,1.05-11.13,4.2-.1.12.08.26.2.2a54.58,54.58,0,0,1,11-3.91A.25.25,0,0,0,252.48,440.15Z" style="fill:#263238"></path><path d="M208.48,443c-4.43-.14-4.64,6.74-.21,6.88S212.92,443.09,208.48,443Z" style="fill:#263238"></path><path d="M248.07,425.89c-1.94-1.72-4.51-.19-5.8,1.49a20.66,20.66,0,0,0-3.92,10c0,.08.05.11.12.11a.47.47,0,0,0,.7.34c2.87-1.85,6.17-3.47,8.4-6.14C248.86,430.1,249.91,427.52,248.07,425.89ZM243,434.12c-1.39.94-2.82,1.81-4.18,2.81.77-1.94,1.46-3.91,2.42-5.77a22.11,22.11,0,0,1,1.53-2.62c.9-1.27,4.89-4.44,5.14-.14C248,430.78,244.61,433,243,434.12Z" style="fill:#263238"></path><path d="M228.5,438.49c3.41.64,7-.22,10.38-.63a.47.47,0,0,0,.32-.71.09.09,0,0,0,0-.16,20.69,20.69,0,0,0-9.38-5.17c-2.07-.47-5,0-5.42,2.55S226.5,438.12,228.5,438.49Zm-2.31-2.32c-2.56-3.48,2.53-3.58,4-3.17a21.87,21.87,0,0,1,2.84,1,62.14,62.14,0,0,1,5.55,2.9c-1.68.1-3.33.34-5,.5C231.62,437.63,227.6,438.08,226.19,436.17Z" style="fill:#263238"></path><path d="M242.84,431.65H197.22s8.13-62.09,5.42-66.15c-1.18-1.77-60.4,4.16-77.72-14.6-15.84-17.16.28-49.3.28-49.3h44.6s1,13.78,3.61,19.28c1.12,2.36,59.41-1,67.91,14.51C252.68,356.12,242.84,431.65,242.84,431.65Z" style="fill:#37474f"></path><path d="M202,423c5.15-.15,10.31-.35,15.46-.35s10.33.11,15.49.32c1.46.05,5.77.26,6.46.31a16.53,16.53,0,0,1,2.11.18c.07,0,0,.12,0,.14-1.12.19-12.79.32-15.36.33-5.13,0-10.25-.14-15.39-.32-2.91-.11-5.83-.21-8.74-.33C201.88,423.25,201.86,423,202,423Z" style="fill:#263238"></path><path d="M164.85,318.83q-.32-2.19-.57-4.38c-.4-3.33-.74-6.69-.84-10,0-.27.37-.24.4,0,.31,2.59.54,5.19.84,7.78s.51,5.18,1,7.72c.14.77.46,2,1.44,2.06,1.32,0,1.57-1.75,1.68-2.72a41.8,41.8,0,0,0,.13-7.25c-.14-2.76-.49-5.5-.79-8.24,0-.1.15-.12.17,0,1.14,5.32,2.22,10.91,1.28,16.36a3,3,0,0,1-1.77,2.57l0,0a.19.19,0,0,1,0,.09c0,.15,0,.3,0,.46a2.54,2.54,0,0,1,0,.39c0,.27,0,.54,0,.81a.2.2,0,0,1-.4,0,.17.17,0,0,1-.14-.13,4.42,4.42,0,0,1,0-1.58,1.93,1.93,0,0,1-1.62-.87A6.77,6.77,0,0,1,164.85,318.83Z" style="fill:#263238"></path><path d="M172.78,320.23a79,79,0,0,0-10.46,8.6c-.12.12,0,.33.18.22,3.56-2.75,7.22-5.45,10.62-8.4A.27.27,0,0,0,172.78,320.23Z" style="fill:#263238"></path><path d="M132.7,323.07a20.56,20.56,0,0,0,3.14-.24,26,26,0,0,0,2.73-.7c1.68-.49,3.73-1.08,5-2.41a17.9,17.9,0,0,0,2.82-4.86,19.58,19.58,0,0,0,1.65-5.79c0-.09.15-.09.14,0a28.89,28.89,0,0,1-1,6.13,18.62,18.62,0,0,1-1.15,2.9,10.41,10.41,0,0,1-1.62,2.6,10.25,10.25,0,0,1-5.49,2.56,16.89,16.89,0,0,1-6.18,0C132.53,323.28,132.58,323.07,132.7,323.07Z" style="fill:#263238"></path><path d="M207.56,362.57a2.66,2.66,0,0,0-2.23-2.12,21.69,21.69,0,0,0-4-.08c-3,0-6.07.06-9.11.07-12,0-24-.31-35.82-2.67a83.06,83.06,0,0,1-16.74-5.06c-4.57-2-9.14-4.68-12-8.89-3.28-4.83-3.54-11.16-3.42-16.82a64.43,64.43,0,0,1,2.93-18c.46-1.48,1-2.94,1.57-4.38,0-.09-.09-.17-.13-.07a62,62,0,0,0-4.75,17.37,61.27,61.27,0,0,0-.41,8.88,34.33,34.33,0,0,0,1.13,8.62c3.1,10.59,15,15,24.56,17.65,11.55,3.24,23.6,4.14,35.54,4.32,6,.09,12,0,18-.08,1.15,0,3-.34,3.72.86a6.76,6.76,0,0,1,.53,2.18c.14.85.23,1.7.29,2.55a71.24,71.24,0,0,1-.13,9.58q-.57,9.72-1.34,19.43c-.52,6.51-1.24,13-1.72,19.52-.11,1.59-.27,3.18-.42,4.78,0,.18.3.21.32,0,1.67-12.87,2.86-25.78,3.71-38.73.21-3.2.44-6.4.53-9.61A34.7,34.7,0,0,0,207.56,362.57Z" style="fill:#263238"></path><path d="M178.35,365a100.3,100.3,0,0,1-12.11-.88c-3.78-.48-7.56-1-11.32-1.63-6.53-1.12-13.22-2.35-19.39-4.84a34,34,0,0,1-9.35-5.42c-.08-.06-.18,0-.11.11,4.68,4.54,10.6,7.2,16.82,8.9A137.34,137.34,0,0,0,164.67,365a118.06,118.06,0,0,0,13.69.4A.23.23,0,0,0,178.35,365Z" style="fill:#263238"></path><path d="M162.06,221.26c1.19,1.06,9.28-1.56,10.26-8.3s-6.34-10.87-11-5.06C158.29,211.58,159.54,219,162.06,221.26Z" style="fill:#263238"></path><path d="M169.18,205.91a9.42,9.42,0,0,0-6.18-.35,5.67,5.67,0,0,0-4,4,11.48,11.48,0,0,0,.17,6.09,17.22,17.22,0,0,0,1.12,3,8.7,8.7,0,0,0,1.78,2.65,7.7,7.7,0,0,1-2.29-2.36,14.11,14.11,0,0,1-1.5-3,11.08,11.08,0,0,1-.43-6.7,6.32,6.32,0,0,1,4.93-4.56A8.26,8.26,0,0,1,169.18,205.91Z" style="fill:#263238"></path><path d="M154.28,254.8c.16,1,4.26,7.37,8.58,7.45,1.41,0,1.88-7.65,1.88-7.65l.17-.56,2.29-7.83-8.94-6.6-1.29-.88s-.49,2.19-1.07,4.91c0,.13-.05.25-.08.39s-.07.3-.1.44c-.09.41-.19.82-.27,1.24s-.13.62-.18.95-.12.66-.19,1A53.26,53.26,0,0,0,154.28,254.8Z" style="fill:#d3766a"></path><path d="M155.9,243.64a16.37,16.37,0,0,0,9,10.4l2.29-7.83-8.94-6.6-1.29-.88S156.48,240.92,155.9,243.64Z" style="fill:#263238"></path><path d="M177.39,230.8c4.81,13.49-2.64,18-5.63,18.92-2.68.82-11.75,3.8-17.93-9.11s-1.43-19.41,4.5-21.88S172.58,217.32,177.39,230.8Z" style="fill:#d3766a"></path><path d="M175.34,228a8.33,8.33,0,0,1-1,.11,1.62,1.62,0,0,1-1-.07.51.51,0,0,1-.2-.59,1.26,1.26,0,0,1,1.09-.68,1.88,1.88,0,0,1,1.31.25A.55.55,0,0,1,175.34,228Z" style="fill:#263238"></path><path d="M166.74,231.4a8,8,0,0,0,.85-.51,1.54,1.54,0,0,0,.77-.67.5.5,0,0,0-.2-.59,1.24,1.24,0,0,0-1.27.12,1.8,1.8,0,0,0-.89,1A.54.54,0,0,0,166.74,231.4Z" style="fill:#263238"></path><path d="M169.87,234.06s-.06.07,0,.11c.36.9.63,2-.09,2.6,0,0,0,.07,0,0C170.72,236.31,170.36,234.86,169.87,234.06Z" style="fill:#263238"></path><path d="M168.7,233.4c-1.51.43-.55,3.42.85,3S170,233,168.7,233.4Z" style="fill:#263238"></path><path d="M168.17,233.75c-.21.25-.37.63-.68.77s-.73-.08-1.06-.3c0,0-.05,0,0,.05.17.58.58,1.09,1.23,1s.82-.74.78-1.36C168.39,233.77,168.25,233.65,168.17,233.75Z" style="fill:#263238"></path><path d="M174.69,231.94s.09,0,.1.06c.26.94.72,2,1.66,2,0,0,0,0,0,0C175.38,234.25,174.79,232.87,174.69,231.94Z" style="fill:#263238"></path><path d="M175.22,230.71c1.46-.58,2.51,2.38,1.16,2.92S174,231.2,175.22,230.71Z" style="fill:#263238"></path><path d="M175.91,230.68c.29.08.62.28.91.2s.45-.5.55-.88c0,0,0,0,.06,0,.22.56.24,1.22-.27,1.52s-1-.08-1.33-.59C175.77,230.84,175.79,230.65,175.91,230.68Z" style="fill:#263238"></path><path d="M172.16,241.23a1.42,1.42,0,0,0,.94.33,2.47,2.47,0,0,0,.94-.51,0,0,0,0,1,.06,0,1.34,1.34,0,0,1-1.06.84,1,1,0,0,1-1-.64S172.11,241.2,172.16,241.23Z" style="fill:#263238"></path><path d="M174.9,236.59a20.72,20.72,0,0,1,.87,2c0,.06-.12.15-.34.23,0,0,0,0,0,0a3.23,3.23,0,0,1-3.39-.15c-.07-.05,0-.14.07-.12a4.91,4.91,0,0,0,3.1-.14c0-.19-1.2-2.22-1.1-2.26a6.08,6.08,0,0,1,1.59-.16c-1.27-2.78-3-5.33-4.22-8.12a.1.1,0,0,1,.16-.1,50.31,50.31,0,0,1,4.92,8.56C176.71,236.66,175.2,236.62,174.9,236.59Z" style="fill:#263238"></path><path d="M175.21,238.31a4,4,0,0,1-.93,1.8,1.77,1.77,0,0,1-1,.52c-.8.15-1.12-.5-1.25-1.12a4.56,4.56,0,0,1-.09-1A5.19,5.19,0,0,0,175.21,238.31Z" style="fill:#263238"></path><path d="M174.28,240.11a1.77,1.77,0,0,1-1,.52c-.8.15-1.12-.5-1.25-1.12A1.84,1.84,0,0,1,174.28,240.11Z" style="fill:#ff99ba"></path><path d="M154.26,240.62c1.47-.54,4.13-5.85,2.06-13.13,0,0,1.41,6.67,1.21,7.77s1.48-3-.11-8.88a24.66,24.66,0,0,0,6.93,1.3c3-.06,4.68-.6,4.81-.86s-4.31-.31-5.79-1.24c0,0,8.37,1.19,11.83.43.4-.09-1.56-8.28-7.82-10.11s-13.43,4.35-15,7.18c0,0-2.5,1.16-4.18,5.89S152.67,241.2,154.26,240.62Z" style="fill:#263238"></path><path d="M156.63,240s-4.59-2.95-6-1.15,3.18,6.9,5.72,6.82a2.43,2.43,0,0,0,2.51-2.44Z" style="fill:#d3766a"></path><path d="M152,240.26s0,.06,0,.06a6.16,6.16,0,0,1,4.38,2.34,1.34,1.34,0,0,0-2,.43s0,.09.08.06a1.49,1.49,0,0,1,1.71-.14,6.86,6.86,0,0,1,1.23.93c.13.11.35-.07.23-.21l0,0C156.81,241.72,154.15,239.59,152,240.26Z" style="fill:#263238"></path><path d="M173.24,296.67l-1.84,13.89H121.05s11.22-41.59,25.89-53.71c7.34-6.06,14.77-4.51,18.88,1,1,1.39,12.11,19.11,12.63,26.6C178.9,291.06,173.24,296.67,173.24,296.67Z" style="fill:#96D9AB"></path><path d="M162.28,254.58H150.33c.3-.16.61-.31.9-.44h10.22A6.59,6.59,0,0,1,162.28,254.58Zm2.84,2.4H146.79c-.18.14-.34.29-.51.44h19.2Zm2,2.84h-23.2c-.14.15-.28.3-.41.46h23.9Zm1.74,2.86H141.59l-.33.44h27.85C169,263,168.94,262.82,168.85,262.68Zm1.64,2.84H139.61c-.1.15-.18.3-.28.44h31.41Zm1.58,2.84H137.85l-.27.46h34.73Zm1.5,2.86H136.24l-.24.44h37.78C173.72,271.51,173.64,271.37,173.57,271.22Zm1.39,2.84h-40.2l-.23.44h40.64Zm1.27,2.84H133.35c-.07.15-.14.3-.2.46h43.27Zm1.11,2.86H132l-.2.44h45.65Zm.83,2.84H130.8l-.19.45h47.65C178.24,282.9,178.2,282.75,178.17,282.6Zm-48.56,2.84c-.06.16-.13.31-.19.46h49a3.46,3.46,0,0,0,0-.46Zm-1.13,2.86c-.06.15-.12.29-.17.44H178a3.6,3.6,0,0,0,.12-.44Zm-1.08,2.84c-.06.15-.12.3-.17.45h49.6c.06-.15.14-.3.21-.45ZM126.35,294c-.06.16-.11.31-.16.46h48.9l.31-.46Zm-1,2.86-.15.44h48l.06-.44Zm-1,2.84-.15.45h48.54l.06-.45Zm-.93,2.85-.15.45H172.4l.06-.45Zm-.89,2.85c0,.15-.1.29-.14.44H172l.06-.44Zm-.86,2.84c0,.16-.09.31-.13.45h50.07l0-.45Z" style="opacity:0.11"></path><path d="M157.66,266.34c5.68,7.47,29.44,31,38.3,29.8,13.88-1.92,28.18-9.55,36.12-13.51,2.52-1.26-10.38-25.33-14.94-22.36-5.9,3.83-18.19,9.59-21.81,10.33-2.47.51-19.42-8.09-31.25-14C154.21,251.7,150.47,256.87,157.66,266.34Z" style="fill:#d3766a"></path><path d="M213.11,263.17s3.77-2.73,4-2.9a16.31,16.31,0,0,0,3.34-3.44c3.92-4.82,16.54-14.07,33.18-8.75,6.37,2,7.73,7.39.73,6.45-4.93-.66-8.28-1.54-9.95-1.3,0,0,5.27,5.49,4.45,9.82a80.61,80.61,0,0,1-3,11.17,17.69,17.69,0,0,1-2.14-.37,9.28,9.28,0,0,1-7.34,6.61L230,283.68Z" style="fill:#d3766a"></path><path d="M225,252.83c3.21-.56,10-1.62,15.92-.55,6.53,1.2,18.8,5.25,17.87,10.07-.69,3.53-5.5,2.39-5.5,2.39s4.71,2.75,3.4,5.8c-1.2,2.78-4.87,1.68-4.87,1.68s2.57,2.16.9,4.62c-2,3-7.07-2-11.69-.82C239.94,276.3,225,252.83,225,252.83Z" style="fill:#d3766a"></path><path d="M238.46,259a26.42,26.42,0,0,1,14.73,5.63c.11.09.09.21,0,.15A65.29,65.29,0,0,0,238.45,259S238.42,259,238.46,259Z" style="fill:#263238"></path><path d="M237.44,265.61c2.68.25,9.89,2.38,14.38,6.5.1.09.08.22,0,.15a69.7,69.7,0,0,0-14.36-6.59S237.41,265.6,237.44,265.61Z" style="fill:#263238"></path><path d="M188.54,268l-8.17,23.28s-15.59-14.38-23.48-24.43-4-15.33,7.33-11.23S188.54,268,188.54,268Z" style="fill:#96D9AB"></path><path d="M188.54,268l-8.17,23.28s-15.59-14.38-23.48-24.43-4-15.33,7.33-11.23S188.54,268,188.54,268Z" style="opacity:0.11"></path><path d="M183.39,267c-.26.8-.65,1.56-1,2.33s-.62,1.57-.92,2.36q-.85,2.28-1.74,4.56c-1.19,3.08-2.45,6.12-3.48,9.28,0,.05.06.09.09.05a80.59,80.59,0,0,0,3.93-9c.59-1.55,1.16-3.1,1.71-4.67.28-.79.55-1.59.79-2.4s.42-1.66.7-2.45C183.53,267,183.42,267,183.39,267Z" style="fill:#263238"></path><path d="M151.65,227.28c0,1.6-7.27,6-13,2.3s-4-11.91,3.42-11.66C146.81,218.08,151.59,223.89,151.65,227.28Z" style="fill:#263238"></path><path d="M135.39,222.59a9.38,9.38,0,0,1,3.79-4.9,5.66,5.66,0,0,1,5.64-.41,11.44,11.44,0,0,1,4.49,4.12,17,17,0,0,1,1.5,2.79,8.72,8.72,0,0,1,.84,3.09,7.77,7.77,0,0,0-.28-3.28,14.25,14.25,0,0,0-1.26-3.08,11,11,0,0,0-4.79-4.72,6.61,6.61,0,0,0-3.46-.6,6.7,6.7,0,0,0-3.21,1.33A8.3,8.3,0,0,0,135.39,222.59Z" style="fill:#263238"></path></g><g id="freepik--speech-bubbles--inject-2"><path d="M627.63,94.84a11.92,11.92,0,0,0,2-6.6c0-8.36-9.18-15.14-20.5-15.14s-20.5,6.78-20.5,15.14,9.17,15.15,20.5,15.15a24.61,24.61,0,0,0,14.14-4.19l7.06,1.79Z" style="fill:#fffefd"></path><path d="M627.63,94.84a12.22,12.22,0,0,0,1.92-6.24,11.77,11.77,0,0,0-1.74-6.24,18.59,18.59,0,0,0-10.35-7.59A27.28,27.28,0,0,0,604.52,74,21.43,21.43,0,0,0,593,79.61a13.13,13.13,0,0,0-3.34,5.4,10.72,10.72,0,0,0-.09,6.27,13.09,13.09,0,0,0,3.26,5.45,19,19,0,0,0,5.25,3.76,23.34,23.34,0,0,0,6.2,2,26.86,26.86,0,0,0,6.52.46,24.09,24.09,0,0,0,12.36-4l.09-.06.1,0,7,1.9-.14.17Zm0,0,2.85,6.1.11.23-.25-.06-7.09-1.69.19,0a24.33,24.33,0,0,1-12.58,4.31,26.47,26.47,0,0,1-13.14-2.4,19.83,19.83,0,0,1-5.53-3.91,14.27,14.27,0,0,1-3.53-5.83,11.8,11.8,0,0,1,.06-6.84,14.43,14.43,0,0,1,3.62-5.78,22.29,22.29,0,0,1,12-5.84,27.63,27.63,0,0,1,6.73-.33,28,28,0,0,1,6.6,1.35,21.66,21.66,0,0,1,6,3.07,16.12,16.12,0,0,1,4.52,5,11.69,11.69,0,0,1-.55,12.7Z" style="fill:#263238"></path><path d="M601.79,88.24a2.13,2.13,0,1,1-2.12-2.13A2.12,2.12,0,0,1,601.79,88.24Z" style="fill:#263238"></path><path d="M611.29,88.24a2.13,2.13,0,1,1-2.12-2.13A2.12,2.12,0,0,1,611.29,88.24Z" style="fill:#263238"></path><path d="M620.8,88.24a2.13,2.13,0,1,1-2.13-2.13A2.13,2.13,0,0,1,620.8,88.24Z" style="fill:#263238"></path><path d="M181.71,213.83a11.92,11.92,0,0,1-2-6.6c0-8.36,9.18-15.15,20.5-15.15s20.5,6.79,20.5,15.15-9.18,15.14-20.5,15.14A24.61,24.61,0,0,1,186,218.18L179,220Z" style="fill:#fffefd"></path><path d="M181.71,213.83a11.88,11.88,0,0,1-2.15-6.24,12.09,12.09,0,0,1,1.59-6.46,16.16,16.16,0,0,1,4.53-5,21.55,21.55,0,0,1,6-3.08,28,28,0,0,1,6.59-1.35,28.61,28.61,0,0,1,6.73.33,22.34,22.34,0,0,1,12,5.85,14.24,14.24,0,0,1,3.61,5.78,11.61,11.61,0,0,1,.06,6.83,14.08,14.08,0,0,1-3.52,5.83,19.83,19.83,0,0,1-5.53,3.91,26.37,26.37,0,0,1-13.14,2.41,24.42,24.42,0,0,1-12.58-4.31l.19,0L179,220.09l-.25.06.11-.22Zm0,0-2.63,6.2-.14-.17,7-1.9.1,0,.09.06a24,24,0,0,0,12.36,4,27.93,27.93,0,0,0,6.52-.46,23.7,23.7,0,0,0,6.2-2,19,19,0,0,0,5.25-3.76,13.26,13.26,0,0,0,3.26-5.45,10.83,10.83,0,0,0-.09-6.28,13.16,13.16,0,0,0-3.34-5.39,21.29,21.29,0,0,0-11.5-5.66,27.33,27.33,0,0,0-12.95.82,18.55,18.55,0,0,0-10.34,7.59,11.68,11.68,0,0,0-1.74,6.23A12.23,12.23,0,0,0,181.71,213.83Z" style="fill:#263238"></path><path d="M207.55,207.23a2.13,2.13,0,1,0,2.12-2.13A2.12,2.12,0,0,0,207.55,207.23Z" style="fill:#263238"></path><path d="M198,207.23a2.13,2.13,0,1,0,2.13-2.13A2.13,2.13,0,0,0,198,207.23Z" style="fill:#263238"></path><path d="M188.54,207.23a2.13,2.13,0,1,0,2.13-2.13A2.12,2.12,0,0,0,188.54,207.23Z" style="fill:#263238"></path></g></svg>