<svg xmlns="http://www.w3.org/2000/svg" version="1.1" xmlns:xlink="http://www.w3.org/1999/xlink" xmlns:svgjs="http://svgjs.com/svgjs" width="107.73" height="137.53"><svg xmlns="http://www.w3.org/2000/svg" viewBox="0 0 107.73 137.53"><g data-name="Capa 2"><path d="M107.72 94.66q0-24-.11-47.9a14.72 14.72 0 0 0-6.34-12.65 42.94 42.94 0 0 0-5.71-3.36c-1.19-.6-1.71-1.21-1.25-2.57C97 20.23 97.09 12 97 3.72 97 .94 96 0 93.26 0c-4 0-7.94 0-11.9.1C71.85.49 62.94 2.8 55 8.34a2.93 2.93 0 0 1-2.63-.25 41.75 41.75 0 0 0-17.3-6.81C28.14.26 21 .3 14 .07c-2.28-.08-3.06 1.7-3 3.76.26 8.7 0 17.48 3.48 26.1-1.25.56-2.26 1-3.24 1.46C4 34.91 0 40.63 0 48.8q0 26.69.06 53.38A33.69 33.69 0 0 0 .85 108c1.32 7 5.68 11.46 11.93 14.39 6.66 3.13 13.4 6.11 19.91 9.53 8.08 4.23 16.52 6.35 25.61 5.42 2.65-.27 5.47-.47 7.85-1.52C76.84 131 87.52 126.2 98 120.94a16.89 16.89 0 0 0 9.66-15.32c.09-3.62.07-7.31.06-10.96zM73.7 9.18c4.25-.76 8.65-.7 13-1.06 1.54-.12 1.85.63 1.84 2-.1 10.88-2.7 20.88-9.76 29.34-2.13 2.55-5 4.47-7.43 6.77l-.2-.08a53.57 53.57 0 0 0-13-30A36.14 36.14 0 0 1 73.7 9.18zm-6.62 39c1-.58-1.39.72-2.77 1.25a23.86 23.86 0 0 1-5.57.89 14.27 14.27 0 0 1-.55-4.05c0-1.14 0-1.71 1.6-2.92s5.47-2 6.12-3.92a7.46 7.46 0 0 0 .31-2l1 2.44c.58 1.77 2.06 6.93.79 7.73zM21.54 8.1a42.16 42.16 0 0 1 26.11 7.2c5.94 4 17.74 19.16 15.51 18.38-1.34-.47-2.92 1-4.79 1.56-.55-3.22-2-4.87-4.29-4.88s-3.69 1.57-4.33 5c-1-.58-2-1.19-3.08-1.66a4.63 4.63 0 0 0-5.81 1.76c-1.12 1.91-.51 4.07 1.67 5.5a27.87 27.87 0 0 0 3.94 2.16c3 1.37 4.25 3.54 3.08 7.14-1.84-.39-3.84-.66-5.74-1.26-10.48-3.3-17.32-10.42-21.32-20.49a53.05 53.05 0 0 1-3.34-17.89c-.07-1.83.46-2.43 2.39-2.52zM17.67 38C25.79 51.87 38.11 58.84 54 59.07c16.09.23 28-7.4 36.39-20.88 7.51 2 9.23 4.8 8.93 10.54-.15 2.77 0 5.56 0 8.34a6.75 6.75 0 0 1-4.09 6.64c-9.8 4.57-19.62 9.13-29.38 13.79-3.33 1.59-6.79 1.75-10.37 2a32.46 32.46 0 0 1-17.59-3.8c-8-4.2-16.28-7.75-24.46-11.55C10.68 62.87 9 60.93 9 57.73c0-2.85 0-5.71-.06-8.57C8.89 42 10.57 39.87 17.67 38zM9 75.87c.15-3.05 1.6-3.88 4.4-2.55 7.14 3.39 14.5 6.4 21.34 10.32 8.63 5 17.91 5.19 27.18 4.37 4.28-.37 8.41-3 12.5-4.87 7-3.17 13.86-6.57 20.82-9.78 2.37-1.1 3.94-.09 4 2.47.09 2.3.07 4.61 0 6.91a6.09 6.09 0 0 1-3.67 5.65c-3.29 1.55-6.61 3-9.9 4.56-6 2.83-12.1 5.48-18 8.61a25.53 25.53 0 0 1-14.1 3 23.08 23.08 0 0 1-13.32-2.74q-13.08-6.55-26.47-12.67c-3.41-1.56-5-3.86-4.84-7.57.06-1.9-.04-3.81.06-5.71zM91.11 115c-7.78 3.54-15.47 7.28-23.11 11.11-4.5 2.26-9 4-14.19 2.86-5.69.9-10.58-1.38-15.53-3.89-7.55-3.81-15.23-7.38-22.94-10.87-4.11-1.86-6.55-4.57-6.29-9.28.08-1.35 0-2.7 0-4.05.18-3 1.77-3.92 4.48-2.63 9.35 4.47 18.66 9 28.06 13.39a17.09 17.09 0 0 0 6.33 1.7c8.31.3 16.47.37 24.16-4.17 7-4.13 14.63-7.19 22-10.72 3.38-1.62 5.11-.58 5.26 3.19v.48c.2 8.54-.47 9.36-8.23 12.88z" data-name="Capa 1"></path></g></svg><style>

</style></svg>