<svg width="108" height="138" viewBox="0 0 108 138" fill="none" xmlns="http://www.w3.org/2000/svg">
    <style>
        path {
            fill: #000;
        }
        @media (prefers-color-scheme: dark) {
            path {
                fill: #fff;
            }
        }
    </style>
<g clip-path="url(#clip0_708_3)">
<g clip-path="url(#clip1_708_3)">
<path d="M107.72 94.66C107.72 78.66 107.683 62.6933 107.61 46.76C107.701 44.2886 107.168 41.8342 106.06 39.6232C104.952 37.4123 103.304 35.5162 101.27 34.11C99.456 32.8446 97.547 31.7213 95.56 30.75C94.37 30.15 93.85 29.54 94.31 28.18C97 20.23 97.09 12 97 3.72C97 0.94 96 0 93.26 0C89.26 0 85.32 0 81.36 0.1C71.85 0.49 62.94 2.8 55 8.34C54.5727 8.50718 54.112 8.57166 53.6552 8.52824C53.1984 8.48482 52.7582 8.33471 52.37 8.09C47.1885 4.54853 41.2752 2.22082 35.07 1.28C28.14 0.26 21 0.3 14 0.07C11.72 -0.01 10.94 1.77 11 3.83C11.26 12.53 11 21.31 14.48 29.93C13.23 30.49 12.22 30.93 11.24 31.39C4 34.91 0 40.63 0 48.8C0 66.5933 0.02 84.3867 0.06 102.18C0.153403 104.139 0.417741 106.087 0.85 108C2.17 115 6.53 119.46 12.78 122.39C19.44 125.52 26.18 128.5 32.69 131.92C40.77 136.15 49.21 138.27 58.3 137.34C60.95 137.07 63.77 136.87 66.15 135.82C76.84 131 87.52 126.2 98 120.94C100.899 119.567 103.346 117.397 105.057 114.684C106.768 111.971 107.671 108.827 107.66 105.62C107.75 102 107.73 98.31 107.72 94.66ZM73.7 9.18C77.95 8.42 82.35 8.48 86.7 8.12C88.24 8 88.55 8.75 88.54 10.12C88.44 21 85.84 31 78.78 39.46C76.65 42.01 73.78 43.93 71.35 46.23L71.15 46.15C70.0488 35.0396 65.5037 24.551 58.15 16.15C62.7037 12.6204 68.0352 10.2306 73.7 9.18ZM67.08 48.18C68.08 47.6 65.69 48.9 64.31 49.43C62.4951 49.9459 60.6253 50.2446 58.74 50.32C58.3633 49.0034 58.178 47.6394 58.19 46.27C58.19 45.13 58.19 44.56 59.79 43.35C61.39 42.14 65.26 41.35 65.91 39.43C66.1037 38.7805 66.208 38.1077 66.22 37.43L67.22 39.87C67.8 41.64 69.28 46.8 68.01 47.6L67.08 48.18ZM21.54 8.1C30.7983 7.56298 39.9754 10.0936 47.65 15.3C53.59 19.3 65.39 34.46 63.16 33.68C61.82 33.21 60.24 34.68 58.37 35.24C57.82 32.02 56.37 30.37 54.08 30.36C51.79 30.35 50.39 31.93 49.75 35.36C48.75 34.78 47.75 34.17 46.67 33.7C45.652 33.2444 44.5037 33.1716 43.4363 33.4949C42.3689 33.8183 41.454 34.516 40.86 35.46C39.74 37.37 40.35 39.53 42.53 40.96C43.7831 41.7849 45.1007 42.5072 46.47 43.12C49.47 44.49 50.72 46.66 49.55 50.26C47.71 49.87 45.71 49.6 43.81 49C33.33 45.7 26.49 38.58 22.49 28.51C20.3545 22.7836 19.2245 16.7312 19.15 10.62C19.08 8.79 19.61 8.19 21.54 8.1ZM17.67 38C25.79 51.87 38.11 58.84 54 59.07C70.09 59.3 82 51.67 90.39 38.19C97.9 40.19 99.62 42.99 99.32 48.73C99.17 51.5 99.32 54.29 99.32 57.07C99.4091 58.4639 99.0635 59.8512 98.3309 61.0404C97.5984 62.2297 96.515 63.1624 95.23 63.71C85.43 68.28 75.61 72.84 65.85 77.5C62.52 79.09 59.06 79.25 55.48 79.5C49.3757 79.9164 43.278 78.5991 37.89 75.7C29.89 71.5 21.61 67.95 13.43 64.15C10.68 62.87 9 60.93 9 57.73C9 54.88 9 52.02 8.94 49.16C8.89 42 10.57 39.87 17.67 38ZM9 75.87C9.15 72.82 10.6 71.99 13.4 73.32C20.54 76.71 27.9 79.72 34.74 83.64C43.37 88.64 52.65 88.83 61.92 88.01C66.2 87.64 70.33 85.01 74.42 83.14C81.42 79.97 88.28 76.57 95.24 73.36C97.61 72.26 99.18 73.27 99.24 75.83C99.33 78.13 99.31 80.44 99.24 82.74C99.2521 83.9384 98.9103 85.1137 98.2575 86.1187C97.6046 87.1238 96.6698 87.9138 95.57 88.39C92.28 89.94 88.96 91.39 85.67 92.95C79.67 95.78 73.57 98.43 67.67 101.56C63.3558 103.894 58.4606 104.935 53.57 104.56C48.9556 105.005 44.3141 104.05 40.25 101.82C31.53 97.4533 22.7067 93.23 13.78 89.15C10.37 87.59 8.78 85.29 8.94 81.58C9 79.68 8.9 77.77 9 75.87ZM91.11 115C83.33 118.54 75.64 122.28 68 126.11C63.5 128.37 59 130.11 53.81 128.97C48.12 129.87 43.23 127.59 38.28 125.08C30.73 121.27 23.05 117.7 15.34 114.21C11.23 112.35 8.79 109.64 9.05 104.93C9.13 103.58 9.05 102.23 9.05 100.88C9.23 97.88 10.82 96.96 13.53 98.25C22.88 102.72 32.19 107.25 41.59 111.64C43.5706 112.61 45.7201 113.187 47.92 113.34C56.23 113.64 64.39 113.71 72.08 109.17C79.08 105.04 86.71 101.98 94.08 98.45C97.46 96.83 99.19 97.87 99.34 101.64V102.12C99.54 110.66 98.87 111.48 91.11 115Z"/>
</g>
</g>
<defs>
<clipPath id="clip0_708_3">
<rect width="107.73" height="137.53" />
</clipPath>
<clipPath id="clip1_708_3">
<rect width="107.73" height="137.53" />
</clipPath>
</defs>
</svg>
