<?xml version="1.0" standalone="no"?>
<!DOCTYPE svg PUBLIC "-//W3C//DTD SVG 20010904//EN"
 "http://www.w3.org/TR/2001/REC-SVG-20010904/DTD/svg10.dtd">
<svg version="1.0" xmlns="http://www.w3.org/2000/svg"
 width="1787.000000pt" height="1787.000000pt" viewBox="0 0 1787.000000 1787.000000"
 preserveAspectRatio="xMidYMid meet">
<metadata>
Created by potrace 1.14, written by Peter Selinger 2001-2017
</metadata>
<g transform="translate(0.000000,1787.000000) scale(0.100000,-0.100000)"
fill="#000000" stroke="none">
<path d="M8716 15940 c-211 -24 -339 -63 -533 -159 -65 -32 -1315 -622 -2778
-1311 -1463 -689 -2690 -1272 -2727 -1297 -117 -77 -158 -140 -158 -241 0 -89
42 -165 154 -278 196 -197 555 -421 1202 -751 l111 -57 474 224 c261 123 566
267 679 320 501 237 1588 748 1940 912 212 99 545 260 740 358 195 98 396 194
447 214 199 77 370 106 628 106 263 0 504 -41 825 -140 144 -44 299 -116 2150
-995 1097 -521 2013 -954 2035 -962 l40 -15 463 231 c761 380 916 479 987 634
77 165 48 273 -107 404 -263 221 -692 488 -1243 773 -88 45 -200 104 -250 130
-249 132 -981 476 -1530 720 -980 436 -2220 942 -2561 1045 -378 115 -735 164
-988 135z"/>
<path d="M15960 14944 l0 -460 71 -11 c104 -16 191 -63 274 -147 161 -163 245
-400 296 -831 8 -70 14 -538 19 -1535 5 -789 10 -1448 14 -1465 3 -16 10 -82
16 -145 40 -400 142 -736 294 -964 59 -89 172 -203 248 -251 27 -17 48 -35 48
-40 0 -6 -29 -30 -64 -53 -250 -164 -424 -509 -501 -995 -48 -298 -48 -304
-55 -1822 -5 -945 -11 -1478 -19 -1550 -57 -560 -169 -823 -403 -941 -58 -29
-149 -54 -200 -54 l-38 0 0 -456 0 -456 78 7 c306 27 550 152 734 373 224 272
357 662 424 1242 15 126 18 335 24 1615 5 982 11 1505 19 1575 42 393 114 654
226 825 86 131 219 228 350 255 l55 11 0 415 0 414 -27 6 c-118 26 -193 64
-272 138 -180 170 -281 466 -332 971 -7 71 -14 623 -19 1555 -6 1260 -9 1464
-24 1590 -62 540 -167 884 -351 1161 -188 282 -467 447 -802 475 l-83 7 0
-459z"/>
<path d="M1910 15349 c-664 -85 -1054 -598 -1174 -1544 -36 -284 -39 -388 -46
-1810 -6 -1241 -9 -1435 -24 -1538 -84 -601 -272 -910 -596 -983 l-70 -16 0
-414 0 -414 28 -5 c128 -27 218 -69 300 -141 135 -118 245 -346 301 -620 55
-272 53 -218 61 -1774 5 -925 12 -1492 19 -1575 50 -575 161 -964 360 -1261
211 -317 514 -490 907 -521 l84 -6 0 451 0 451 -47 6 c-165 22 -270 71 -369
169 -112 112 -177 252 -223 482 -61 301 -70 565 -71 2029 0 700 -4 1216 -10
1300 -36 485 -143 866 -313 1120 -57 84 -200 224 -274 265 -36 20 -63 42 -63
51 0 9 27 33 62 54 286 177 477 561 557 1120 38 261 41 391 41 1590 0 1226 7
1534 39 1752 79 530 274 814 597 866 l74 12 0 457 0 458 -42 -1 c-24 -1 -72
-5 -108 -10z"/>
<path d="M15453 12747 c-18 -66 -89 -163 -167 -228 -121 -100 -316 -207 -1066
-583 -1014 -509 -1442 -713 -3140 -1499 -1338 -619 -1324 -612 -1442 -651
-311 -104 -662 -123 -1003 -55 -224 45 -367 95 -734 255 -1942 852 -2867 1274
-3711 1696 -652 326 -1056 553 -1335 751 -147 104 -291 240 -324 307 l-22 45
5 -395 c4 -217 9 -664 12 -994 l6 -598 35 -70 c44 -88 123 -169 233 -240 325
-211 1104 -596 3020 -1491 1002 -468 981 -458 1495 -702 259 -123 541 -253
629 -289 311 -130 618 -219 866 -252 263 -35 709 7 905 84 28 11 156 70 285
132 129 62 285 136 345 165 175 83 2427 1162 3080 1475 417 200 506 243 945
453 989 473 937 446 1012 524 20 21 46 58 57 83 19 44 20 79 27 1083 4 570 5
1037 3 1037 -3 0 -10 -19 -16 -43z"/>
<path d="M2496 8959 l6 -994 34 -72 c60 -126 148 -201 409 -350 418 -240 1020
-533 2795 -1363 837 -391 1333 -625 1710 -805 550 -263 890 -386 1245 -452 79
-14 148 -18 330 -18 306 1 502 29 670 95 60 24 1027 486 4590 2193 391 187
757 362 815 390 196 93 271 153 313 246 20 45 20 68 23 1066 3 905 2 1013 -11
958 -18 -80 -34 -110 -84 -160 -52 -51 -62 -57 -841 -431 -355 -170 -973 -468
-1375 -662 -1923 -928 -3282 -1572 -3452 -1636 -121 -45 -307 -90 -435 -105
-140 -16 -440 -6 -579 20 -120 22 -299 68 -404 104 -135 47 -1200 527 -1995
900 -1402 657 -3212 1556 -3445 1711 -133 89 -248 205 -294 298 l-31 62 6
-995z"/>
<path d="M2546 6743 c2 -126 6 -574 8 -996 l4 -769 32 -64 c41 -84 123 -172
224 -238 144 -96 471 -272 891 -481 535 -265 740 -362 2442 -1159 429 -201
972 -456 1205 -567 232 -110 484 -227 558 -259 353 -151 682 -248 960 -281
114 -14 409 -5 557 16 222 32 287 54 618 213 138 66 781 374 1430 685 649 310
1450 694 1780 852 330 158 920 440 1310 627 391 187 734 356 763 375 73 49
129 116 147 176 13 44 15 191 14 1051 -1 800 -3 990 -13 946 -16 -76 -58 -144
-114 -185 -26 -19 -245 -130 -487 -246 -242 -117 -892 -430 -1445 -697 -2248
-1083 -3526 -1690 -3703 -1756 -99 -37 -200 -64 -342 -93 -111 -22 -486 -25
-605 -5 -130 22 -296 62 -412 99 -244 77 -1695 740 -3118 1423 -609 293 -2206
1094 -2310 1159 -191 119 -309 231 -367 349 -14 28 -27 52 -28 52 -2 0 -1
-102 1 -227z"/>
</g>
</svg>
