<?xml version="1.0" standalone="no"?>
<!DOCTYPE svg PUBLIC "-//W3C//DTD SVG 20010904//EN"
 "http://www.w3.org/TR/2001/REC-SVG-20010904/DTD/svg10.dtd">
<svg version="1.0" xmlns="http://www.w3.org/2000/svg"
 width="1104.000000pt" height="1104.000000pt" viewBox="0 0 1104.000000 1104.000000"
 preserveAspectRatio="xMidYMid meet">
<metadata>
Created by potrace 1.14, written by Peter Selinger 2001-2017
</metadata>
<g transform="translate(0.000000,1104.000000) scale(0.100000,-0.100000)"
fill="#000000" stroke="none">
<path d="M2260 11028 c-25 -4 -46 -12 -48 -18 -2 -6 -7 -8 -12 -5 -12 7 -71
-56 -88 -95 -21 -51 -26 -91 -25 -225 1 -263 17 -744 28 -872 9 -113 17 -188
20 -211 2 -13 7 -53 10 -90 4 -37 9 -78 11 -92 3 -14 7 -38 10 -55 7 -47 25
-148 30 -170 3 -11 7 -33 10 -50 3 -16 13 -55 21 -85 8 -30 21 -77 28 -105 22
-81 37 -129 43 -140 4 -5 8 -17 9 -26 1 -9 7 -29 13 -45 6 -16 11 -29 10 -29
-1 0 6 -17 15 -39 9 -21 15 -39 13 -40 -2 -1 -32 -15 -68 -31 -112 -48 -303
-144 -360 -180 -30 -19 -65 -39 -77 -45 -13 -5 -23 -14 -23 -20 0 -5 -5 -10
-11 -10 -6 0 -16 -6 -23 -12 -8 -7 -24 -20 -36 -28 -22 -15 -42 -33 -116 -101
-42 -39 -133 -137 -149 -161 -114 -169 -124 -186 -188 -328 -18 -42 -62 -189
-73 -245 -4 -22 -9 -47 -10 -55 -16 -75 -19 -418 -19 -2380 1 -1996 3 -2320
19 -2420 2 -14 7 -47 11 -73 4 -27 9 -59 11 -70 3 -12 9 -42 14 -67 12 -60 16
-77 29 -130 7 -25 14 -56 17 -69 22 -102 135 -332 220 -448 52 -71 194 -220
269 -283 90 -75 377 -250 411 -250 8 0 14 -4 14 -10 0 -5 4 -10 9 -10 6 0 62
-25 126 -55 65 -30 118 -55 120 -55 2 0 59 -26 126 -58 68 -32 162 -76 209
-98 47 -21 87 -41 90 -44 3 -3 10 -6 16 -7 10 -2 90 -39 359 -168 113 -54 346
-170 605 -302 144 -73 232 -113 248 -113 7 0 12 -3 12 -8 0 -4 17 -12 38 -19
20 -6 55 -20 77 -29 22 -10 45 -19 50 -21 6 -2 71 -24 145 -49 184 -63 370
-111 535 -138 17 -3 41 -7 55 -10 107 -22 263 -31 510 -31 237 1 346 4 363 13
5 2 32 6 60 8 65 4 153 13 190 19 15 3 42 7 60 10 17 3 48 10 67 15 19 5 50
12 69 15 19 3 43 11 55 17 11 6 23 11 26 11 3 0 15 3 28 8 13 5 25 9 27 9 2 0
39 16 82 36 146 68 181 82 187 76 3 -3 6 -1 6 5 0 5 30 23 68 38 37 16 110 48
162 73 52 24 100 45 105 46 13 3 89 40 95 46 3 3 10 6 15 7 6 1 49 19 95 41
47 21 157 71 245 111 88 40 167 77 175 82 8 5 22 12 30 15 35 14 174 78 340
157 36 17 67 31 70 32 3 1 34 16 69 33 36 18 70 32 77 32 7 0 14 3 16 8 2 4
19 15 38 24 19 9 107 52 195 94 88 43 162 78 165 79 20 3 480 239 480 246 0 5
5 9 11 9 6 0 43 25 82 54 302 229 492 565 535 946 9 81 7 4845 -2 4994 -4 60
-9 113 -12 118 -3 5 -8 25 -10 46 -3 20 -12 57 -20 82 -9 25 -17 50 -18 55 -4
16 -17 45 -52 122 -73 162 -191 308 -344 427 -67 52 -206 146 -216 146 -4 0
-15 6 -23 14 -19 16 -82 51 -215 120 -108 56 -152 92 -162 133 -6 21 8 97 30
168 22 71 39 131 41 144 2 9 4 16 5 16 2 0 4 12 13 55 3 14 8 32 11 40 3 8 7
26 10 40 3 14 12 61 21 105 15 80 18 95 35 210 20 130 34 273 46 445 11 176
15 888 4 942 -22 112 -60 156 -165 187 -29 9 -1038 6 -1180 -3 -213 -14 -266
-18 -335 -31 -14 -2 -45 -6 -70 -9 -73 -8 -122 -17 -147 -27 -16 -6 -22 -5
-18 1 4 6 -2 7 -18 1 -13 -5 -37 -12 -53 -15 -38 -6 -113 -23 -144 -31 -3 -1
-23 -5 -45 -10 -56 -13 -54 -12 -60 -15 -3 -1 -8 -3 -12 -4 -5 -2 -28 -8 -53
-16 -25 -7 -49 -14 -55 -15 -5 -1 -13 -3 -17 -5 -5 -1 -11 -3 -15 -4 -5 -1
-33 -10 -63 -21 -30 -10 -60 -20 -66 -21 -30 -5 -266 -105 -379 -160 -129 -63
-193 -98 -297 -162 -29 -18 -62 -38 -73 -45 -11 -7 -37 -25 -57 -40 -21 -16
-38 -25 -38 -20 0 4 -4 2 -8 -5 -11 -16 -97 -21 -142 -8 -19 6 -75 36 -123 66
-48 30 -100 62 -115 70 -15 8 -29 17 -32 20 -12 12 -220 120 -296 153 -81 35
-132 57 -141 59 -5 1 -31 11 -58 24 -40 17 -218 77 -270 90 -5 1 -37 10 -70
19 -66 18 -134 33 -180 40 -16 3 -38 8 -47 11 -10 3 -30 7 -45 10 -16 2 -41 6
-58 9 -16 2 -50 7 -75 10 -25 3 -61 7 -80 10 -33 5 -95 11 -185 20 -22 2 -65
6 -95 9 -99 10 -373 25 -551 30 -70 2 -132 7 -138 10 -6 4 -11 3 -11 -3 0 -5
-10 -8 -22 -5 -13 2 -117 7 -233 10 -115 3 -239 6 -275 7 -36 2 -86 -1 -110
-5z m1129 -642 c36 -4 82 -9 101 -11 19 -2 55 -7 80 -10 43 -5 62 -8 140 -21
38 -7 61 -11 100 -19 14 -3 36 -7 50 -10 53 -10 68 -14 160 -40 144 -41 304
-96 395 -135 78 -34 100 -43 105 -45 21 -5 209 -101 224 -114 10 -9 20 -15 22
-13 2 1 14 -4 27 -11 12 -8 68 -42 125 -77 98 -60 201 -134 280 -203 57 -49
361 -356 417 -421 28 -32 66 -75 85 -95 19 -21 49 -55 65 -76 17 -20 35 -42
40 -49 6 -6 30 -36 55 -66 25 -30 53 -64 63 -75 72 -78 310 -413 351 -492 22
-44 22 -77 -1 -68 -48 20 -93 9 -221 -51 -50 -24 -95 -45 -100 -46 -4 -1 -18
-8 -32 -15 -30 -15 -37 -9 -44 39 -20 126 -104 261 -192 307 -72 38 -154 41
-262 12 -37 -10 -99 -67 -139 -126 -16 -24 -54 -112 -59 -135 0 -3 -4 -12 -7
-20 -4 -8 -8 -26 -11 -40 -10 -61 -12 -61 -90 -14 -40 24 -78 44 -84 44 -6 0
-12 4 -14 8 -1 5 -34 22 -73 37 -148 59 -303 30 -410 -78 -111 -111 -127 -246
-46 -382 29 -49 93 -103 192 -163 74 -45 255 -142 264 -141 15 0 125 -74 159
-108 40 -40 82 -105 94 -145 12 -40 7 -231 -7 -271 -12 -37 -15 -38 -50 -34
-20 3 -43 7 -51 10 -8 3 -31 8 -50 11 -19 3 -47 7 -62 10 -16 3 -39 8 -53 11
-14 3 -37 8 -52 11 -16 3 -33 7 -40 8 -7 1 -16 5 -19 9 -4 4 -16 7 -26 7 -16
0 -114 29 -158 47 -8 3 -19 7 -25 7 -5 1 -27 9 -49 19 -21 9 -41 17 -44 17
-11 0 -219 95 -244 112 -14 10 -29 18 -32 18 -10 0 -224 129 -239 145 -9 8
-18 15 -22 15 -5 0 -87 61 -125 93 -8 6 -32 27 -55 46 -199 165 -398 403 -556
666 -101 168 -222 429 -271 585 -11 36 -24 74 -29 85 -11 26 -55 180 -75 264
-9 36 -17 74 -20 84 -2 9 -6 27 -9 40 -2 12 -8 36 -11 52 -4 17 -8 39 -10 50
-2 11 -5 29 -7 40 -3 11 -10 55 -17 98 -6 43 -13 88 -15 100 -4 22 -13 106
-21 187 -8 87 -14 216 -15 317 -1 165 31 201 191 211 36 2 66 5 67 6 5 5 329
-2 392 -8z m4862 -11 c50 -27 57 -59 54 -245 -2 -91 -4 -165 -5 -165 0 0 -3
-35 -5 -78 -5 -80 -10 -129 -20 -207 -3 -25 -8 -61 -10 -80 -2 -19 -6 -46 -9
-60 -3 -14 -7 -42 -10 -63 -11 -68 -53 -264 -70 -322 -2 -5 -6 -23 -10 -40
-76 -304 -234 -658 -420 -945 -16 -25 -34 -48 -39 -51 -5 -3 -7 -8 -6 -10 4
-5 -103 -149 -170 -229 -61 -72 -155 -166 -233 -232 -28 -24 -56 -48 -62 -54
-6 -6 -58 -50 -116 -98 -58 -49 -124 -106 -148 -128 -25 -23 -47 -37 -52 -32
-5 5 -11 29 -14 54 -11 106 -18 157 -22 180 -3 14 -7 39 -10 55 -19 115 -57
288 -89 405 -15 52 -29 104 -32 115 -2 11 -7 27 -11 35 -3 8 -6 18 -7 23 -2 4
-3 8 -5 10 -1 1 -3 9 -5 17 -5 20 -28 90 -55 165 -22 62 -28 76 -53 135 -8 19
-27 64 -42 100 -45 110 -170 354 -227 445 -10 17 -24 42 -30 58 -7 15 -16 27
-20 27 -4 0 -8 7 -8 15 0 8 -4 15 -10 15 -5 0 -10 5 -10 11 0 12 -80 133 -92
137 -4 2 -8 8 -8 13 0 11 -81 122 -92 127 -5 2 -8 9 -8 15 0 7 -14 28 -31 47
-17 19 -43 51 -58 70 -14 19 -39 49 -55 67 -59 66 -60 70 -26 90 16 9 30 21
30 25 0 4 7 8 15 8 9 0 18 7 21 15 4 8 9 15 14 15 4 0 40 22 81 49 140 93 333
194 489 256 52 20 104 41 115 47 12 5 27 10 35 12 8 2 22 6 30 9 17 7 182 55
214 62 11 2 41 9 66 15 25 7 68 16 95 20 28 5 61 12 75 15 14 3 52 8 84 10 32
2 75 7 95 10 88 12 144 16 411 29 172 9 315 17 317 20 1 1 32 3 67 4 45 2 76
-2 97 -13z m-1712 -2392 c7 -21 22 -58 33 -83 11 -25 21 -49 22 -55 1 -5 4
-15 8 -20 10 -16 59 -202 69 -264 6 -30 12 -58 15 -63 3 -5 8 -56 10 -113 4
-115 -5 -144 -53 -177 -34 -23 -171 -90 -176 -86 -2 2 -11 -3 -19 -9 -16 -14
-148 -65 -148 -58 0 2 -11 0 -24 -5 -13 -5 -41 -11 -63 -15 -21 -3 -50 -8 -63
-10 -44 -9 -134 -18 -184 -19 l-50 -1 -12 49 c-19 73 -25 121 -29 236 -4 97
-3 109 21 158 14 28 29 52 32 52 4 0 27 18 50 39 24 22 67 51 95 64 89 43 229
107 233 107 3 0 31 16 62 36 56 36 121 99 123 119 0 6 2 17 4 25 9 35 18 87
19 108 0 33 10 27 25 -15z m-3883 -55 c66 -110 196 -298 207 -298 6 0 7 -3 4
-6 -4 -4 6 -21 21 -39 15 -18 34 -42 42 -53 80 -107 263 -301 402 -428 226
-207 586 -434 858 -541 36 -14 79 -31 95 -38 17 -8 48 -19 70 -26 22 -7 54
-18 70 -24 17 -7 46 -16 65 -20 19 -4 40 -10 45 -13 6 -4 15 -7 20 -8 6 -1 39
-10 75 -19 36 -10 72 -19 80 -20 8 -1 26 -5 40 -8 27 -7 41 -10 165 -32 131
-23 183 -30 300 -39 33 -3 92 -8 130 -11 84 -7 384 -7 475 0 178 14 295 27
360 40 47 9 145 28 160 30 8 1 22 5 30 8 8 3 38 10 65 16 229 52 550 182 775
315 90 53 217 134 241 154 8 7 57 44 109 84 119 91 145 113 305 273 146 146
215 222 215 236 0 6 5 7 10 4 6 -3 10 -2 10 3 0 9 75 107 107 140 7 7 13 17
13 21 0 4 8 16 18 27 29 32 162 224 162 234 0 6 4 10 8 10 5 0 16 16 25 36 15
30 21 34 45 30 45 -8 124 -32 167 -50 22 -9 40 -17 40 -16 0 9 162 -68 210
-99 135 -88 230 -215 257 -346 4 -22 11 -51 14 -65 12 -49 6 -1095 -6 -1095
-1 0 -3 -8 -5 -18 -2 -10 -19 -52 -39 -93 -32 -68 -101 -150 -172 -204 -25
-19 -160 -85 -393 -192 -36 -16 -104 -49 -151 -71 -47 -23 -87 -42 -90 -42 -3
0 -41 -18 -85 -39 -44 -20 -81 -37 -82 -37 -2 1 -29 -12 -60 -28 -32 -16 -85
-42 -118 -57 -33 -15 -100 -46 -150 -69 -49 -23 -126 -59 -170 -80 -44 -20
-112 -52 -151 -71 -39 -19 -77 -34 -83 -34 -6 0 -11 -4 -11 -10 0 -5 -5 -10
-12 -10 -11 0 -48 -17 -228 -103 -58 -27 -111 -50 -117 -50 -7 0 -13 -4 -13
-7 0 -4 -24 -18 -52 -30 -61 -26 -214 -98 -309 -146 -36 -19 -69 -31 -73 -27
-3 3 -6 1 -6 -5 0 -6 -26 -20 -57 -32 -32 -12 -60 -25 -63 -28 -3 -4 -23 -13
-45 -21 -22 -8 -51 -18 -65 -24 -14 -6 -30 -11 -36 -12 -6 -2 -36 -10 -65 -18
-30 -9 -67 -18 -84 -21 -16 -2 -30 -5 -30 -6 0 -4 -143 -22 -270 -36 -232 -24
-618 -24 -743 1 -11 2 -37 6 -58 9 -22 3 -50 8 -64 11 -14 2 -36 6 -50 9 -14
2 -63 14 -110 26 -106 27 -102 26 -120 33 -8 3 -33 11 -55 17 -22 6 -49 15
-60 19 -11 5 -58 23 -105 41 -87 34 -275 124 -297 142 -7 6 -13 8 -13 5 0 -3
-26 9 -57 26 -62 35 -378 192 -528 262 -49 24 -143 68 -209 99 -65 31 -119 56
-121 56 -2 0 -56 25 -120 55 -63 30 -118 55 -120 55 -2 0 -43 18 -92 41 -48
22 -106 49 -128 59 -22 10 -84 39 -138 64 -55 25 -100 46 -102 46 -3 0 -48 21
-274 126 -52 24 -117 59 -146 78 -59 40 -155 133 -155 152 0 7 -4 14 -8 16
-14 5 -60 110 -63 143 -2 17 -6 35 -9 40 -3 6 -6 54 -5 107 0 54 -4 98 -8 98
-5 0 -5 5 -1 12 11 17 11 58 1 58 -4 0 -5 6 0 12 9 16 11 165 2 193 -3 11 -3
29 1 40 4 11 4 34 -1 52 -4 18 -4 33 0 33 5 0 6 64 1 80 -1 3 -2 48 -2 100 1
470 84 646 372 786 46 23 299 112 322 113 4 1 23 -27 44 -61z m-497 -2732 c37
-8 95 -28 106 -36 6 -4 51 -25 100 -48 50 -22 128 -58 175 -80 138 -64 179
-82 190 -82 5 0 10 -4 10 -10 0 -5 6 -10 13 -10 7 0 31 -9 53 -19 39 -19 65
-31 279 -129 61 -27 181 -84 268 -126 86 -42 159 -75 161 -73 2 1 13 -6 24
-16 11 -10 26 -20 34 -21 7 -1 22 -7 33 -13 11 -6 68 -36 127 -67 59 -30 122
-64 140 -74 263 -148 402 -215 538 -261 36 -13 72 -25 80 -28 8 -3 21 -7 28
-9 8 -1 21 -6 30 -10 9 -4 22 -8 27 -9 6 -2 30 -8 55 -15 25 -7 52 -14 60 -15
8 -2 16 -4 18 -5 3 -3 0 -3 112 -25 49 -10 74 -14 119 -21 25 -4 55 -8 66 -10
21 -4 65 -10 150 -19 236 -27 705 -22 1015 11 78 8 90 10 103 14 4 1 16 4 27
5 11 1 21 3 23 5 1 1 13 4 27 6 14 2 70 20 125 40 55 19 106 36 113 36 6 1 12
5 12 10 0 4 7 8 15 8 8 0 23 4 33 9 35 19 533 261 537 261 2 0 52 23 112 51
59 28 128 60 153 71 103 46 115 52 122 62 4 6 8 8 8 4 0 -4 26 6 58 21 31 16
95 47 142 69 47 22 121 57 165 78 44 21 82 38 85 39 3 1 52 24 110 52 138 67
327 157 418 199 373 174 351 165 422 169 79 4 160 -58 174 -135 2 -14 5 -25 6
-25 10 0 15 -533 6 -662 -5 -84 -39 -180 -88 -250 -22 -32 -44 -60 -48 -63 -9
-6 -68 -52 -84 -65 -21 -18 -77 -45 -92 -45 -8 0 -14 -4 -14 -10 0 -5 -4 -10
-10 -10 -5 0 -53 -20 -106 -45 -53 -25 -97 -45 -99 -45 -1 0 -47 -21 -101 -47
-55 -25 -101 -47 -104 -47 -3 -1 -21 -9 -40 -18 -101 -47 -188 -86 -208 -92
-12 -4 -22 -12 -22 -17 0 -5 -6 -9 -14 -9 -7 0 -76 -30 -152 -66 -77 -36 -155
-72 -174 -81 -42 -18 -105 -48 -305 -141 -82 -38 -172 -80 -200 -92 -27 -12
-104 -49 -170 -81 -66 -33 -125 -59 -131 -59 -7 0 -14 -3 -16 -7 -1 -5 -79
-46 -173 -93 -93 -46 -173 -88 -176 -93 -3 -5 -9 -9 -12 -8 -4 0 -49 -20 -101
-45 -152 -72 -340 -130 -551 -169 -60 -11 -162 -19 -257 -19 -54 -1 -98 -4
-98 -8 0 -4 -12 -3 -27 1 -16 4 -66 6 -113 4 -176 -6 -306 -3 -390 11 -14 2
-50 7 -80 11 -30 4 -58 9 -62 12 -4 2 -22 6 -40 8 -37 5 -231 66 -286 91 -20
9 -185 90 -367 179 -430 213 -709 349 -715 350 -3 1 -52 24 -110 52 -350 168
-637 304 -650 308 -3 1 -54 25 -114 53 -60 29 -110 52 -112 52 -4 0 -186 85
-274 128 -41 20 -76 40 -78 44 -2 5 -10 8 -18 8 -8 0 -14 5 -14 10 0 6 -5 10
-10 10 -10 0 -73 53 -104 87 -70 77 -114 176 -131 293 -5 36 -10 525 -5 525 1
0 3 34 5 75 4 82 7 100 25 145 6 17 12 32 13 35 1 3 14 17 31 32 42 39 94 49
165 34z m31 -2008 c0 -5 3 -7 8 -6 17 5 77 -22 397 -178 77 -37 142 -68 145
-69 3 -1 45 -20 93 -43 49 -23 93 -42 98 -42 5 0 9 -4 9 -10 0 -5 4 -10 9 -10
10 0 116 -50 611 -288 52 -25 97 -46 100 -47 3 -1 64 -30 135 -64 72 -35 164
-79 205 -98 41 -20 122 -58 180 -86 190 -90 250 -117 259 -117 5 0 14 -6 20
-14 7 -8 23 -17 36 -20 14 -4 53 -19 87 -35 63 -29 124 -54 143 -58 6 -1 35
-9 65 -18 30 -8 70 -18 89 -21 18 -3 43 -8 55 -10 55 -12 238 -18 521 -17 287
1 388 5 505 18 25 3 65 8 90 11 25 3 56 7 70 10 14 2 41 7 60 10 19 3 51 9 70
14 19 5 51 11 71 14 40 6 263 72 288 86 9 4 18 8 21 8 15 1 154 60 198 84 18
10 39 18 46 18 8 0 16 4 18 8 2 5 28 22 58 38 30 17 71 39 90 50 19 10 37 21
40 24 3 3 28 17 55 31 28 14 68 36 90 49 22 12 90 48 150 78 61 30 113 60 116
65 3 5 8 8 10 7 7 -3 55 18 242 109 103 50 190 91 191 91 2 0 50 22 107 48
120 56 342 156 349 158 6 1 149 68 265 124 128 62 193 89 199 82 3 -3 6 -1 6
4 0 5 8 10 18 11 9 1 37 3 62 6 108 9 173 -39 211 -157 21 -66 23 -89 23 -301
0 -216 -4 -310 -19 -380 -10 -51 -37 -129 -54 -155 -29 -45 -35 -53 -92 -109
-87 -87 -253 -178 -640 -350 -25 -11 -99 -45 -164 -76 -64 -30 -119 -55 -120
-55 -2 0 -75 -34 -162 -76 -87 -42 -205 -99 -263 -126 -58 -28 -201 -97 -318
-154 -117 -57 -215 -104 -219 -104 -3 0 -14 -7 -24 -16 -9 -8 -23 -17 -31 -18
-7 -1 -122 -57 -255 -123 -133 -67 -244 -118 -247 -115 -3 3 -6 0 -6 -6 0 -7
-9 -12 -20 -12 -11 0 -20 -4 -20 -10 0 -5 -9 -10 -20 -10 -11 0 -20 -4 -20
-10 0 -5 -3 -9 -7 -8 -5 1 -44 -13 -88 -31 -44 -18 -86 -35 -95 -36 -8 -2 -15
-4 -15 -5 0 -1 -7 -3 -15 -5 -8 -3 -51 -15 -95 -29 -79 -24 -103 -29 -215 -46
-61 -10 -319 -6 -365 5 -16 4 -55 7 -85 6 -147 -5 -330 -4 -370 2 -95 16 -230
49 -311 78 -46 16 -88 31 -94 33 -21 6 -51 19 -92 37 -24 10 -46 19 -49 19 -4
0 -158 75 -343 167 -185 92 -338 167 -341 168 -3 1 -70 33 -150 72 -80 39
-188 91 -240 116 -220 104 -318 151 -370 174 -67 30 -141 65 -240 111 -41 20
-77 36 -80 37 -3 1 -31 14 -63 28 -31 15 -108 50 -170 78 -175 80 -282 132
-285 141 -2 4 -8 8 -12 8 -39 0 -260 203 -260 239 0 5 -4 11 -8 13 -24 10 -77
158 -88 243 -7 55 -7 524 0 558 3 15 8 39 11 53 11 53 76 127 120 136 34 7
125 3 125 -4z"/>
</g>
</svg>
