<svg xmlns="http://www.w3.org/2000/svg" version="1.1" xmlns:xlink="http://www.w3.org/1999/xlink" xmlns:svgjs="http://svgjs.com/svgjs" width="70" height="70"><svg width="70" height="70" viewBox="0 0 70 70" fill="none" xmlns="http://www.w3.org/2000/svg">
<path d="M0 0H70V70H0V0Z" fill="#1B1D1B"></path>
<path d="M0 0H70V15H0V0Z" fill="#02EA63"></path>
<path d="M22.4102 51L18.2852 37.5586H18.1797C18.3281 40.293 18.4023 42.1172 18.4023 43.0312V51H15.1562V33.8672H20.1016L24.1562 46.9688H24.2266L28.5273 33.8672H33.4727V51H30.0859V42.8906C30.0859 42.5078 30.0898 42.0664 30.0977 41.5664C30.1133 41.0664 30.168 39.7383 30.2617 37.582H30.1562L25.7383 51H22.4102ZM45.0508 51L40.9258 37.5586H40.8203C40.9688 40.293 41.043 42.1172 41.043 43.0312V51H37.7969V33.8672H42.7422L46.7969 46.9688H46.8672L51.168 33.8672H56.1133V51H52.7266V42.8906C52.7266 42.5078 52.7305 42.0664 52.7383 41.5664C52.7539 41.0664 52.8086 39.7383 52.9023 37.582H52.7969L48.3789 51H45.0508Z" fill="#02EA63"></path>
</svg><style>@media (prefers-color-scheme: light) { :root { filter: none; } }
</style></svg>